%TF.GenerationSoftware,KiCad,Pcbnew,8.0.2-8.0.2-0~ubuntu22.04.1*%
%TF.CreationDate,2024-05-17T11:44:15+02:00*%
%TF.ProjectId,qclock,71636c6f-636b-42e6-9b69-6361645f7063,rev?*%
%TF.SameCoordinates,Original*%
%TF.FileFunction,Soldermask,Top*%
%TF.FilePolarity,Negative*%
%FSLAX46Y46*%
G04 Gerber Fmt 4.6, Leading zero omitted, Abs format (unit mm)*
G04 Created by KiCad (PCBNEW 8.0.2-8.0.2-0~ubuntu22.04.1) date 2024-05-17 11:44:15*
%MOMM*%
%LPD*%
G01*
G04 APERTURE LIST*
G04 Aperture macros list*
%AMRoundRect*
0 Rectangle with rounded corners*
0 $1 Rounding radius*
0 $2 $3 $4 $5 $6 $7 $8 $9 X,Y pos of 4 corners*
0 Add a 4 corners polygon primitive as box body*
4,1,4,$2,$3,$4,$5,$6,$7,$8,$9,$2,$3,0*
0 Add four circle primitives for the rounded corners*
1,1,$1+$1,$2,$3*
1,1,$1+$1,$4,$5*
1,1,$1+$1,$6,$7*
1,1,$1+$1,$8,$9*
0 Add four rect primitives between the rounded corners*
20,1,$1+$1,$2,$3,$4,$5,0*
20,1,$1+$1,$4,$5,$6,$7,0*
20,1,$1+$1,$6,$7,$8,$9,0*
20,1,$1+$1,$8,$9,$2,$3,0*%
G04 Aperture macros list end*
%ADD10C,2.200000*%
%ADD11RoundRect,0.375000X-0.375000X0.625000X-0.375000X-0.625000X0.375000X-0.625000X0.375000X0.625000X0*%
%ADD12RoundRect,0.500000X-1.400000X0.500000X-1.400000X-0.500000X1.400000X-0.500000X1.400000X0.500000X0*%
%ADD13RoundRect,0.135000X-0.135000X-0.185000X0.135000X-0.185000X0.135000X0.185000X-0.135000X0.185000X0*%
%ADD14RoundRect,0.140000X0.170000X-0.140000X0.170000X0.140000X-0.170000X0.140000X-0.170000X-0.140000X0*%
%ADD15RoundRect,0.135000X0.185000X-0.135000X0.185000X0.135000X-0.185000X0.135000X-0.185000X-0.135000X0*%
%ADD16RoundRect,0.140000X-0.170000X0.140000X-0.170000X-0.140000X0.170000X-0.140000X0.170000X0.140000X0*%
%ADD17O,0.800000X0.800000*%
%ADD18R,1.300000X0.450000*%
%ADD19O,1.800000X1.150000*%
%ADD20O,2.000000X1.450000*%
%ADD21R,1.700000X1.700000*%
%ADD22O,1.700000X1.700000*%
%ADD23RoundRect,0.075000X-0.662500X-0.075000X0.662500X-0.075000X0.662500X0.075000X-0.662500X0.075000X0*%
%ADD24RoundRect,0.075000X-0.075000X-0.662500X0.075000X-0.662500X0.075000X0.662500X-0.075000X0.662500X0*%
%ADD25RoundRect,0.140000X0.140000X0.170000X-0.140000X0.170000X-0.140000X-0.170000X0.140000X-0.170000X0*%
%ADD26R,1.000000X0.800000*%
%ADD27C,0.900000*%
%ADD28R,0.700000X1.500000*%
%ADD29RoundRect,0.135000X-0.185000X0.135000X-0.185000X-0.135000X0.185000X-0.135000X0.185000X0.135000X0*%
%ADD30RoundRect,0.147500X0.172500X-0.147500X0.172500X0.147500X-0.172500X0.147500X-0.172500X-0.147500X0*%
%ADD31C,2.000000*%
%ADD32R,1.800000X1.400000*%
%ADD33RoundRect,0.147500X0.147500X0.172500X-0.147500X0.172500X-0.147500X-0.172500X0.147500X-0.172500X0*%
%ADD34RoundRect,0.225000X-0.225000X-0.250000X0.225000X-0.250000X0.225000X0.250000X-0.225000X0.250000X0*%
%ADD35RoundRect,0.250000X0.250000X0.475000X-0.250000X0.475000X-0.250000X-0.475000X0.250000X-0.475000X0*%
%ADD36R,0.900000X1.500000*%
%ADD37RoundRect,0.250000X0.475000X-0.250000X0.475000X0.250000X-0.475000X0.250000X-0.475000X-0.250000X0*%
%ADD38RoundRect,0.140000X-0.140000X-0.170000X0.140000X-0.170000X0.140000X0.170000X-0.140000X0.170000X0*%
G04 APERTURE END LIST*
D10*
%TO.C,H4*%
X115500000Y-100000000D03*
%TD*%
%TO.C,H3*%
X115500000Y-72000000D03*
%TD*%
%TO.C,H2*%
X170750000Y-72000000D03*
%TD*%
%TO.C,H1*%
X170750000Y-100000000D03*
%TD*%
D11*
%TO.C,U2*%
X165800000Y-94350000D03*
X163500000Y-94350000D03*
D12*
X163500000Y-100650000D03*
D11*
X161200000Y-94350000D03*
%TD*%
D13*
%TO.C,R1*%
X155740000Y-79750000D03*
X156760000Y-79750000D03*
%TD*%
D14*
%TO.C,C3*%
X145750000Y-83480000D03*
X145750000Y-82520000D03*
%TD*%
D15*
%TO.C,R5*%
X160000000Y-86010000D03*
X160000000Y-84990000D03*
%TD*%
D16*
%TO.C,C6*%
X144750000Y-87270000D03*
X144750000Y-88230000D03*
%TD*%
D14*
%TO.C,C1*%
X144750000Y-86210000D03*
X144750000Y-85250000D03*
%TD*%
D15*
%TO.C,R2*%
X135000000Y-93510000D03*
X135000000Y-92490000D03*
%TD*%
D16*
%TO.C,C14*%
X120350000Y-82800000D03*
X120350000Y-81840000D03*
%TD*%
D17*
%TO.C,J3*%
X169100000Y-88600000D03*
X169100000Y-83600000D03*
D18*
X168000000Y-87400000D03*
X168000000Y-86750000D03*
X168000000Y-86100000D03*
X168000000Y-85450000D03*
X168000000Y-84800000D03*
D19*
X171850000Y-89975000D03*
D20*
X168050000Y-89825000D03*
X168050000Y-82375000D03*
D19*
X171850000Y-82225000D03*
%TD*%
D21*
%TO.C,UART*%
X145500000Y-72250000D03*
D22*
X142960000Y-72250000D03*
X140420000Y-72250000D03*
X137880000Y-72250000D03*
%TD*%
D23*
%TO.C,U1*%
X147337500Y-84750000D03*
X147337500Y-85250000D03*
X147337500Y-85750000D03*
X147337500Y-86250000D03*
X147337500Y-86750000D03*
X147337500Y-87250000D03*
X147337500Y-87750000D03*
X147337500Y-88250000D03*
X147337500Y-88750000D03*
X147337500Y-89250000D03*
X147337500Y-89750000D03*
X147337500Y-90250000D03*
D24*
X148750000Y-91662500D03*
X149250000Y-91662500D03*
X149750000Y-91662500D03*
X150250000Y-91662500D03*
X150750000Y-91662500D03*
X151250000Y-91662500D03*
X151750000Y-91662500D03*
X152250000Y-91662500D03*
X152750000Y-91662500D03*
X153250000Y-91662500D03*
X153750000Y-91662500D03*
X154250000Y-91662500D03*
D23*
X155662500Y-90250000D03*
X155662500Y-89750000D03*
X155662500Y-89250000D03*
X155662500Y-88750000D03*
X155662500Y-88250000D03*
X155662500Y-87750000D03*
X155662500Y-87250000D03*
X155662500Y-86750000D03*
X155662500Y-86250000D03*
X155662500Y-85750000D03*
X155662500Y-85250000D03*
X155662500Y-84750000D03*
D24*
X154250000Y-83337500D03*
X153750000Y-83337500D03*
X153250000Y-83337500D03*
X152750000Y-83337500D03*
X152250000Y-83337500D03*
X151750000Y-83337500D03*
X151250000Y-83337500D03*
X150750000Y-83337500D03*
X150250000Y-83337500D03*
X149750000Y-83337500D03*
X149250000Y-83337500D03*
X148750000Y-83337500D03*
%TD*%
D25*
%TO.C,C7*%
X154480000Y-94000000D03*
X153520000Y-94000000D03*
%TD*%
D13*
%TO.C,R7*%
X147490000Y-97250000D03*
X148510000Y-97250000D03*
%TD*%
D26*
%TO.C,SW1*%
X155650000Y-73350000D03*
X155650000Y-71140000D03*
D27*
X153500000Y-72240000D03*
X150500000Y-72240000D03*
D26*
X148350000Y-73350000D03*
X148350000Y-71140000D03*
D28*
X154250000Y-74000000D03*
X151250000Y-74000000D03*
X149750000Y-74000000D03*
%TD*%
D14*
%TO.C,C9*%
X144750000Y-90230000D03*
X144750000Y-89270000D03*
%TD*%
D29*
%TO.C,R4*%
X134750000Y-73750000D03*
X134750000Y-74770000D03*
%TD*%
D21*
%TO.C,LED*%
X120750000Y-77500000D03*
D22*
X120750000Y-74960000D03*
X120750000Y-72420000D03*
%TD*%
D30*
%TO.C,D1*%
X158000000Y-94235000D03*
X158000000Y-93265000D03*
%TD*%
D31*
%TO.C,Subminute*%
X125500000Y-72000000D03*
X132000000Y-72000000D03*
X125500000Y-76500000D03*
X132000000Y-76500000D03*
%TD*%
D32*
%TO.C,Y1*%
X140900000Y-86500000D03*
X136500000Y-86500000D03*
X136500000Y-88900000D03*
X140900000Y-88900000D03*
%TD*%
D16*
%TO.C,C10*%
X142500000Y-93000000D03*
X142500000Y-93960000D03*
%TD*%
D31*
%TO.C,Hour*%
X132000000Y-93500000D03*
X125500000Y-93500000D03*
X132000000Y-89000000D03*
X125500000Y-89000000D03*
%TD*%
D25*
%TO.C,C11*%
X145230000Y-94250000D03*
X144270000Y-94250000D03*
%TD*%
D31*
%TO.C,Minute*%
X125500000Y-80500000D03*
X132000000Y-80500000D03*
X125500000Y-85000000D03*
X132000000Y-85000000D03*
%TD*%
D16*
%TO.C,C16*%
X120350000Y-92300000D03*
X120350000Y-91340000D03*
%TD*%
D33*
%TO.C,FB1*%
X145235000Y-93000000D03*
X144265000Y-93000000D03*
%TD*%
D16*
%TO.C,C4*%
X158000000Y-84520000D03*
X158000000Y-85480000D03*
%TD*%
D34*
%TO.C,C2*%
X148225000Y-79250000D03*
X149775000Y-79250000D03*
%TD*%
D21*
%TO.C,I2C*%
X145460000Y-100250000D03*
D22*
X148000000Y-100250000D03*
X150540000Y-100250000D03*
X153080000Y-100250000D03*
%TD*%
D29*
%TO.C,R3*%
X134750000Y-80240000D03*
X134750000Y-81260000D03*
%TD*%
D35*
%TO.C,C12*%
X162450000Y-91000000D03*
X160550000Y-91000000D03*
%TD*%
D21*
%TO.C,SWD*%
X166080000Y-72250000D03*
D22*
X163540000Y-72250000D03*
X161000000Y-72250000D03*
X158460000Y-72250000D03*
%TD*%
D36*
%TO.C,D2*%
X117150000Y-79800000D03*
X113850000Y-79800000D03*
X113850000Y-84700000D03*
X117150000Y-84700000D03*
%TD*%
D15*
%TO.C,R6*%
X158000000Y-96760000D03*
X158000000Y-95740000D03*
%TD*%
D37*
%TO.C,C13*%
X158250000Y-100700000D03*
X158250000Y-98800000D03*
%TD*%
D38*
%TO.C,C8*%
X148520000Y-81000000D03*
X149480000Y-81000000D03*
%TD*%
D14*
%TO.C,C5*%
X147000000Y-82230000D03*
X147000000Y-81270000D03*
%TD*%
D36*
%TO.C,D4*%
X117150000Y-89550000D03*
X113850000Y-89550000D03*
X113850000Y-94450000D03*
X117150000Y-94450000D03*
%TD*%
D13*
%TO.C,R8*%
X149990000Y-97250000D03*
X151010000Y-97250000D03*
%TD*%
M02*
