%TF.GenerationSoftware,KiCad,Pcbnew,8.0.2-8.0.2-0~ubuntu22.04.1*%
%TF.CreationDate,2024-05-17T14:26:03+02:00*%
%TF.ProjectId,qclock,71636c6f-636b-42e6-9b69-6361645f7063,rev?*%
%TF.SameCoordinates,Original*%
%TF.FileFunction,Copper,L2,Bot*%
%TF.FilePolarity,Positive*%
%FSLAX46Y46*%
G04 Gerber Fmt 4.6, Leading zero omitted, Abs format (unit mm)*
G04 Created by KiCad (PCBNEW 8.0.2-8.0.2-0~ubuntu22.04.1) date 2024-05-17 14:26:03*
%MOMM*%
%LPD*%
G01*
G04 APERTURE LIST*
%TA.AperFunction,ComponentPad*%
%ADD10O,1.800000X1.150000*%
%TD*%
%TA.AperFunction,ComponentPad*%
%ADD11O,2.000000X1.450000*%
%TD*%
%TA.AperFunction,ComponentPad*%
%ADD12O,1.700000X1.700000*%
%TD*%
%TA.AperFunction,ComponentPad*%
%ADD13R,1.700000X1.700000*%
%TD*%
%TA.AperFunction,ComponentPad*%
%ADD14C,2.000000*%
%TD*%
%TA.AperFunction,ViaPad*%
%ADD15C,0.700000*%
%TD*%
%TA.AperFunction,Conductor*%
%ADD16C,0.500000*%
%TD*%
%TA.AperFunction,Conductor*%
%ADD17C,0.300000*%
%TD*%
G04 APERTURE END LIST*
D10*
%TO.P,J3,6,Shield*%
%TO.N,unconnected-(J3-Shield-Pad6)_0*%
X171850000Y-89975000D03*
D11*
%TO.N,unconnected-(J3-Shield-Pad6)*%
X168050000Y-89825000D03*
%TO.N,unconnected-(J3-Shield-Pad6)_2*%
X168050000Y-82375000D03*
D10*
%TO.N,unconnected-(J3-Shield-Pad6)_1*%
X171850000Y-82225000D03*
%TD*%
D12*
%TO.P,J1,4,Pin_4*%
%TO.N,GND*%
X137000000Y-72250000D03*
%TO.P,J1,3,Pin_3*%
%TO.N,/UART_RX*%
X139540000Y-72250000D03*
%TO.P,J1,2,Pin_2*%
%TO.N,/UART_TX*%
X142080000Y-72250000D03*
D13*
%TO.P,J1,1,Pin_1*%
%TO.N,+3V3*%
X144620000Y-72250000D03*
%TD*%
%TO.P,J5,1,Pin_1*%
%TO.N,GND*%
X120750000Y-77500000D03*
D12*
%TO.P,J5,2,Pin_2*%
%TO.N,Net-(D2-DOUT)*%
X120750000Y-74960000D03*
%TO.P,J5,3,Pin_3*%
%TO.N,VBUS*%
X120750000Y-72420000D03*
%TD*%
D14*
%TO.P,SW4,1,1*%
%TO.N,/BTN_SM*%
X125500000Y-72000000D03*
X132000000Y-72000000D03*
%TO.P,SW4,2,2*%
%TO.N,+3V3*%
X125500000Y-76500000D03*
X132000000Y-76500000D03*
%TD*%
%TO.P,SW2,1,1*%
%TO.N,/BTN_H*%
X132000000Y-93500000D03*
X125500000Y-93500000D03*
%TO.P,SW2,2,2*%
%TO.N,+3V3*%
X132000000Y-89000000D03*
X125500000Y-89000000D03*
%TD*%
%TO.P,SW3,1,1*%
%TO.N,/BTN_M*%
X125500000Y-80500000D03*
X132000000Y-80500000D03*
%TO.P,SW3,2,2*%
%TO.N,+3V3*%
X125500000Y-85000000D03*
X132000000Y-85000000D03*
%TD*%
D13*
%TO.P,J4,1,Pin_1*%
%TO.N,+3V3*%
X145460000Y-100250000D03*
D12*
%TO.P,J4,2,Pin_2*%
%TO.N,/I2C2_SCL*%
X148000000Y-100250000D03*
%TO.P,J4,3,Pin_3*%
%TO.N,/I2C2_SDA*%
X150540000Y-100250000D03*
%TO.P,J4,4,Pin_4*%
%TO.N,GND*%
X153080000Y-100250000D03*
%TD*%
%TO.P,J2,4,Pin_4*%
%TO.N,GND*%
X158460000Y-72250000D03*
%TO.P,J2,3,Pin_3*%
%TO.N,/SWCLK*%
X161000000Y-72250000D03*
%TO.P,J2,2,Pin_2*%
%TO.N,/SWDIO*%
X163540000Y-72250000D03*
D13*
%TO.P,J2,1,Pin_1*%
%TO.N,+3V3*%
X166080000Y-72250000D03*
%TD*%
D15*
%TO.N,GND*%
X138000000Y-74500000D03*
X135500000Y-75500000D03*
X148690686Y-74809314D03*
X141500000Y-90000000D03*
X137000000Y-86000000D03*
X158990000Y-96760000D03*
X143770000Y-88230000D03*
X156800000Y-98800000D03*
X159000000Y-91000000D03*
X120285355Y-93464645D03*
X123250000Y-77500000D03*
X142750000Y-94750000D03*
X166050000Y-84800000D03*
X134750000Y-82250000D03*
X152500000Y-94250000D03*
X143750000Y-89250000D03*
X143500000Y-95000000D03*
X134250000Y-91750000D03*
X150500000Y-80950000D03*
X167650000Y-94350000D03*
X144250000Y-84250000D03*
X113750000Y-86500000D03*
X144714644Y-81785356D03*
X147000000Y-80250000D03*
X155500000Y-100250000D03*
X157000000Y-74750000D03*
X151000000Y-79200000D03*
X158980000Y-85480000D03*
X149750000Y-84750000D03*
X120350000Y-83650000D03*
X114250000Y-96500000D03*
X149000000Y-88250000D03*
%TO.N,+3V3*%
X146250000Y-98000000D03*
X164500000Y-92000000D03*
X138750000Y-99250000D03*
X149250000Y-98000000D03*
X164500000Y-84750000D03*
X139500000Y-76000000D03*
X137500000Y-93750000D03*
X149500000Y-76000000D03*
X165750000Y-76000000D03*
%TO.N,VBUS*%
X131250000Y-100500000D03*
X131250000Y-98250000D03*
%TO.N,Net-(D2-DOUT)*%
X116250000Y-76500000D03*
X118000000Y-76500000D03*
%TO.N,/LED*%
X143250000Y-91500000D03*
X145250000Y-91500000D03*
%TO.N,/UART_TX*%
X153250000Y-81750000D03*
X143000000Y-79250000D03*
%TO.N,/UART_RX*%
X153000000Y-80750000D03*
X140500000Y-80000000D03*
%TO.N,/BOOT0*%
X155250000Y-80500000D03*
X152000000Y-79000000D03*
%TO.N,/BTN_H*%
X158000000Y-88250000D03*
X138050000Y-96250000D03*
%TO.N,/BTN_M*%
X138750000Y-78250000D03*
X160250000Y-87750000D03*
%TO.N,/BTN_SM*%
X137250000Y-75250000D03*
X161250000Y-87750000D03*
%TD*%
D16*
%TO.N,+3V3*%
X137250000Y-94000000D02*
X137250000Y-97750000D01*
X146250000Y-98000000D02*
X149250000Y-98000000D01*
X139500000Y-76000000D02*
X149500000Y-76000000D01*
X149750000Y-76250000D02*
X165500000Y-76250000D01*
X164500000Y-87750000D02*
X164500000Y-92000000D01*
X137250000Y-97750000D02*
X138750000Y-99250000D01*
X164500000Y-84750000D02*
X164500000Y-87750000D01*
X149500000Y-76000000D02*
X149750000Y-76250000D01*
X165500000Y-76250000D02*
X165750000Y-76000000D01*
X137500000Y-93750000D02*
X137250000Y-94000000D01*
%TO.N,VBUS*%
X131250000Y-98250000D02*
X131250000Y-100500000D01*
D17*
%TO.N,Net-(D2-DOUT)*%
X118000000Y-76500000D02*
X116250000Y-76500000D01*
%TO.N,/LED*%
X145250000Y-91500000D02*
X143250000Y-91500000D01*
%TO.N,/UART_TX*%
X153250000Y-81750000D02*
X153500000Y-81750000D01*
X153500000Y-81750000D02*
X154500000Y-80750000D01*
X154500000Y-80750000D02*
X153650000Y-79900000D01*
X153650000Y-79900000D02*
X147650000Y-79900000D01*
X147650000Y-79900000D02*
X147000000Y-79250000D01*
X147000000Y-79250000D02*
X143000000Y-79250000D01*
%TO.N,/UART_RX*%
X153000000Y-80750000D02*
X152100000Y-81650000D01*
X143919239Y-80000000D02*
X140500000Y-80000000D01*
X145569239Y-81650000D02*
X143919239Y-80000000D01*
X152100000Y-81650000D02*
X145569239Y-81650000D01*
%TO.N,/BOOT0*%
X152250000Y-78750000D02*
X153500000Y-78750000D01*
X153500000Y-78750000D02*
X155250000Y-80500000D01*
X152000000Y-79000000D02*
X152250000Y-78750000D01*
%TO.N,/BTN_H*%
X158000000Y-88500000D02*
X157750000Y-88750000D01*
X157750000Y-92000000D02*
X153500000Y-96250000D01*
X157750000Y-88750000D02*
X157750000Y-92000000D01*
X158000000Y-88250000D02*
X158000000Y-88500000D01*
X153500000Y-96250000D02*
X138000000Y-96250000D01*
%TO.N,/BTN_M*%
X160750000Y-79000000D02*
X160750000Y-87250000D01*
X160500000Y-79000000D02*
X160750000Y-79000000D01*
X138750000Y-78250000D02*
X159750000Y-78250000D01*
X160750000Y-87250000D02*
X160250000Y-87750000D01*
X159750000Y-78250000D02*
X160500000Y-79000000D01*
%TO.N,/BTN_SM*%
X161250000Y-87750000D02*
X161250000Y-78250000D01*
X160250000Y-77250000D02*
X139250000Y-77250000D01*
X139250000Y-77250000D02*
X137250000Y-75250000D01*
X161250000Y-78250000D02*
X160250000Y-77250000D01*
%TD*%
%TA.AperFunction,Conductor*%
%TO.N,GND*%
G36*
X146746231Y-79920185D02*
G01*
X146766873Y-79936819D01*
X147235325Y-80405272D01*
X147235326Y-80405273D01*
X147235329Y-80405275D01*
X147235331Y-80405277D01*
X147341873Y-80476465D01*
X147460256Y-80525501D01*
X147460260Y-80525501D01*
X147460261Y-80525502D01*
X147585928Y-80550500D01*
X147585931Y-80550500D01*
X151980192Y-80550500D01*
X152047231Y-80570185D01*
X152092986Y-80622989D01*
X152102930Y-80692147D01*
X152073905Y-80755703D01*
X152067873Y-80762181D01*
X151866873Y-80963181D01*
X151805550Y-80996666D01*
X151779192Y-80999500D01*
X145890047Y-80999500D01*
X145823008Y-80979815D01*
X145802366Y-80963181D01*
X144951366Y-80112181D01*
X144917881Y-80050858D01*
X144922865Y-79981166D01*
X144964737Y-79925233D01*
X145030201Y-79900816D01*
X145039047Y-79900500D01*
X146679192Y-79900500D01*
X146746231Y-79920185D01*
G37*
%TD.AperFunction*%
%TA.AperFunction,Conductor*%
G36*
X151089746Y-78920185D02*
G01*
X151135501Y-78972989D01*
X151146027Y-79011536D01*
X151156643Y-79112540D01*
X151144075Y-79181268D01*
X151096343Y-79232292D01*
X151033323Y-79249500D01*
X147970808Y-79249500D01*
X147903769Y-79229815D01*
X147883127Y-79213181D01*
X147782127Y-79112181D01*
X147748642Y-79050858D01*
X147753626Y-78981166D01*
X147795498Y-78925233D01*
X147860962Y-78900816D01*
X147869808Y-78900500D01*
X151022707Y-78900500D01*
X151089746Y-78920185D01*
G37*
%TD.AperFunction*%
%TA.AperFunction,Conductor*%
G36*
X172996503Y-70019685D02*
G01*
X173026411Y-70046687D01*
X173194267Y-70257172D01*
X173202314Y-70268513D01*
X173374034Y-70541804D01*
X173380760Y-70553974D01*
X173520798Y-70844766D01*
X173526120Y-70857613D01*
X173632724Y-71162270D01*
X173636573Y-71175633D01*
X173708393Y-71490299D01*
X173710722Y-71504007D01*
X173746957Y-71825597D01*
X173747725Y-71837743D01*
X173749988Y-71999144D01*
X173750000Y-72000882D01*
X173750000Y-99999117D01*
X173749988Y-100000855D01*
X173747725Y-100162256D01*
X173746957Y-100174402D01*
X173710722Y-100495992D01*
X173708393Y-100509700D01*
X173636573Y-100824366D01*
X173632724Y-100837729D01*
X173526120Y-101142386D01*
X173520798Y-101155233D01*
X173380760Y-101446025D01*
X173374034Y-101458195D01*
X173202314Y-101731486D01*
X173194267Y-101742827D01*
X172993028Y-101995173D01*
X172983762Y-102005541D01*
X172755541Y-102233762D01*
X172745173Y-102243028D01*
X172492827Y-102444267D01*
X172481486Y-102452314D01*
X172208195Y-102624034D01*
X172196025Y-102630760D01*
X171973922Y-102737720D01*
X171920120Y-102750000D01*
X114329880Y-102750000D01*
X114276078Y-102737720D01*
X114053974Y-102630760D01*
X114041804Y-102624034D01*
X113768513Y-102452314D01*
X113757172Y-102444267D01*
X113504826Y-102243028D01*
X113494458Y-102233762D01*
X113266237Y-102005541D01*
X113256971Y-101995173D01*
X113055732Y-101742827D01*
X113047685Y-101731486D01*
X112965380Y-101600499D01*
X112875964Y-101458193D01*
X112869239Y-101446025D01*
X112819301Y-101342328D01*
X112729199Y-101155228D01*
X112723879Y-101142386D01*
X112716536Y-101121402D01*
X112617273Y-100837725D01*
X112613426Y-100824366D01*
X112541606Y-100509700D01*
X112539277Y-100495992D01*
X112537312Y-100478553D01*
X112503041Y-100174390D01*
X112502274Y-100162269D01*
X112500012Y-100000855D01*
X112500000Y-99999117D01*
X112500000Y-99893713D01*
X114149500Y-99893713D01*
X114149500Y-100106287D01*
X114182754Y-100316243D01*
X114245612Y-100509700D01*
X114248444Y-100518414D01*
X114344951Y-100707820D01*
X114469890Y-100879786D01*
X114620213Y-101030109D01*
X114792179Y-101155048D01*
X114792181Y-101155049D01*
X114792184Y-101155051D01*
X114981588Y-101251557D01*
X115183757Y-101317246D01*
X115393713Y-101350500D01*
X115393714Y-101350500D01*
X115606286Y-101350500D01*
X115606287Y-101350500D01*
X115816243Y-101317246D01*
X116018412Y-101251557D01*
X116207816Y-101155051D01*
X116254132Y-101121401D01*
X116379786Y-101030109D01*
X116379788Y-101030106D01*
X116379792Y-101030104D01*
X116530104Y-100879792D01*
X116530106Y-100879788D01*
X116530109Y-100879786D01*
X116644723Y-100722032D01*
X116655051Y-100707816D01*
X116751557Y-100518412D01*
X116817246Y-100316243D01*
X116850500Y-100106287D01*
X116850500Y-99893713D01*
X116817246Y-99683757D01*
X116751557Y-99481588D01*
X116655051Y-99292184D01*
X116655049Y-99292181D01*
X116655048Y-99292179D01*
X116530109Y-99120213D01*
X116379786Y-98969890D01*
X116207820Y-98844951D01*
X116018414Y-98748444D01*
X116018413Y-98748443D01*
X116018412Y-98748443D01*
X115816243Y-98682754D01*
X115816241Y-98682753D01*
X115816240Y-98682753D01*
X115616357Y-98651095D01*
X115606287Y-98649500D01*
X115393713Y-98649500D01*
X115383643Y-98651095D01*
X115183760Y-98682753D01*
X114981585Y-98748444D01*
X114792179Y-98844951D01*
X114620213Y-98969890D01*
X114469890Y-99120213D01*
X114344951Y-99292179D01*
X114248444Y-99481585D01*
X114182753Y-99683760D01*
X114172262Y-99750000D01*
X114149500Y-99893713D01*
X112500000Y-99893713D01*
X112500000Y-98250000D01*
X130394815Y-98250000D01*
X130413503Y-98427805D01*
X130413504Y-98427807D01*
X130468747Y-98597829D01*
X130468748Y-98597830D01*
X130468750Y-98597835D01*
X130482887Y-98622322D01*
X130499500Y-98684320D01*
X130499500Y-100065678D01*
X130482887Y-100127678D01*
X130468750Y-100152163D01*
X130413504Y-100322192D01*
X130413503Y-100322194D01*
X130394815Y-100500000D01*
X130413503Y-100677805D01*
X130413504Y-100677807D01*
X130468747Y-100847829D01*
X130468750Y-100847835D01*
X130558141Y-101002665D01*
X130582852Y-101030109D01*
X130677764Y-101135521D01*
X130677767Y-101135523D01*
X130677770Y-101135526D01*
X130822407Y-101240612D01*
X130985733Y-101313329D01*
X131160609Y-101350500D01*
X131160610Y-101350500D01*
X131339389Y-101350500D01*
X131339391Y-101350500D01*
X131514267Y-101313329D01*
X131677593Y-101240612D01*
X131822230Y-101135526D01*
X131834948Y-101121402D01*
X131848148Y-101106741D01*
X131941859Y-101002665D01*
X132031250Y-100847835D01*
X132086497Y-100677803D01*
X132105185Y-100500000D01*
X132086497Y-100322197D01*
X132031250Y-100152165D01*
X132017113Y-100127678D01*
X132000500Y-100065678D01*
X132000500Y-98684320D01*
X132017112Y-98622322D01*
X132031250Y-98597835D01*
X132086497Y-98427803D01*
X132105185Y-98250000D01*
X132086497Y-98072197D01*
X132031250Y-97902165D01*
X131986075Y-97823920D01*
X136499499Y-97823920D01*
X136528340Y-97968907D01*
X136528343Y-97968917D01*
X136584914Y-98105492D01*
X136617812Y-98154727D01*
X136617813Y-98154730D01*
X136667046Y-98228414D01*
X136667052Y-98228421D01*
X137915105Y-99476473D01*
X137945355Y-99525835D01*
X137968748Y-99597831D01*
X137968750Y-99597835D01*
X138058141Y-99752665D01*
X138080923Y-99777967D01*
X138177764Y-99885521D01*
X138177767Y-99885523D01*
X138177770Y-99885526D01*
X138322407Y-99990612D01*
X138485733Y-100063329D01*
X138660609Y-100100500D01*
X138660610Y-100100500D01*
X138839389Y-100100500D01*
X138839391Y-100100500D01*
X139014267Y-100063329D01*
X139177593Y-99990612D01*
X139322230Y-99885526D01*
X139441859Y-99752665D01*
X139531250Y-99597835D01*
X139586497Y-99427803D01*
X139594450Y-99352135D01*
X144109500Y-99352135D01*
X144109500Y-101147870D01*
X144109501Y-101147876D01*
X144115908Y-101207483D01*
X144166202Y-101342328D01*
X144166206Y-101342335D01*
X144252452Y-101457544D01*
X144252455Y-101457547D01*
X144367664Y-101543793D01*
X144367671Y-101543797D01*
X144502517Y-101594091D01*
X144502516Y-101594091D01*
X144509444Y-101594835D01*
X144562127Y-101600500D01*
X146357872Y-101600499D01*
X146417483Y-101594091D01*
X146552331Y-101543796D01*
X146667546Y-101457546D01*
X146753796Y-101342331D01*
X146802810Y-101210916D01*
X146844681Y-101154984D01*
X146910145Y-101130566D01*
X146978418Y-101145417D01*
X147006673Y-101166569D01*
X147128599Y-101288495D01*
X147217151Y-101350500D01*
X147322165Y-101424032D01*
X147322167Y-101424033D01*
X147322170Y-101424035D01*
X147536337Y-101523903D01*
X147764592Y-101585063D01*
X147941034Y-101600500D01*
X147999999Y-101605659D01*
X148000000Y-101605659D01*
X148000001Y-101605659D01*
X148058966Y-101600500D01*
X148235408Y-101585063D01*
X148463663Y-101523903D01*
X148677830Y-101424035D01*
X148871401Y-101288495D01*
X149038495Y-101121401D01*
X149168425Y-100935842D01*
X149223002Y-100892217D01*
X149292500Y-100885023D01*
X149354855Y-100916546D01*
X149371575Y-100935842D01*
X149501281Y-101121082D01*
X149501505Y-101121401D01*
X149668599Y-101288495D01*
X149757151Y-101350500D01*
X149862165Y-101424032D01*
X149862167Y-101424033D01*
X149862170Y-101424035D01*
X150076337Y-101523903D01*
X150304592Y-101585063D01*
X150481034Y-101600500D01*
X150539999Y-101605659D01*
X150540000Y-101605659D01*
X150540001Y-101605659D01*
X150598966Y-101600500D01*
X150775408Y-101585063D01*
X151003663Y-101523903D01*
X151217830Y-101424035D01*
X151411401Y-101288495D01*
X151578495Y-101121401D01*
X151708730Y-100935405D01*
X151763307Y-100891781D01*
X151832805Y-100884587D01*
X151895160Y-100916110D01*
X151911879Y-100935405D01*
X152041890Y-101121078D01*
X152208917Y-101288105D01*
X152402421Y-101423600D01*
X152616507Y-101523429D01*
X152616516Y-101523433D01*
X152830000Y-101580634D01*
X152830000Y-100683012D01*
X152887007Y-100715925D01*
X153014174Y-100750000D01*
X153145826Y-100750000D01*
X153272993Y-100715925D01*
X153330000Y-100683012D01*
X153330000Y-101580633D01*
X153543483Y-101523433D01*
X153543492Y-101523429D01*
X153757578Y-101423600D01*
X153951082Y-101288105D01*
X154118105Y-101121082D01*
X154253600Y-100927578D01*
X154353429Y-100713492D01*
X154353432Y-100713486D01*
X154410636Y-100500000D01*
X153513012Y-100500000D01*
X153545925Y-100442993D01*
X153580000Y-100315826D01*
X153580000Y-100184174D01*
X153545925Y-100057007D01*
X153513012Y-100000000D01*
X154410636Y-100000000D01*
X154410635Y-99999999D01*
X154382156Y-99893713D01*
X169399500Y-99893713D01*
X169399500Y-100106287D01*
X169432754Y-100316243D01*
X169495612Y-100509700D01*
X169498444Y-100518414D01*
X169594951Y-100707820D01*
X169719890Y-100879786D01*
X169870213Y-101030109D01*
X170042179Y-101155048D01*
X170042181Y-101155049D01*
X170042184Y-101155051D01*
X170231588Y-101251557D01*
X170433757Y-101317246D01*
X170643713Y-101350500D01*
X170643714Y-101350500D01*
X170856286Y-101350500D01*
X170856287Y-101350500D01*
X171066243Y-101317246D01*
X171268412Y-101251557D01*
X171457816Y-101155051D01*
X171504132Y-101121401D01*
X171629786Y-101030109D01*
X171629788Y-101030106D01*
X171629792Y-101030104D01*
X171780104Y-100879792D01*
X171780106Y-100879788D01*
X171780109Y-100879786D01*
X171894723Y-100722032D01*
X171905051Y-100707816D01*
X172001557Y-100518412D01*
X172067246Y-100316243D01*
X172100500Y-100106287D01*
X172100500Y-99893713D01*
X172067246Y-99683757D01*
X172001557Y-99481588D01*
X171905051Y-99292184D01*
X171905049Y-99292181D01*
X171905048Y-99292179D01*
X171780109Y-99120213D01*
X171629786Y-98969890D01*
X171457820Y-98844951D01*
X171268414Y-98748444D01*
X171268413Y-98748443D01*
X171268412Y-98748443D01*
X171066243Y-98682754D01*
X171066241Y-98682753D01*
X171066240Y-98682753D01*
X170866357Y-98651095D01*
X170856287Y-98649500D01*
X170643713Y-98649500D01*
X170633643Y-98651095D01*
X170433760Y-98682753D01*
X170231585Y-98748444D01*
X170042179Y-98844951D01*
X169870213Y-98969890D01*
X169719890Y-99120213D01*
X169594951Y-99292179D01*
X169498444Y-99481585D01*
X169432753Y-99683760D01*
X169422262Y-99750000D01*
X169399500Y-99893713D01*
X154382156Y-99893713D01*
X154353432Y-99786513D01*
X154353429Y-99786507D01*
X154253600Y-99572422D01*
X154253599Y-99572420D01*
X154118113Y-99378926D01*
X154118108Y-99378920D01*
X153951082Y-99211894D01*
X153757578Y-99076399D01*
X153543492Y-98976570D01*
X153543486Y-98976567D01*
X153330000Y-98919364D01*
X153330000Y-99816988D01*
X153272993Y-99784075D01*
X153145826Y-99750000D01*
X153014174Y-99750000D01*
X152887007Y-99784075D01*
X152830000Y-99816988D01*
X152830000Y-98919364D01*
X152829999Y-98919364D01*
X152616513Y-98976567D01*
X152616507Y-98976570D01*
X152402422Y-99076399D01*
X152402420Y-99076400D01*
X152208926Y-99211886D01*
X152208920Y-99211891D01*
X152041891Y-99378920D01*
X152041890Y-99378922D01*
X151911880Y-99564595D01*
X151857303Y-99608219D01*
X151787804Y-99615412D01*
X151725450Y-99583890D01*
X151708730Y-99564594D01*
X151578494Y-99378597D01*
X151411402Y-99211506D01*
X151411395Y-99211501D01*
X151217834Y-99075967D01*
X151217830Y-99075965D01*
X151217828Y-99075964D01*
X151003663Y-98976097D01*
X151003659Y-98976096D01*
X151003655Y-98976094D01*
X150775413Y-98914938D01*
X150775403Y-98914936D01*
X150540001Y-98894341D01*
X150539999Y-98894341D01*
X150304596Y-98914936D01*
X150304586Y-98914938D01*
X150076344Y-98976094D01*
X150076335Y-98976098D01*
X149862171Y-99075964D01*
X149862169Y-99075965D01*
X149668597Y-99211505D01*
X149501505Y-99378597D01*
X149371575Y-99564158D01*
X149316998Y-99607783D01*
X149247500Y-99614977D01*
X149185145Y-99583454D01*
X149168425Y-99564158D01*
X149038494Y-99378597D01*
X148871402Y-99211506D01*
X148871395Y-99211501D01*
X148677834Y-99075967D01*
X148677830Y-99075965D01*
X148605968Y-99042455D01*
X148486790Y-98986881D01*
X148434352Y-98940710D01*
X148415200Y-98873516D01*
X148435416Y-98806635D01*
X148488581Y-98761300D01*
X148539196Y-98750500D01*
X148818259Y-98750500D01*
X148868693Y-98761219D01*
X148985733Y-98813329D01*
X149160609Y-98850500D01*
X149160610Y-98850500D01*
X149339389Y-98850500D01*
X149339391Y-98850500D01*
X149514267Y-98813329D01*
X149677593Y-98740612D01*
X149822230Y-98635526D01*
X149841186Y-98614474D01*
X149856172Y-98597830D01*
X149941859Y-98502665D01*
X150031250Y-98347835D01*
X150086497Y-98177803D01*
X150105185Y-98000000D01*
X150086497Y-97822197D01*
X150031250Y-97652165D01*
X149941859Y-97497335D01*
X149853768Y-97399500D01*
X149822235Y-97364478D01*
X149822232Y-97364476D01*
X149822231Y-97364475D01*
X149822230Y-97364474D01*
X149677593Y-97259388D01*
X149514267Y-97186671D01*
X149514265Y-97186670D01*
X149386594Y-97159533D01*
X149339391Y-97149500D01*
X149160609Y-97149500D01*
X149129954Y-97156015D01*
X148985733Y-97186670D01*
X148868694Y-97238780D01*
X148818259Y-97249500D01*
X146681741Y-97249500D01*
X146631306Y-97238780D01*
X146514267Y-97186671D01*
X146514265Y-97186670D01*
X146386594Y-97159533D01*
X146339391Y-97149500D01*
X146160609Y-97149500D01*
X146129954Y-97156015D01*
X145985733Y-97186670D01*
X145985728Y-97186672D01*
X145822408Y-97259387D01*
X145677768Y-97364475D01*
X145558140Y-97497336D01*
X145468750Y-97652164D01*
X145468747Y-97652170D01*
X145413504Y-97822192D01*
X145413503Y-97822194D01*
X145394815Y-98000000D01*
X145413503Y-98177805D01*
X145413504Y-98177807D01*
X145468747Y-98347829D01*
X145468750Y-98347835D01*
X145558141Y-98502665D01*
X145599812Y-98548946D01*
X145677764Y-98635521D01*
X145677767Y-98635523D01*
X145677770Y-98635526D01*
X145732352Y-98675183D01*
X145775017Y-98730512D01*
X145780996Y-98800126D01*
X145748390Y-98861921D01*
X145687551Y-98896278D01*
X145659466Y-98899500D01*
X144562129Y-98899500D01*
X144562123Y-98899501D01*
X144502516Y-98905908D01*
X144367671Y-98956202D01*
X144367664Y-98956206D01*
X144252455Y-99042452D01*
X144252452Y-99042455D01*
X144166206Y-99157664D01*
X144166202Y-99157671D01*
X144115908Y-99292517D01*
X144109501Y-99352116D01*
X144109500Y-99352135D01*
X139594450Y-99352135D01*
X139605185Y-99250000D01*
X139586497Y-99072197D01*
X139548809Y-98956206D01*
X139531252Y-98902170D01*
X139531249Y-98902164D01*
X139527851Y-98896278D01*
X139441859Y-98747335D01*
X139376892Y-98675182D01*
X139322235Y-98614478D01*
X139322232Y-98614476D01*
X139322231Y-98614475D01*
X139322230Y-98614474D01*
X139177593Y-98509388D01*
X139014267Y-98436671D01*
X139014265Y-98436670D01*
X139008330Y-98434028D01*
X139009106Y-98432284D01*
X138969175Y-98407808D01*
X138036819Y-97475451D01*
X138003334Y-97414128D01*
X138000500Y-97387770D01*
X138000500Y-97224500D01*
X138020185Y-97157461D01*
X138072989Y-97111706D01*
X138124500Y-97100500D01*
X138139389Y-97100500D01*
X138139391Y-97100500D01*
X138314267Y-97063329D01*
X138477593Y-96990612D01*
X138569025Y-96924182D01*
X138634831Y-96900702D01*
X138641911Y-96900500D01*
X153564071Y-96900500D01*
X153648615Y-96883682D01*
X153689744Y-96875501D01*
X153808127Y-96826465D01*
X153914669Y-96755277D01*
X158255277Y-92414669D01*
X158326466Y-92308126D01*
X158375501Y-92189743D01*
X158382051Y-92156818D01*
X158400500Y-92064069D01*
X158400500Y-89073476D01*
X158420185Y-89006437D01*
X158451615Y-88973158D01*
X158572230Y-88885526D01*
X158691859Y-88752665D01*
X158781250Y-88597835D01*
X158836497Y-88427803D01*
X158855185Y-88250000D01*
X158836497Y-88072197D01*
X158789581Y-87927805D01*
X158781252Y-87902170D01*
X158781249Y-87902164D01*
X158691859Y-87747335D01*
X158645003Y-87695296D01*
X158572235Y-87614478D01*
X158572232Y-87614476D01*
X158572231Y-87614475D01*
X158572230Y-87614474D01*
X158427593Y-87509388D01*
X158264267Y-87436671D01*
X158264265Y-87436670D01*
X158101952Y-87402170D01*
X158089391Y-87399500D01*
X157910609Y-87399500D01*
X157898048Y-87402170D01*
X157735733Y-87436670D01*
X157735728Y-87436672D01*
X157572408Y-87509387D01*
X157427768Y-87614475D01*
X157308140Y-87747336D01*
X157218750Y-87902164D01*
X157218747Y-87902170D01*
X157163504Y-88072192D01*
X157163503Y-88072194D01*
X157144815Y-88250000D01*
X157163420Y-88427024D01*
X157154661Y-88487435D01*
X157124499Y-88560255D01*
X157124497Y-88560262D01*
X157099500Y-88685928D01*
X157099500Y-91679192D01*
X157079815Y-91746231D01*
X157063181Y-91766873D01*
X153266873Y-95563181D01*
X153205550Y-95596666D01*
X153179192Y-95599500D01*
X138641911Y-95599500D01*
X138574872Y-95579815D01*
X138569025Y-95575818D01*
X138477594Y-95509389D01*
X138477593Y-95509388D01*
X138314267Y-95436671D01*
X138314265Y-95436670D01*
X138186594Y-95409533D01*
X138139391Y-95399500D01*
X138139390Y-95399500D01*
X138124500Y-95399500D01*
X138057461Y-95379815D01*
X138011706Y-95327011D01*
X138000500Y-95275500D01*
X138000500Y-94500821D01*
X138020185Y-94433782D01*
X138051613Y-94400504D01*
X138072230Y-94385526D01*
X138191859Y-94252665D01*
X138281250Y-94097835D01*
X138336497Y-93927803D01*
X138355185Y-93750000D01*
X138336497Y-93572197D01*
X138281250Y-93402165D01*
X138191859Y-93247335D01*
X138145003Y-93195296D01*
X138072235Y-93114478D01*
X138072232Y-93114476D01*
X138072231Y-93114475D01*
X138072230Y-93114474D01*
X137927593Y-93009388D01*
X137764267Y-92936671D01*
X137764265Y-92936670D01*
X137636594Y-92909533D01*
X137589391Y-92899500D01*
X137410609Y-92899500D01*
X137379954Y-92906015D01*
X137235733Y-92936670D01*
X137235728Y-92936672D01*
X137072408Y-93009387D01*
X136927768Y-93114475D01*
X136808140Y-93247336D01*
X136718750Y-93402164D01*
X136718748Y-93402168D01*
X136695356Y-93474162D01*
X136669767Y-93515927D01*
X136670916Y-93516870D01*
X136667050Y-93521580D01*
X136635014Y-93569527D01*
X136619209Y-93593182D01*
X136602062Y-93618843D01*
X136584916Y-93644504D01*
X136584912Y-93644511D01*
X136528343Y-93781082D01*
X136528340Y-93781092D01*
X136499500Y-93926079D01*
X136499500Y-93926082D01*
X136499500Y-97823918D01*
X136499500Y-97823920D01*
X136499499Y-97823920D01*
X131986075Y-97823920D01*
X131941859Y-97747335D01*
X131856172Y-97652170D01*
X131822235Y-97614478D01*
X131822232Y-97614476D01*
X131822231Y-97614475D01*
X131822230Y-97614474D01*
X131677593Y-97509388D01*
X131514267Y-97436671D01*
X131514265Y-97436670D01*
X131386594Y-97409533D01*
X131339391Y-97399500D01*
X131160609Y-97399500D01*
X131129954Y-97406015D01*
X130985733Y-97436670D01*
X130985728Y-97436672D01*
X130822408Y-97509387D01*
X130677768Y-97614475D01*
X130558140Y-97747336D01*
X130468750Y-97902164D01*
X130468747Y-97902170D01*
X130413504Y-98072192D01*
X130413503Y-98072194D01*
X130394815Y-98250000D01*
X112500000Y-98250000D01*
X112500000Y-93499994D01*
X123994357Y-93499994D01*
X123994357Y-93500005D01*
X124014890Y-93747812D01*
X124014892Y-93747824D01*
X124075936Y-93988881D01*
X124175826Y-94216606D01*
X124311833Y-94424782D01*
X124311836Y-94424785D01*
X124480256Y-94607738D01*
X124676491Y-94760474D01*
X124895190Y-94878828D01*
X125130386Y-94959571D01*
X125375665Y-95000500D01*
X125624335Y-95000500D01*
X125869614Y-94959571D01*
X126104810Y-94878828D01*
X126323509Y-94760474D01*
X126519744Y-94607738D01*
X126688164Y-94424785D01*
X126824173Y-94216607D01*
X126924063Y-93988881D01*
X126985108Y-93747821D01*
X126985109Y-93747812D01*
X127005643Y-93500005D01*
X127005643Y-93499994D01*
X130494357Y-93499994D01*
X130494357Y-93500005D01*
X130514890Y-93747812D01*
X130514892Y-93747824D01*
X130575936Y-93988881D01*
X130675826Y-94216606D01*
X130811833Y-94424782D01*
X130811836Y-94424785D01*
X130980256Y-94607738D01*
X131176491Y-94760474D01*
X131395190Y-94878828D01*
X131630386Y-94959571D01*
X131875665Y-95000500D01*
X132124335Y-95000500D01*
X132369614Y-94959571D01*
X132604810Y-94878828D01*
X132823509Y-94760474D01*
X133019744Y-94607738D01*
X133188164Y-94424785D01*
X133324173Y-94216607D01*
X133424063Y-93988881D01*
X133485108Y-93747821D01*
X133485109Y-93747812D01*
X133505643Y-93500005D01*
X133505643Y-93499994D01*
X133485109Y-93252187D01*
X133485107Y-93252175D01*
X133424063Y-93011118D01*
X133324173Y-92783393D01*
X133188166Y-92575217D01*
X133121375Y-92502663D01*
X133019744Y-92392262D01*
X132823509Y-92239526D01*
X132823507Y-92239525D01*
X132823506Y-92239524D01*
X132604811Y-92121172D01*
X132604802Y-92121169D01*
X132369616Y-92040429D01*
X132124335Y-91999500D01*
X131875665Y-91999500D01*
X131630383Y-92040429D01*
X131395197Y-92121169D01*
X131395188Y-92121172D01*
X131176493Y-92239524D01*
X130980257Y-92392261D01*
X130811833Y-92575217D01*
X130675826Y-92783393D01*
X130575936Y-93011118D01*
X130514892Y-93252175D01*
X130514890Y-93252187D01*
X130494357Y-93499994D01*
X127005643Y-93499994D01*
X126985109Y-93252187D01*
X126985107Y-93252175D01*
X126924063Y-93011118D01*
X126824173Y-92783393D01*
X126688166Y-92575217D01*
X126621375Y-92502663D01*
X126519744Y-92392262D01*
X126323509Y-92239526D01*
X126323507Y-92239525D01*
X126323506Y-92239524D01*
X126104811Y-92121172D01*
X126104802Y-92121169D01*
X125869616Y-92040429D01*
X125624335Y-91999500D01*
X125375665Y-91999500D01*
X125130383Y-92040429D01*
X124895197Y-92121169D01*
X124895188Y-92121172D01*
X124676493Y-92239524D01*
X124480257Y-92392261D01*
X124311833Y-92575217D01*
X124175826Y-92783393D01*
X124075936Y-93011118D01*
X124014892Y-93252175D01*
X124014890Y-93252187D01*
X123994357Y-93499994D01*
X112500000Y-93499994D01*
X112500000Y-91500000D01*
X142394815Y-91500000D01*
X142413503Y-91677805D01*
X142413504Y-91677807D01*
X142468747Y-91847829D01*
X142468750Y-91847835D01*
X142558141Y-92002665D01*
X142592144Y-92040429D01*
X142677764Y-92135521D01*
X142677767Y-92135523D01*
X142677770Y-92135526D01*
X142822407Y-92240612D01*
X142985733Y-92313329D01*
X143160609Y-92350500D01*
X143160610Y-92350500D01*
X143339389Y-92350500D01*
X143339391Y-92350500D01*
X143514267Y-92313329D01*
X143677593Y-92240612D01*
X143769025Y-92174182D01*
X143834831Y-92150702D01*
X143841911Y-92150500D01*
X144658089Y-92150500D01*
X144725128Y-92170185D01*
X144730976Y-92174182D01*
X144822407Y-92240612D01*
X144985733Y-92313329D01*
X145160609Y-92350500D01*
X145160610Y-92350500D01*
X145339389Y-92350500D01*
X145339391Y-92350500D01*
X145514267Y-92313329D01*
X145677593Y-92240612D01*
X145822230Y-92135526D01*
X145835155Y-92121172D01*
X145848148Y-92106741D01*
X145941859Y-92002665D01*
X146031250Y-91847835D01*
X146086497Y-91677803D01*
X146105185Y-91500000D01*
X146086497Y-91322197D01*
X146031250Y-91152165D01*
X145941859Y-90997335D01*
X145895003Y-90945296D01*
X145822235Y-90864478D01*
X145822232Y-90864476D01*
X145822231Y-90864475D01*
X145822230Y-90864474D01*
X145677593Y-90759388D01*
X145514267Y-90686671D01*
X145514265Y-90686670D01*
X145386594Y-90659533D01*
X145339391Y-90649500D01*
X145160609Y-90649500D01*
X145129954Y-90656015D01*
X144985733Y-90686670D01*
X144985728Y-90686672D01*
X144822408Y-90759388D01*
X144822403Y-90759390D01*
X144730974Y-90825818D01*
X144665168Y-90849298D01*
X144658089Y-90849500D01*
X143841911Y-90849500D01*
X143774872Y-90829815D01*
X143769025Y-90825818D01*
X143727084Y-90795346D01*
X143677593Y-90759388D01*
X143514267Y-90686671D01*
X143514265Y-90686670D01*
X143386594Y-90659533D01*
X143339391Y-90649500D01*
X143160609Y-90649500D01*
X143129954Y-90656015D01*
X142985733Y-90686670D01*
X142985728Y-90686672D01*
X142822408Y-90759387D01*
X142677768Y-90864475D01*
X142558140Y-90997336D01*
X142468750Y-91152164D01*
X142468747Y-91152170D01*
X142413504Y-91322192D01*
X142413503Y-91322194D01*
X142394815Y-91500000D01*
X112500000Y-91500000D01*
X112500000Y-88999994D01*
X123994357Y-88999994D01*
X123994357Y-89000005D01*
X124014890Y-89247812D01*
X124014892Y-89247824D01*
X124075936Y-89488881D01*
X124175826Y-89716606D01*
X124311833Y-89924782D01*
X124311836Y-89924785D01*
X124480256Y-90107738D01*
X124676491Y-90260474D01*
X124895190Y-90378828D01*
X125130386Y-90459571D01*
X125375665Y-90500500D01*
X125624335Y-90500500D01*
X125869614Y-90459571D01*
X126104810Y-90378828D01*
X126323509Y-90260474D01*
X126519744Y-90107738D01*
X126688164Y-89924785D01*
X126824173Y-89716607D01*
X126924063Y-89488881D01*
X126985108Y-89247821D01*
X126985109Y-89247812D01*
X127005643Y-89000005D01*
X127005643Y-88999994D01*
X130494357Y-88999994D01*
X130494357Y-89000005D01*
X130514890Y-89247812D01*
X130514892Y-89247824D01*
X130575936Y-89488881D01*
X130675826Y-89716606D01*
X130811833Y-89924782D01*
X130811836Y-89924785D01*
X130980256Y-90107738D01*
X131176491Y-90260474D01*
X131395190Y-90378828D01*
X131630386Y-90459571D01*
X131875665Y-90500500D01*
X132124335Y-90500500D01*
X132369614Y-90459571D01*
X132604810Y-90378828D01*
X132823509Y-90260474D01*
X133019744Y-90107738D01*
X133188164Y-89924785D01*
X133324173Y-89716607D01*
X133424063Y-89488881D01*
X133485108Y-89247821D01*
X133485109Y-89247812D01*
X133505643Y-89000005D01*
X133505643Y-88999994D01*
X133485109Y-88752187D01*
X133485107Y-88752175D01*
X133424063Y-88511118D01*
X133324173Y-88283393D01*
X133188166Y-88075217D01*
X133052465Y-87927807D01*
X133019744Y-87892262D01*
X132823509Y-87739526D01*
X132823507Y-87739525D01*
X132823506Y-87739524D01*
X132604811Y-87621172D01*
X132604802Y-87621169D01*
X132369616Y-87540429D01*
X132124335Y-87499500D01*
X131875665Y-87499500D01*
X131630383Y-87540429D01*
X131395197Y-87621169D01*
X131395188Y-87621172D01*
X131176493Y-87739524D01*
X130980257Y-87892261D01*
X130811833Y-88075217D01*
X130675826Y-88283393D01*
X130575936Y-88511118D01*
X130514892Y-88752175D01*
X130514890Y-88752187D01*
X130494357Y-88999994D01*
X127005643Y-88999994D01*
X126985109Y-88752187D01*
X126985107Y-88752175D01*
X126924063Y-88511118D01*
X126824173Y-88283393D01*
X126688166Y-88075217D01*
X126552465Y-87927807D01*
X126519744Y-87892262D01*
X126323509Y-87739526D01*
X126323507Y-87739525D01*
X126323506Y-87739524D01*
X126104811Y-87621172D01*
X126104802Y-87621169D01*
X125869616Y-87540429D01*
X125624335Y-87499500D01*
X125375665Y-87499500D01*
X125130383Y-87540429D01*
X124895197Y-87621169D01*
X124895188Y-87621172D01*
X124676493Y-87739524D01*
X124480257Y-87892261D01*
X124311833Y-88075217D01*
X124175826Y-88283393D01*
X124075936Y-88511118D01*
X124014892Y-88752175D01*
X124014890Y-88752187D01*
X123994357Y-88999994D01*
X112500000Y-88999994D01*
X112500000Y-84999994D01*
X123994357Y-84999994D01*
X123994357Y-85000005D01*
X124014890Y-85247812D01*
X124014892Y-85247824D01*
X124075936Y-85488881D01*
X124175826Y-85716606D01*
X124311833Y-85924782D01*
X124311836Y-85924785D01*
X124480256Y-86107738D01*
X124676491Y-86260474D01*
X124895190Y-86378828D01*
X125130386Y-86459571D01*
X125375665Y-86500500D01*
X125624335Y-86500500D01*
X125869614Y-86459571D01*
X126104810Y-86378828D01*
X126323509Y-86260474D01*
X126519744Y-86107738D01*
X126688164Y-85924785D01*
X126824173Y-85716607D01*
X126924063Y-85488881D01*
X126985108Y-85247821D01*
X126993123Y-85151095D01*
X127005643Y-85000005D01*
X127005643Y-84999994D01*
X130494357Y-84999994D01*
X130494357Y-85000005D01*
X130514890Y-85247812D01*
X130514892Y-85247824D01*
X130575936Y-85488881D01*
X130675826Y-85716606D01*
X130811833Y-85924782D01*
X130811836Y-85924785D01*
X130980256Y-86107738D01*
X131176491Y-86260474D01*
X131395190Y-86378828D01*
X131630386Y-86459571D01*
X131875665Y-86500500D01*
X132124335Y-86500500D01*
X132369614Y-86459571D01*
X132604810Y-86378828D01*
X132823509Y-86260474D01*
X133019744Y-86107738D01*
X133188164Y-85924785D01*
X133324173Y-85716607D01*
X133424063Y-85488881D01*
X133485108Y-85247821D01*
X133493123Y-85151095D01*
X133505643Y-85000005D01*
X133505643Y-84999994D01*
X133485109Y-84752187D01*
X133485107Y-84752175D01*
X133424063Y-84511118D01*
X133324173Y-84283393D01*
X133188166Y-84075217D01*
X133089727Y-83968284D01*
X133019744Y-83892262D01*
X132823509Y-83739526D01*
X132823507Y-83739525D01*
X132823506Y-83739524D01*
X132604811Y-83621172D01*
X132604802Y-83621169D01*
X132369616Y-83540429D01*
X132124335Y-83499500D01*
X131875665Y-83499500D01*
X131630383Y-83540429D01*
X131395197Y-83621169D01*
X131395188Y-83621172D01*
X131176493Y-83739524D01*
X130980257Y-83892261D01*
X130811833Y-84075217D01*
X130675826Y-84283393D01*
X130575936Y-84511118D01*
X130514892Y-84752175D01*
X130514890Y-84752187D01*
X130494357Y-84999994D01*
X127005643Y-84999994D01*
X126985109Y-84752187D01*
X126985107Y-84752175D01*
X126924063Y-84511118D01*
X126824173Y-84283393D01*
X126688166Y-84075217D01*
X126589727Y-83968284D01*
X126519744Y-83892262D01*
X126323509Y-83739526D01*
X126323507Y-83739525D01*
X126323506Y-83739524D01*
X126104811Y-83621172D01*
X126104802Y-83621169D01*
X125869616Y-83540429D01*
X125624335Y-83499500D01*
X125375665Y-83499500D01*
X125130383Y-83540429D01*
X124895197Y-83621169D01*
X124895188Y-83621172D01*
X124676493Y-83739524D01*
X124480257Y-83892261D01*
X124311833Y-84075217D01*
X124175826Y-84283393D01*
X124075936Y-84511118D01*
X124014892Y-84752175D01*
X124014890Y-84752187D01*
X123994357Y-84999994D01*
X112500000Y-84999994D01*
X112500000Y-80499994D01*
X123994357Y-80499994D01*
X123994357Y-80500005D01*
X124014890Y-80747812D01*
X124014892Y-80747824D01*
X124075936Y-80988881D01*
X124175826Y-81216606D01*
X124311833Y-81424782D01*
X124311836Y-81424785D01*
X124480256Y-81607738D01*
X124676491Y-81760474D01*
X124895190Y-81878828D01*
X125130386Y-81959571D01*
X125375665Y-82000500D01*
X125624335Y-82000500D01*
X125869614Y-81959571D01*
X126104810Y-81878828D01*
X126323509Y-81760474D01*
X126519744Y-81607738D01*
X126688164Y-81424785D01*
X126824173Y-81216607D01*
X126924063Y-80988881D01*
X126985108Y-80747821D01*
X126985109Y-80747812D01*
X127005643Y-80500005D01*
X127005643Y-80499994D01*
X130494357Y-80499994D01*
X130494357Y-80500005D01*
X130514890Y-80747812D01*
X130514892Y-80747824D01*
X130575936Y-80988881D01*
X130675826Y-81216606D01*
X130811833Y-81424782D01*
X130811836Y-81424785D01*
X130980256Y-81607738D01*
X131176491Y-81760474D01*
X131395190Y-81878828D01*
X131630386Y-81959571D01*
X131875665Y-82000500D01*
X132124335Y-82000500D01*
X132369614Y-81959571D01*
X132604810Y-81878828D01*
X132823509Y-81760474D01*
X133019744Y-81607738D01*
X133188164Y-81424785D01*
X133324173Y-81216607D01*
X133424063Y-80988881D01*
X133485108Y-80747821D01*
X133485109Y-80747812D01*
X133505643Y-80500005D01*
X133505643Y-80499994D01*
X133485109Y-80252187D01*
X133485107Y-80252175D01*
X133424063Y-80011118D01*
X133324173Y-79783393D01*
X133188166Y-79575217D01*
X133159842Y-79544449D01*
X133019744Y-79392262D01*
X132823509Y-79239526D01*
X132823507Y-79239525D01*
X132823506Y-79239524D01*
X132604811Y-79121172D01*
X132604802Y-79121169D01*
X132369616Y-79040429D01*
X132124335Y-78999500D01*
X131875665Y-78999500D01*
X131630383Y-79040429D01*
X131395197Y-79121169D01*
X131395188Y-79121172D01*
X131176493Y-79239524D01*
X130980257Y-79392261D01*
X130811833Y-79575217D01*
X130675826Y-79783393D01*
X130575936Y-80011118D01*
X130514892Y-80252175D01*
X130514890Y-80252187D01*
X130494357Y-80499994D01*
X127005643Y-80499994D01*
X126985109Y-80252187D01*
X126985107Y-80252175D01*
X126924063Y-80011118D01*
X126824173Y-79783393D01*
X126688166Y-79575217D01*
X126659842Y-79544449D01*
X126519744Y-79392262D01*
X126323509Y-79239526D01*
X126323507Y-79239525D01*
X126323506Y-79239524D01*
X126104811Y-79121172D01*
X126104802Y-79121169D01*
X125869616Y-79040429D01*
X125624335Y-78999500D01*
X125375665Y-78999500D01*
X125130383Y-79040429D01*
X124895197Y-79121169D01*
X124895188Y-79121172D01*
X124676493Y-79239524D01*
X124480257Y-79392261D01*
X124311833Y-79575217D01*
X124175826Y-79783393D01*
X124075936Y-80011118D01*
X124014892Y-80252175D01*
X124014890Y-80252187D01*
X123994357Y-80499994D01*
X112500000Y-80499994D01*
X112500000Y-76500000D01*
X115394815Y-76500000D01*
X115413503Y-76677805D01*
X115413504Y-76677807D01*
X115468747Y-76847829D01*
X115468750Y-76847835D01*
X115558141Y-77002665D01*
X115586423Y-77034075D01*
X115677764Y-77135521D01*
X115677767Y-77135523D01*
X115677770Y-77135526D01*
X115822407Y-77240612D01*
X115985733Y-77313329D01*
X116160609Y-77350500D01*
X116160610Y-77350500D01*
X116339389Y-77350500D01*
X116339391Y-77350500D01*
X116514267Y-77313329D01*
X116677593Y-77240612D01*
X116769025Y-77174182D01*
X116834831Y-77150702D01*
X116841911Y-77150500D01*
X117408089Y-77150500D01*
X117475128Y-77170185D01*
X117480976Y-77174182D01*
X117572407Y-77240612D01*
X117735733Y-77313329D01*
X117910609Y-77350500D01*
X117910610Y-77350500D01*
X118089389Y-77350500D01*
X118089391Y-77350500D01*
X118264267Y-77313329D01*
X118427593Y-77240612D01*
X118572230Y-77135526D01*
X118691859Y-77002665D01*
X118781250Y-76847835D01*
X118836497Y-76677803D01*
X118855185Y-76500000D01*
X118836497Y-76322197D01*
X118789581Y-76177805D01*
X118781252Y-76152170D01*
X118781249Y-76152164D01*
X118691859Y-75997335D01*
X118645003Y-75945296D01*
X118572235Y-75864478D01*
X118572232Y-75864476D01*
X118572231Y-75864475D01*
X118572230Y-75864474D01*
X118427593Y-75759388D01*
X118264267Y-75686671D01*
X118264265Y-75686670D01*
X118136594Y-75659533D01*
X118089391Y-75649500D01*
X117910609Y-75649500D01*
X117898048Y-75652170D01*
X117735733Y-75686670D01*
X117735728Y-75686672D01*
X117572408Y-75759388D01*
X117572403Y-75759390D01*
X117480974Y-75825818D01*
X117415168Y-75849298D01*
X117408089Y-75849500D01*
X116841911Y-75849500D01*
X116774872Y-75829815D01*
X116769025Y-75825818D01*
X116753803Y-75814758D01*
X116677593Y-75759388D01*
X116514267Y-75686671D01*
X116514265Y-75686670D01*
X116386594Y-75659533D01*
X116339391Y-75649500D01*
X116160609Y-75649500D01*
X116148048Y-75652170D01*
X115985733Y-75686670D01*
X115985728Y-75686672D01*
X115822408Y-75759387D01*
X115677768Y-75864475D01*
X115558140Y-75997336D01*
X115468750Y-76152164D01*
X115468747Y-76152170D01*
X115413504Y-76322192D01*
X115413503Y-76322194D01*
X115394815Y-76500000D01*
X112500000Y-76500000D01*
X112500000Y-72000882D01*
X112500012Y-71999144D01*
X112501490Y-71893713D01*
X114149500Y-71893713D01*
X114149500Y-72106286D01*
X114171915Y-72247812D01*
X114182754Y-72316243D01*
X114237719Y-72485408D01*
X114248444Y-72518414D01*
X114344951Y-72707820D01*
X114469890Y-72879786D01*
X114620213Y-73030109D01*
X114792179Y-73155048D01*
X114792181Y-73155049D01*
X114792184Y-73155051D01*
X114981588Y-73251557D01*
X115183757Y-73317246D01*
X115393713Y-73350500D01*
X115393714Y-73350500D01*
X115606286Y-73350500D01*
X115606287Y-73350500D01*
X115816243Y-73317246D01*
X116018412Y-73251557D01*
X116207816Y-73155051D01*
X116254133Y-73121400D01*
X116379786Y-73030109D01*
X116379788Y-73030106D01*
X116379792Y-73030104D01*
X116530104Y-72879792D01*
X116530106Y-72879788D01*
X116530109Y-72879786D01*
X116648665Y-72716606D01*
X116655051Y-72707816D01*
X116751557Y-72518412D01*
X116783533Y-72419999D01*
X119394341Y-72419999D01*
X119394341Y-72420000D01*
X119414936Y-72655403D01*
X119414938Y-72655413D01*
X119476094Y-72883655D01*
X119476096Y-72883659D01*
X119476097Y-72883663D01*
X119500225Y-72935405D01*
X119575965Y-73097830D01*
X119575967Y-73097834D01*
X119711501Y-73291395D01*
X119711506Y-73291402D01*
X119878597Y-73458493D01*
X119878603Y-73458498D01*
X120064158Y-73588425D01*
X120107783Y-73643002D01*
X120114977Y-73712500D01*
X120083454Y-73774855D01*
X120064158Y-73791575D01*
X119878597Y-73921505D01*
X119711505Y-74088597D01*
X119575965Y-74282169D01*
X119575964Y-74282171D01*
X119476098Y-74496335D01*
X119476094Y-74496344D01*
X119414938Y-74724586D01*
X119414936Y-74724596D01*
X119394341Y-74959999D01*
X119394341Y-74960000D01*
X119414936Y-75195403D01*
X119414938Y-75195413D01*
X119476094Y-75423655D01*
X119476096Y-75423659D01*
X119476097Y-75423663D01*
X119572716Y-75630862D01*
X119575965Y-75637830D01*
X119575967Y-75637834D01*
X119661082Y-75759390D01*
X119711501Y-75831396D01*
X119711506Y-75831402D01*
X119833818Y-75953714D01*
X119867303Y-76015037D01*
X119862319Y-76084729D01*
X119820447Y-76140662D01*
X119789471Y-76157577D01*
X119657912Y-76206646D01*
X119657906Y-76206649D01*
X119542812Y-76292809D01*
X119542809Y-76292812D01*
X119456649Y-76407906D01*
X119456645Y-76407913D01*
X119406403Y-76542620D01*
X119406401Y-76542627D01*
X119400000Y-76602155D01*
X119400000Y-77250000D01*
X120316988Y-77250000D01*
X120284075Y-77307007D01*
X120250000Y-77434174D01*
X120250000Y-77565826D01*
X120284075Y-77692993D01*
X120316988Y-77750000D01*
X119400000Y-77750000D01*
X119400000Y-78397844D01*
X119406401Y-78457372D01*
X119406403Y-78457379D01*
X119456645Y-78592086D01*
X119456649Y-78592093D01*
X119542809Y-78707187D01*
X119542812Y-78707190D01*
X119657906Y-78793350D01*
X119657913Y-78793354D01*
X119792620Y-78843596D01*
X119792627Y-78843598D01*
X119852155Y-78849999D01*
X119852172Y-78850000D01*
X120500000Y-78850000D01*
X120500000Y-77933012D01*
X120557007Y-77965925D01*
X120684174Y-78000000D01*
X120815826Y-78000000D01*
X120942993Y-77965925D01*
X121000000Y-77933012D01*
X121000000Y-78850000D01*
X121647828Y-78850000D01*
X121647844Y-78849999D01*
X121707372Y-78843598D01*
X121707379Y-78843596D01*
X121842086Y-78793354D01*
X121842093Y-78793350D01*
X121957187Y-78707190D01*
X121957190Y-78707187D01*
X122043350Y-78592093D01*
X122043354Y-78592086D01*
X122093596Y-78457379D01*
X122093598Y-78457372D01*
X122099999Y-78397844D01*
X122100000Y-78397827D01*
X122100000Y-77750000D01*
X121183012Y-77750000D01*
X121215925Y-77692993D01*
X121250000Y-77565826D01*
X121250000Y-77434174D01*
X121215925Y-77307007D01*
X121183012Y-77250000D01*
X122100000Y-77250000D01*
X122100000Y-76602172D01*
X122099999Y-76602155D01*
X122093598Y-76542627D01*
X122093596Y-76542620D01*
X122077698Y-76499994D01*
X123994357Y-76499994D01*
X123994357Y-76500005D01*
X124014890Y-76747812D01*
X124014892Y-76747824D01*
X124075936Y-76988881D01*
X124175826Y-77216606D01*
X124311833Y-77424782D01*
X124311836Y-77424785D01*
X124480256Y-77607738D01*
X124676491Y-77760474D01*
X124676493Y-77760475D01*
X124814803Y-77835325D01*
X124895190Y-77878828D01*
X125130386Y-77959571D01*
X125375665Y-78000500D01*
X125624335Y-78000500D01*
X125869614Y-77959571D01*
X126104810Y-77878828D01*
X126323509Y-77760474D01*
X126519744Y-77607738D01*
X126688164Y-77424785D01*
X126824173Y-77216607D01*
X126924063Y-76988881D01*
X126985108Y-76747821D01*
X126985109Y-76747812D01*
X127005643Y-76500005D01*
X127005643Y-76499994D01*
X130494357Y-76499994D01*
X130494357Y-76500005D01*
X130514890Y-76747812D01*
X130514892Y-76747824D01*
X130575936Y-76988881D01*
X130675826Y-77216606D01*
X130811833Y-77424782D01*
X130811836Y-77424785D01*
X130980256Y-77607738D01*
X131176491Y-77760474D01*
X131176493Y-77760475D01*
X131314803Y-77835325D01*
X131395190Y-77878828D01*
X131630386Y-77959571D01*
X131875665Y-78000500D01*
X132124335Y-78000500D01*
X132369614Y-77959571D01*
X132604810Y-77878828D01*
X132823509Y-77760474D01*
X133019744Y-77607738D01*
X133188164Y-77424785D01*
X133324173Y-77216607D01*
X133424063Y-76988881D01*
X133485108Y-76747821D01*
X133485109Y-76747812D01*
X133505643Y-76500005D01*
X133505643Y-76499994D01*
X133485109Y-76252187D01*
X133485107Y-76252175D01*
X133424063Y-76011118D01*
X133324173Y-75783393D01*
X133188166Y-75575217D01*
X133100342Y-75479815D01*
X133019744Y-75392262D01*
X132836966Y-75250000D01*
X136394815Y-75250000D01*
X136413503Y-75427805D01*
X136413504Y-75427807D01*
X136468747Y-75597829D01*
X136468750Y-75597835D01*
X136558141Y-75752665D01*
X136585809Y-75783393D01*
X136677764Y-75885521D01*
X136677767Y-75885523D01*
X136677770Y-75885526D01*
X136822407Y-75990612D01*
X136985733Y-76063329D01*
X136985735Y-76063329D01*
X136985736Y-76063330D01*
X137042275Y-76075347D01*
X137150010Y-76098247D01*
X137211490Y-76131438D01*
X137211909Y-76131855D01*
X138379600Y-77299546D01*
X138413085Y-77360869D01*
X138408101Y-77430561D01*
X138366229Y-77486494D01*
X138342359Y-77500505D01*
X138322406Y-77509389D01*
X138177768Y-77614475D01*
X138058140Y-77747336D01*
X137968750Y-77902164D01*
X137968747Y-77902170D01*
X137913504Y-78072192D01*
X137913503Y-78072194D01*
X137894815Y-78250000D01*
X137913503Y-78427805D01*
X137913504Y-78427807D01*
X137968747Y-78597829D01*
X137968750Y-78597835D01*
X138058141Y-78752665D01*
X138094774Y-78793350D01*
X138177764Y-78885521D01*
X138177767Y-78885523D01*
X138177770Y-78885526D01*
X138322407Y-78990612D01*
X138485733Y-79063329D01*
X138660609Y-79100500D01*
X138660610Y-79100500D01*
X138839389Y-79100500D01*
X138839391Y-79100500D01*
X139014267Y-79063329D01*
X139177593Y-78990612D01*
X139269025Y-78924182D01*
X139334831Y-78900702D01*
X139341911Y-78900500D01*
X142048619Y-78900500D01*
X142115658Y-78920185D01*
X142161413Y-78972989D01*
X142171357Y-79042147D01*
X142166551Y-79062815D01*
X142163504Y-79072191D01*
X142163503Y-79072194D01*
X142146028Y-79238462D01*
X142119443Y-79303076D01*
X142062146Y-79343061D01*
X142022707Y-79349500D01*
X141091911Y-79349500D01*
X141024872Y-79329815D01*
X141019025Y-79325818D01*
X140927594Y-79259389D01*
X140927593Y-79259388D01*
X140764267Y-79186671D01*
X140764265Y-79186670D01*
X140636594Y-79159533D01*
X140589391Y-79149500D01*
X140410609Y-79149500D01*
X140379954Y-79156015D01*
X140235733Y-79186670D01*
X140235728Y-79186672D01*
X140072408Y-79259387D01*
X139927768Y-79364475D01*
X139808140Y-79497336D01*
X139718750Y-79652164D01*
X139718747Y-79652170D01*
X139663504Y-79822192D01*
X139663503Y-79822194D01*
X139644815Y-80000000D01*
X139663503Y-80177805D01*
X139663504Y-80177807D01*
X139718747Y-80347829D01*
X139718750Y-80347835D01*
X139808141Y-80502665D01*
X139828702Y-80525500D01*
X139927764Y-80635521D01*
X139927767Y-80635523D01*
X139927770Y-80635526D01*
X140072407Y-80740612D01*
X140235733Y-80813329D01*
X140410609Y-80850500D01*
X140410610Y-80850500D01*
X140589389Y-80850500D01*
X140589391Y-80850500D01*
X140764267Y-80813329D01*
X140927593Y-80740612D01*
X141019025Y-80674182D01*
X141084831Y-80650702D01*
X141091911Y-80650500D01*
X143598431Y-80650500D01*
X143665470Y-80670185D01*
X143686112Y-80686819D01*
X145154563Y-82155271D01*
X145154570Y-82155277D01*
X145261110Y-82226464D01*
X145261109Y-82226464D01*
X145287424Y-82237364D01*
X145379495Y-82275501D01*
X145379499Y-82275501D01*
X145379500Y-82275502D01*
X145505167Y-82300500D01*
X145505170Y-82300500D01*
X152164071Y-82300500D01*
X152248615Y-82283682D01*
X152289744Y-82275501D01*
X152408127Y-82226465D01*
X152408126Y-82226465D01*
X152413755Y-82224134D01*
X152414233Y-82225289D01*
X152476227Y-82212373D01*
X152541474Y-82237364D01*
X152558445Y-82253003D01*
X152677764Y-82385521D01*
X152677767Y-82385523D01*
X152677770Y-82385526D01*
X152822407Y-82490612D01*
X152985733Y-82563329D01*
X153160609Y-82600500D01*
X153160610Y-82600500D01*
X153339389Y-82600500D01*
X153339391Y-82600500D01*
X153514267Y-82563329D01*
X153677593Y-82490612D01*
X153822230Y-82385526D01*
X153941859Y-82252665D01*
X153967272Y-82208646D01*
X153986973Y-82182971D01*
X154836132Y-81333812D01*
X154897453Y-81300329D01*
X154967145Y-81305313D01*
X154974245Y-81308215D01*
X154985728Y-81313327D01*
X154985733Y-81313329D01*
X155160609Y-81350500D01*
X155160610Y-81350500D01*
X155339389Y-81350500D01*
X155339391Y-81350500D01*
X155514267Y-81313329D01*
X155677593Y-81240612D01*
X155822230Y-81135526D01*
X155941859Y-81002665D01*
X156031250Y-80847835D01*
X156086497Y-80677803D01*
X156105185Y-80500000D01*
X156086497Y-80322197D01*
X156039581Y-80177805D01*
X156031252Y-80152170D01*
X156031249Y-80152164D01*
X155949817Y-80011119D01*
X155941859Y-79997335D01*
X155854953Y-79900816D01*
X155822235Y-79864478D01*
X155822232Y-79864476D01*
X155822231Y-79864475D01*
X155822230Y-79864474D01*
X155677593Y-79759388D01*
X155514267Y-79686671D01*
X155514265Y-79686670D01*
X155351952Y-79652170D01*
X155349989Y-79651752D01*
X155288508Y-79618561D01*
X155288090Y-79618144D01*
X154782127Y-79112181D01*
X154748642Y-79050858D01*
X154753626Y-78981166D01*
X154795498Y-78925233D01*
X154860962Y-78900816D01*
X154869808Y-78900500D01*
X159429192Y-78900500D01*
X159496231Y-78920185D01*
X159516873Y-78936819D01*
X159994724Y-79414669D01*
X160063181Y-79483126D01*
X160096666Y-79544449D01*
X160099500Y-79570807D01*
X160099500Y-86812075D01*
X160079815Y-86879114D01*
X160027011Y-86924869D01*
X160001286Y-86933364D01*
X159985735Y-86936670D01*
X159985728Y-86936672D01*
X159822408Y-87009387D01*
X159677768Y-87114475D01*
X159558140Y-87247336D01*
X159468750Y-87402164D01*
X159468747Y-87402170D01*
X159413504Y-87572192D01*
X159413503Y-87572194D01*
X159394815Y-87750000D01*
X159413503Y-87927805D01*
X159413504Y-87927807D01*
X159468747Y-88097829D01*
X159468750Y-88097835D01*
X159558141Y-88252665D01*
X159585809Y-88283393D01*
X159677764Y-88385521D01*
X159677767Y-88385523D01*
X159677770Y-88385526D01*
X159822407Y-88490612D01*
X159985733Y-88563329D01*
X160160609Y-88600500D01*
X160160610Y-88600500D01*
X160339389Y-88600500D01*
X160339391Y-88600500D01*
X160514267Y-88563329D01*
X160677593Y-88490612D01*
X160677597Y-88490608D01*
X160683224Y-88487361D01*
X160683904Y-88488539D01*
X160742911Y-88467480D01*
X160810966Y-88483300D01*
X160821783Y-88490252D01*
X160822402Y-88490609D01*
X160822404Y-88490610D01*
X160822407Y-88490612D01*
X160985733Y-88563329D01*
X161160609Y-88600500D01*
X161160610Y-88600500D01*
X161339389Y-88600500D01*
X161339391Y-88600500D01*
X161514267Y-88563329D01*
X161677593Y-88490612D01*
X161822230Y-88385526D01*
X161941859Y-88252665D01*
X162031250Y-88097835D01*
X162086497Y-87927803D01*
X162105185Y-87750000D01*
X162086497Y-87572197D01*
X162042462Y-87436671D01*
X162031252Y-87402170D01*
X162031249Y-87402164D01*
X162029711Y-87399500D01*
X161941859Y-87247335D01*
X161932349Y-87236773D01*
X161902120Y-87173782D01*
X161900500Y-87153802D01*
X161900500Y-84750000D01*
X163644815Y-84750000D01*
X163663503Y-84927805D01*
X163663504Y-84927807D01*
X163718747Y-85097829D01*
X163718748Y-85097830D01*
X163718750Y-85097835D01*
X163732887Y-85122322D01*
X163749500Y-85184320D01*
X163749500Y-91565678D01*
X163732887Y-91627678D01*
X163718750Y-91652163D01*
X163663504Y-91822192D01*
X163663503Y-91822194D01*
X163644815Y-92000000D01*
X163663503Y-92177805D01*
X163663504Y-92177807D01*
X163718747Y-92347829D01*
X163718750Y-92347835D01*
X163808141Y-92502665D01*
X163849812Y-92548946D01*
X163927764Y-92635521D01*
X163927767Y-92635523D01*
X163927770Y-92635526D01*
X164072407Y-92740612D01*
X164235733Y-92813329D01*
X164410609Y-92850500D01*
X164410610Y-92850500D01*
X164589389Y-92850500D01*
X164589391Y-92850500D01*
X164764267Y-92813329D01*
X164927593Y-92740612D01*
X165072230Y-92635526D01*
X165191859Y-92502665D01*
X165281250Y-92347835D01*
X165336497Y-92177803D01*
X165355185Y-92000000D01*
X165336497Y-91822197D01*
X165281250Y-91652165D01*
X165267113Y-91627678D01*
X165250500Y-91565678D01*
X165250500Y-89728551D01*
X166549500Y-89728551D01*
X166549500Y-89921449D01*
X166556495Y-89965614D01*
X166579675Y-90111969D01*
X166579676Y-90111972D01*
X166639285Y-90295429D01*
X166726859Y-90467302D01*
X166840241Y-90623359D01*
X166976641Y-90759759D01*
X167132698Y-90873141D01*
X167304571Y-90960715D01*
X167488028Y-91020324D01*
X167678551Y-91050500D01*
X167678552Y-91050500D01*
X168421448Y-91050500D01*
X168421449Y-91050500D01*
X168611972Y-91020324D01*
X168795429Y-90960715D01*
X168967302Y-90873141D01*
X169123359Y-90759759D01*
X169259759Y-90623359D01*
X169373141Y-90467302D01*
X169460715Y-90295429D01*
X169520324Y-90111972D01*
X169550500Y-89921449D01*
X169550500Y-89890350D01*
X170449500Y-89890350D01*
X170449500Y-90059649D01*
X170475981Y-90226847D01*
X170528296Y-90387853D01*
X170605152Y-90538688D01*
X170704648Y-90675634D01*
X170704652Y-90675639D01*
X170824360Y-90795347D01*
X170824365Y-90795351D01*
X170919511Y-90864478D01*
X170961315Y-90894850D01*
X171057425Y-90943820D01*
X171112146Y-90971703D01*
X171112148Y-90971703D01*
X171112151Y-90971705D01*
X171191032Y-90997335D01*
X171273152Y-91024018D01*
X171440351Y-91050500D01*
X171440356Y-91050500D01*
X172259649Y-91050500D01*
X172426847Y-91024018D01*
X172438216Y-91020324D01*
X172587849Y-90971705D01*
X172738685Y-90894850D01*
X172875641Y-90795346D01*
X172995346Y-90675641D01*
X173094850Y-90538685D01*
X173171705Y-90387849D01*
X173224018Y-90226847D01*
X173250500Y-90059649D01*
X173250500Y-89890350D01*
X173224018Y-89723152D01*
X173171703Y-89562146D01*
X173134372Y-89488881D01*
X173094850Y-89411315D01*
X173053621Y-89354568D01*
X172995351Y-89274365D01*
X172995347Y-89274360D01*
X172875639Y-89154652D01*
X172875634Y-89154648D01*
X172738688Y-89055152D01*
X172738687Y-89055151D01*
X172738685Y-89055150D01*
X172682727Y-89026638D01*
X172587853Y-88978296D01*
X172426847Y-88925981D01*
X172259649Y-88899500D01*
X172259644Y-88899500D01*
X171440356Y-88899500D01*
X171440351Y-88899500D01*
X171273152Y-88925981D01*
X171112146Y-88978296D01*
X170961311Y-89055152D01*
X170824365Y-89154648D01*
X170824360Y-89154652D01*
X170704652Y-89274360D01*
X170704648Y-89274365D01*
X170605152Y-89411311D01*
X170528296Y-89562146D01*
X170475981Y-89723152D01*
X170449500Y-89890350D01*
X169550500Y-89890350D01*
X169550500Y-89728551D01*
X169520324Y-89538028D01*
X169513902Y-89518266D01*
X169511908Y-89448428D01*
X169547988Y-89388595D01*
X169558941Y-89379637D01*
X169705871Y-89272888D01*
X169832533Y-89132216D01*
X169927179Y-88968284D01*
X169985674Y-88788256D01*
X170005460Y-88600000D01*
X169985674Y-88411744D01*
X169927179Y-88231716D01*
X169832533Y-88067784D01*
X169705871Y-87927112D01*
X169705870Y-87927111D01*
X169552734Y-87815851D01*
X169552729Y-87815848D01*
X169379807Y-87738857D01*
X169379802Y-87738855D01*
X169234001Y-87707865D01*
X169194646Y-87699500D01*
X169005354Y-87699500D01*
X168972897Y-87706398D01*
X168820197Y-87738855D01*
X168820192Y-87738857D01*
X168647270Y-87815848D01*
X168647265Y-87815851D01*
X168494129Y-87927111D01*
X168367466Y-88067785D01*
X168272821Y-88231715D01*
X168272818Y-88231722D01*
X168214325Y-88411745D01*
X168206263Y-88488461D01*
X168179679Y-88553075D01*
X168122382Y-88593061D01*
X168082942Y-88599500D01*
X167678551Y-88599500D01*
X167642697Y-88605178D01*
X167488030Y-88629675D01*
X167304568Y-88689286D01*
X167132697Y-88776859D01*
X167043661Y-88841547D01*
X166976641Y-88890241D01*
X166976639Y-88890243D01*
X166976638Y-88890243D01*
X166840243Y-89026638D01*
X166840243Y-89026639D01*
X166840241Y-89026641D01*
X166791547Y-89093661D01*
X166726859Y-89182697D01*
X166639286Y-89354568D01*
X166579675Y-89538030D01*
X166575855Y-89562151D01*
X166549500Y-89728551D01*
X165250500Y-89728551D01*
X165250500Y-85184320D01*
X165267112Y-85122322D01*
X165281250Y-85097835D01*
X165336497Y-84927803D01*
X165355185Y-84750000D01*
X165336497Y-84572197D01*
X165281250Y-84402165D01*
X165191859Y-84247335D01*
X165145003Y-84195296D01*
X165072235Y-84114478D01*
X165072232Y-84114476D01*
X165072231Y-84114475D01*
X165072230Y-84114474D01*
X164927593Y-84009388D01*
X164764267Y-83936671D01*
X164764265Y-83936670D01*
X164636594Y-83909533D01*
X164589391Y-83899500D01*
X164410609Y-83899500D01*
X164379954Y-83906015D01*
X164235733Y-83936670D01*
X164235728Y-83936672D01*
X164072408Y-84009387D01*
X163927768Y-84114475D01*
X163808140Y-84247336D01*
X163718750Y-84402164D01*
X163718747Y-84402170D01*
X163663504Y-84572192D01*
X163663503Y-84572194D01*
X163644815Y-84750000D01*
X161900500Y-84750000D01*
X161900500Y-82278551D01*
X166549500Y-82278551D01*
X166549500Y-82471448D01*
X166579675Y-82661969D01*
X166579676Y-82661972D01*
X166639285Y-82845429D01*
X166726859Y-83017302D01*
X166840241Y-83173359D01*
X166976641Y-83309759D01*
X167132698Y-83423141D01*
X167304571Y-83510715D01*
X167488028Y-83570324D01*
X167678551Y-83600500D01*
X168082942Y-83600500D01*
X168149981Y-83620185D01*
X168195736Y-83672989D01*
X168206263Y-83711539D01*
X168214325Y-83788254D01*
X168272818Y-83968277D01*
X168272821Y-83968284D01*
X168367467Y-84132216D01*
X168471121Y-84247335D01*
X168494129Y-84272888D01*
X168647265Y-84384148D01*
X168647270Y-84384151D01*
X168820192Y-84461142D01*
X168820197Y-84461144D01*
X169005354Y-84500500D01*
X169005355Y-84500500D01*
X169194644Y-84500500D01*
X169194646Y-84500500D01*
X169379803Y-84461144D01*
X169552730Y-84384151D01*
X169705871Y-84272888D01*
X169832533Y-84132216D01*
X169927179Y-83968284D01*
X169985674Y-83788256D01*
X170005460Y-83600000D01*
X169985674Y-83411744D01*
X169927179Y-83231716D01*
X169832533Y-83067784D01*
X169705871Y-82927112D01*
X169705870Y-82927111D01*
X169558949Y-82820367D01*
X169516283Y-82765037D01*
X169510304Y-82695424D01*
X169513900Y-82681739D01*
X169520324Y-82661972D01*
X169550500Y-82471449D01*
X169550500Y-82278551D01*
X169528611Y-82140350D01*
X170449500Y-82140350D01*
X170449500Y-82309649D01*
X170475981Y-82476847D01*
X170528296Y-82637853D01*
X170605152Y-82788688D01*
X170704648Y-82925634D01*
X170704652Y-82925639D01*
X170824360Y-83045347D01*
X170824365Y-83045351D01*
X170943817Y-83132137D01*
X170961315Y-83144850D01*
X171057425Y-83193820D01*
X171112146Y-83221703D01*
X171112148Y-83221703D01*
X171112151Y-83221705D01*
X171198450Y-83249745D01*
X171273152Y-83274018D01*
X171440351Y-83300500D01*
X171440356Y-83300500D01*
X172259649Y-83300500D01*
X172426847Y-83274018D01*
X172587849Y-83221705D01*
X172738685Y-83144850D01*
X172875641Y-83045346D01*
X172995346Y-82925641D01*
X173094850Y-82788685D01*
X173171705Y-82637849D01*
X173224018Y-82476847D01*
X173238482Y-82385526D01*
X173250500Y-82309649D01*
X173250500Y-82140350D01*
X173224018Y-81973152D01*
X173171703Y-81812146D01*
X173143820Y-81757425D01*
X173094850Y-81661315D01*
X173033329Y-81576638D01*
X172995351Y-81524365D01*
X172995347Y-81524360D01*
X172875639Y-81404652D01*
X172875634Y-81404648D01*
X172738688Y-81305152D01*
X172738687Y-81305151D01*
X172738685Y-81305150D01*
X172676671Y-81273552D01*
X172587853Y-81228296D01*
X172426847Y-81175981D01*
X172259649Y-81149500D01*
X172259644Y-81149500D01*
X171440356Y-81149500D01*
X171440351Y-81149500D01*
X171273152Y-81175981D01*
X171112146Y-81228296D01*
X170961311Y-81305152D01*
X170824365Y-81404648D01*
X170824360Y-81404652D01*
X170704652Y-81524360D01*
X170704648Y-81524365D01*
X170605152Y-81661311D01*
X170528296Y-81812146D01*
X170475981Y-81973152D01*
X170449500Y-82140350D01*
X169528611Y-82140350D01*
X169520324Y-82088028D01*
X169460715Y-81904571D01*
X169373141Y-81732698D01*
X169259759Y-81576641D01*
X169123359Y-81440241D01*
X168967302Y-81326859D01*
X168795429Y-81239285D01*
X168611972Y-81179676D01*
X168611970Y-81179675D01*
X168611969Y-81179675D01*
X168465614Y-81156495D01*
X168421449Y-81149500D01*
X167678551Y-81149500D01*
X167642697Y-81155178D01*
X167488030Y-81179675D01*
X167304568Y-81239286D01*
X167132697Y-81326859D01*
X167043661Y-81391547D01*
X166976641Y-81440241D01*
X166976639Y-81440243D01*
X166976638Y-81440243D01*
X166840243Y-81576638D01*
X166840243Y-81576639D01*
X166840241Y-81576641D01*
X166817648Y-81607738D01*
X166726859Y-81732697D01*
X166639286Y-81904568D01*
X166579675Y-82088030D01*
X166549500Y-82278551D01*
X161900500Y-82278551D01*
X161900500Y-78185928D01*
X161875502Y-78060261D01*
X161875501Y-78060260D01*
X161875501Y-78060256D01*
X161827958Y-77945477D01*
X161826466Y-77941874D01*
X161826463Y-77941868D01*
X161755275Y-77835328D01*
X161755272Y-77835325D01*
X161132127Y-77212181D01*
X161098642Y-77150858D01*
X161103626Y-77081167D01*
X161145497Y-77025233D01*
X161210962Y-77000816D01*
X161219808Y-77000500D01*
X165573920Y-77000500D01*
X165671462Y-76981096D01*
X165718913Y-76971658D01*
X165855495Y-76915084D01*
X165904729Y-76882186D01*
X165978416Y-76832952D01*
X165978418Y-76832949D01*
X165983481Y-76829567D01*
X165984051Y-76830420D01*
X166008746Y-76816907D01*
X166008330Y-76815972D01*
X166014265Y-76813329D01*
X166014267Y-76813329D01*
X166177593Y-76740612D01*
X166322230Y-76635526D01*
X166441859Y-76502665D01*
X166531250Y-76347835D01*
X166586497Y-76177803D01*
X166605185Y-76000000D01*
X166586497Y-75822197D01*
X166542462Y-75686671D01*
X166531252Y-75652170D01*
X166531249Y-75652164D01*
X166522976Y-75637834D01*
X166441859Y-75497335D01*
X166395003Y-75445296D01*
X166322235Y-75364478D01*
X166322232Y-75364476D01*
X166322231Y-75364475D01*
X166322230Y-75364474D01*
X166177593Y-75259388D01*
X166014267Y-75186671D01*
X166014265Y-75186670D01*
X165886594Y-75159533D01*
X165839391Y-75149500D01*
X165660609Y-75149500D01*
X165629954Y-75156015D01*
X165485733Y-75186670D01*
X165485728Y-75186672D01*
X165322408Y-75259387D01*
X165177768Y-75364475D01*
X165093134Y-75458472D01*
X165033647Y-75495121D01*
X165000984Y-75499500D01*
X150249017Y-75499500D01*
X150181978Y-75479815D01*
X150156867Y-75458472D01*
X150072235Y-75364478D01*
X150072232Y-75364476D01*
X150072231Y-75364475D01*
X150072230Y-75364474D01*
X149927593Y-75259388D01*
X149764267Y-75186671D01*
X149764265Y-75186670D01*
X149636594Y-75159533D01*
X149589391Y-75149500D01*
X149410609Y-75149500D01*
X149379954Y-75156015D01*
X149235733Y-75186670D01*
X149118694Y-75238780D01*
X149068259Y-75249500D01*
X139931741Y-75249500D01*
X139881306Y-75238780D01*
X139764267Y-75186671D01*
X139764265Y-75186670D01*
X139636594Y-75159533D01*
X139589391Y-75149500D01*
X139410609Y-75149500D01*
X139379954Y-75156015D01*
X139235733Y-75186670D01*
X139235728Y-75186672D01*
X139072408Y-75259387D01*
X138927768Y-75364475D01*
X138808140Y-75497336D01*
X138745876Y-75605181D01*
X138695309Y-75653397D01*
X138626702Y-75666620D01*
X138561837Y-75640652D01*
X138550808Y-75630862D01*
X138128628Y-75208683D01*
X138095143Y-75147360D01*
X138092988Y-75133961D01*
X138086497Y-75072198D01*
X138031252Y-74902170D01*
X138031249Y-74902164D01*
X137941859Y-74747335D01*
X137895003Y-74695296D01*
X137822235Y-74614478D01*
X137822232Y-74614476D01*
X137822231Y-74614475D01*
X137822230Y-74614474D01*
X137677593Y-74509388D01*
X137514267Y-74436671D01*
X137514265Y-74436670D01*
X137386594Y-74409533D01*
X137339391Y-74399500D01*
X137160609Y-74399500D01*
X137129954Y-74406015D01*
X136985733Y-74436670D01*
X136985728Y-74436672D01*
X136822408Y-74509387D01*
X136677768Y-74614475D01*
X136558140Y-74747336D01*
X136468750Y-74902164D01*
X136468747Y-74902170D01*
X136413504Y-75072192D01*
X136413503Y-75072194D01*
X136394815Y-75250000D01*
X132836966Y-75250000D01*
X132823509Y-75239526D01*
X132823507Y-75239525D01*
X132823506Y-75239524D01*
X132604811Y-75121172D01*
X132604802Y-75121169D01*
X132369616Y-75040429D01*
X132124335Y-74999500D01*
X131875665Y-74999500D01*
X131630383Y-75040429D01*
X131395197Y-75121169D01*
X131395188Y-75121172D01*
X131176493Y-75239524D01*
X130980257Y-75392261D01*
X130811833Y-75575217D01*
X130675826Y-75783393D01*
X130575936Y-76011118D01*
X130514892Y-76252175D01*
X130514890Y-76252187D01*
X130494357Y-76499994D01*
X127005643Y-76499994D01*
X126985109Y-76252187D01*
X126985107Y-76252175D01*
X126924063Y-76011118D01*
X126824173Y-75783393D01*
X126688166Y-75575217D01*
X126600342Y-75479815D01*
X126519744Y-75392262D01*
X126323509Y-75239526D01*
X126323507Y-75239525D01*
X126323506Y-75239524D01*
X126104811Y-75121172D01*
X126104802Y-75121169D01*
X125869616Y-75040429D01*
X125624335Y-74999500D01*
X125375665Y-74999500D01*
X125130383Y-75040429D01*
X124895197Y-75121169D01*
X124895188Y-75121172D01*
X124676493Y-75239524D01*
X124480257Y-75392261D01*
X124311833Y-75575217D01*
X124175826Y-75783393D01*
X124075936Y-76011118D01*
X124014892Y-76252175D01*
X124014890Y-76252187D01*
X123994357Y-76499994D01*
X122077698Y-76499994D01*
X122043354Y-76407913D01*
X122043350Y-76407906D01*
X121957190Y-76292812D01*
X121957187Y-76292809D01*
X121842093Y-76206649D01*
X121842088Y-76206646D01*
X121710528Y-76157577D01*
X121654595Y-76115705D01*
X121630178Y-76050241D01*
X121645030Y-75981968D01*
X121666175Y-75953720D01*
X121788495Y-75831401D01*
X121924035Y-75637830D01*
X122023903Y-75423663D01*
X122085063Y-75195408D01*
X122105659Y-74960000D01*
X122085063Y-74724592D01*
X122023903Y-74496337D01*
X121924035Y-74282171D01*
X121788495Y-74088599D01*
X121788494Y-74088597D01*
X121621402Y-73921506D01*
X121621396Y-73921501D01*
X121435842Y-73791575D01*
X121392217Y-73736998D01*
X121385023Y-73667500D01*
X121416546Y-73605145D01*
X121435842Y-73588425D01*
X121499577Y-73543797D01*
X121621401Y-73458495D01*
X121788495Y-73291401D01*
X121924035Y-73097830D01*
X122023903Y-72883663D01*
X122085063Y-72655408D01*
X122105659Y-72420000D01*
X122085063Y-72184592D01*
X122035601Y-71999994D01*
X123994357Y-71999994D01*
X123994357Y-72000000D01*
X124014890Y-72247812D01*
X124014892Y-72247824D01*
X124075936Y-72488881D01*
X124175826Y-72716606D01*
X124311833Y-72924782D01*
X124311836Y-72924785D01*
X124480256Y-73107738D01*
X124676491Y-73260474D01*
X124895190Y-73378828D01*
X125130386Y-73459571D01*
X125375665Y-73500500D01*
X125624335Y-73500500D01*
X125869614Y-73459571D01*
X126104810Y-73378828D01*
X126323509Y-73260474D01*
X126519744Y-73107738D01*
X126688164Y-72924785D01*
X126824173Y-72716607D01*
X126924063Y-72488881D01*
X126985108Y-72247821D01*
X127005643Y-72000000D01*
X127005643Y-71999994D01*
X130494357Y-71999994D01*
X130494357Y-72000000D01*
X130514890Y-72247812D01*
X130514892Y-72247824D01*
X130575936Y-72488881D01*
X130675826Y-72716606D01*
X130811833Y-72924782D01*
X130811836Y-72924785D01*
X130980256Y-73107738D01*
X131176491Y-73260474D01*
X131395190Y-73378828D01*
X131630386Y-73459571D01*
X131875665Y-73500500D01*
X132124335Y-73500500D01*
X132369614Y-73459571D01*
X132604810Y-73378828D01*
X132823509Y-73260474D01*
X133019744Y-73107738D01*
X133188164Y-72924785D01*
X133324173Y-72716607D01*
X133424063Y-72488881D01*
X133485108Y-72247821D01*
X133505643Y-72000000D01*
X133505643Y-71999999D01*
X135669364Y-71999999D01*
X135669364Y-72000000D01*
X136566988Y-72000000D01*
X136534075Y-72057007D01*
X136500000Y-72184174D01*
X136500000Y-72315826D01*
X136534075Y-72442993D01*
X136566988Y-72500000D01*
X135669364Y-72500000D01*
X135726567Y-72713486D01*
X135726570Y-72713492D01*
X135826399Y-72927578D01*
X135961894Y-73121082D01*
X136128917Y-73288105D01*
X136322421Y-73423600D01*
X136536507Y-73523429D01*
X136536516Y-73523433D01*
X136750000Y-73580634D01*
X136750000Y-72683012D01*
X136807007Y-72715925D01*
X136934174Y-72750000D01*
X137065826Y-72750000D01*
X137192993Y-72715925D01*
X137250000Y-72683012D01*
X137250000Y-73580633D01*
X137463483Y-73523433D01*
X137463492Y-73523429D01*
X137677578Y-73423600D01*
X137871082Y-73288105D01*
X138038105Y-73121082D01*
X138168119Y-72935405D01*
X138222696Y-72891781D01*
X138292195Y-72884588D01*
X138354549Y-72916110D01*
X138371269Y-72935405D01*
X138501505Y-73121401D01*
X138668599Y-73288495D01*
X138757151Y-73350500D01*
X138862165Y-73424032D01*
X138862167Y-73424033D01*
X138862170Y-73424035D01*
X139076337Y-73523903D01*
X139304592Y-73585063D01*
X139481034Y-73600500D01*
X139539999Y-73605659D01*
X139540000Y-73605659D01*
X139540001Y-73605659D01*
X139598966Y-73600500D01*
X139775408Y-73585063D01*
X140003663Y-73523903D01*
X140217830Y-73424035D01*
X140411401Y-73288495D01*
X140578495Y-73121401D01*
X140708425Y-72935842D01*
X140763002Y-72892217D01*
X140832500Y-72885023D01*
X140894855Y-72916546D01*
X140911575Y-72935842D01*
X141041281Y-73121082D01*
X141041505Y-73121401D01*
X141208599Y-73288495D01*
X141297151Y-73350500D01*
X141402165Y-73424032D01*
X141402167Y-73424033D01*
X141402170Y-73424035D01*
X141616337Y-73523903D01*
X141844592Y-73585063D01*
X142021034Y-73600500D01*
X142079999Y-73605659D01*
X142080000Y-73605659D01*
X142080001Y-73605659D01*
X142138966Y-73600500D01*
X142315408Y-73585063D01*
X142543663Y-73523903D01*
X142757830Y-73424035D01*
X142951401Y-73288495D01*
X143073329Y-73166566D01*
X143134648Y-73133084D01*
X143204340Y-73138068D01*
X143260274Y-73179939D01*
X143277189Y-73210917D01*
X143326202Y-73342328D01*
X143326206Y-73342335D01*
X143412452Y-73457544D01*
X143412455Y-73457547D01*
X143527664Y-73543793D01*
X143527671Y-73543797D01*
X143662517Y-73594091D01*
X143662516Y-73594091D01*
X143669444Y-73594835D01*
X143722127Y-73600500D01*
X145517872Y-73600499D01*
X145577483Y-73594091D01*
X145712331Y-73543796D01*
X145827546Y-73457546D01*
X145913796Y-73342331D01*
X145964091Y-73207483D01*
X145970500Y-73147873D01*
X145970499Y-71999999D01*
X157129364Y-71999999D01*
X157129364Y-72000000D01*
X158026988Y-72000000D01*
X157994075Y-72057007D01*
X157960000Y-72184174D01*
X157960000Y-72315826D01*
X157994075Y-72442993D01*
X158026988Y-72500000D01*
X157129364Y-72500000D01*
X157186567Y-72713486D01*
X157186570Y-72713492D01*
X157286399Y-72927578D01*
X157421894Y-73121082D01*
X157588917Y-73288105D01*
X157782421Y-73423600D01*
X157996507Y-73523429D01*
X157996516Y-73523433D01*
X158210000Y-73580634D01*
X158210000Y-72683012D01*
X158267007Y-72715925D01*
X158394174Y-72750000D01*
X158525826Y-72750000D01*
X158652993Y-72715925D01*
X158710000Y-72683012D01*
X158710000Y-73580633D01*
X158923483Y-73523433D01*
X158923492Y-73523429D01*
X159137578Y-73423600D01*
X159331082Y-73288105D01*
X159498105Y-73121082D01*
X159628119Y-72935405D01*
X159682696Y-72891781D01*
X159752195Y-72884588D01*
X159814549Y-72916110D01*
X159831269Y-72935405D01*
X159961505Y-73121401D01*
X160128599Y-73288495D01*
X160217151Y-73350500D01*
X160322165Y-73424032D01*
X160322167Y-73424033D01*
X160322170Y-73424035D01*
X160536337Y-73523903D01*
X160764592Y-73585063D01*
X160941034Y-73600500D01*
X160999999Y-73605659D01*
X161000000Y-73605659D01*
X161000001Y-73605659D01*
X161058966Y-73600500D01*
X161235408Y-73585063D01*
X161463663Y-73523903D01*
X161677830Y-73424035D01*
X161871401Y-73288495D01*
X162038495Y-73121401D01*
X162168425Y-72935842D01*
X162223002Y-72892217D01*
X162292500Y-72885023D01*
X162354855Y-72916546D01*
X162371575Y-72935842D01*
X162501281Y-73121082D01*
X162501505Y-73121401D01*
X162668599Y-73288495D01*
X162757151Y-73350500D01*
X162862165Y-73424032D01*
X162862167Y-73424033D01*
X162862170Y-73424035D01*
X163076337Y-73523903D01*
X163304592Y-73585063D01*
X163481034Y-73600500D01*
X163539999Y-73605659D01*
X163540000Y-73605659D01*
X163540001Y-73605659D01*
X163598966Y-73600500D01*
X163775408Y-73585063D01*
X164003663Y-73523903D01*
X164217830Y-73424035D01*
X164411401Y-73288495D01*
X164533329Y-73166566D01*
X164594648Y-73133084D01*
X164664340Y-73138068D01*
X164720274Y-73179939D01*
X164737189Y-73210917D01*
X164786202Y-73342328D01*
X164786206Y-73342335D01*
X164872452Y-73457544D01*
X164872455Y-73457547D01*
X164987664Y-73543793D01*
X164987671Y-73543797D01*
X165122517Y-73594091D01*
X165122516Y-73594091D01*
X165129444Y-73594835D01*
X165182127Y-73600500D01*
X166977872Y-73600499D01*
X167037483Y-73594091D01*
X167172331Y-73543796D01*
X167287546Y-73457546D01*
X167373796Y-73342331D01*
X167424091Y-73207483D01*
X167430500Y-73147873D01*
X167430499Y-71893713D01*
X169399500Y-71893713D01*
X169399500Y-72106286D01*
X169421915Y-72247812D01*
X169432754Y-72316243D01*
X169487719Y-72485408D01*
X169498444Y-72518414D01*
X169594951Y-72707820D01*
X169719890Y-72879786D01*
X169870213Y-73030109D01*
X170042179Y-73155048D01*
X170042181Y-73155049D01*
X170042184Y-73155051D01*
X170231588Y-73251557D01*
X170433757Y-73317246D01*
X170643713Y-73350500D01*
X170643714Y-73350500D01*
X170856286Y-73350500D01*
X170856287Y-73350500D01*
X171066243Y-73317246D01*
X171268412Y-73251557D01*
X171457816Y-73155051D01*
X171504133Y-73121400D01*
X171629786Y-73030109D01*
X171629788Y-73030106D01*
X171629792Y-73030104D01*
X171780104Y-72879792D01*
X171780106Y-72879788D01*
X171780109Y-72879786D01*
X171898665Y-72716606D01*
X171905051Y-72707816D01*
X172001557Y-72518412D01*
X172067246Y-72316243D01*
X172100500Y-72106287D01*
X172100500Y-71893713D01*
X172067246Y-71683757D01*
X172001557Y-71481588D01*
X171905051Y-71292184D01*
X171905049Y-71292181D01*
X171905048Y-71292179D01*
X171780109Y-71120213D01*
X171629786Y-70969890D01*
X171457820Y-70844951D01*
X171268414Y-70748444D01*
X171268413Y-70748443D01*
X171268412Y-70748443D01*
X171066243Y-70682754D01*
X171066241Y-70682753D01*
X171066240Y-70682753D01*
X170904957Y-70657208D01*
X170856287Y-70649500D01*
X170643713Y-70649500D01*
X170595042Y-70657208D01*
X170433760Y-70682753D01*
X170231585Y-70748444D01*
X170042179Y-70844951D01*
X169870213Y-70969890D01*
X169719890Y-71120213D01*
X169594951Y-71292179D01*
X169498444Y-71481585D01*
X169432753Y-71683760D01*
X169399500Y-71893713D01*
X167430499Y-71893713D01*
X167430499Y-71352128D01*
X167424091Y-71292517D01*
X167422810Y-71289083D01*
X167373797Y-71157671D01*
X167373793Y-71157664D01*
X167287547Y-71042455D01*
X167287544Y-71042452D01*
X167172335Y-70956206D01*
X167172328Y-70956202D01*
X167037482Y-70905908D01*
X167037483Y-70905908D01*
X166977883Y-70899501D01*
X166977881Y-70899500D01*
X166977873Y-70899500D01*
X166977864Y-70899500D01*
X165182129Y-70899500D01*
X165182123Y-70899501D01*
X165122516Y-70905908D01*
X164987671Y-70956202D01*
X164987664Y-70956206D01*
X164872455Y-71042452D01*
X164872452Y-71042455D01*
X164786206Y-71157664D01*
X164786203Y-71157669D01*
X164737189Y-71289083D01*
X164695317Y-71345016D01*
X164629853Y-71369433D01*
X164561580Y-71354581D01*
X164533326Y-71333430D01*
X164411402Y-71211506D01*
X164411395Y-71211501D01*
X164217834Y-71075967D01*
X164217830Y-71075965D01*
X164192902Y-71064341D01*
X164003663Y-70976097D01*
X164003659Y-70976096D01*
X164003655Y-70976094D01*
X163775413Y-70914938D01*
X163775403Y-70914936D01*
X163540001Y-70894341D01*
X163539999Y-70894341D01*
X163304596Y-70914936D01*
X163304586Y-70914938D01*
X163076344Y-70976094D01*
X163076335Y-70976098D01*
X162862171Y-71075964D01*
X162862169Y-71075965D01*
X162668597Y-71211505D01*
X162501505Y-71378597D01*
X162371575Y-71564158D01*
X162316998Y-71607783D01*
X162247500Y-71614977D01*
X162185145Y-71583454D01*
X162168425Y-71564158D01*
X162038494Y-71378597D01*
X161871402Y-71211506D01*
X161871395Y-71211501D01*
X161677834Y-71075967D01*
X161677830Y-71075965D01*
X161652902Y-71064341D01*
X161463663Y-70976097D01*
X161463659Y-70976096D01*
X161463655Y-70976094D01*
X161235413Y-70914938D01*
X161235403Y-70914936D01*
X161000001Y-70894341D01*
X160999999Y-70894341D01*
X160764596Y-70914936D01*
X160764586Y-70914938D01*
X160536344Y-70976094D01*
X160536335Y-70976098D01*
X160322171Y-71075964D01*
X160322169Y-71075965D01*
X160128597Y-71211505D01*
X159961508Y-71378594D01*
X159831269Y-71564595D01*
X159776692Y-71608219D01*
X159707193Y-71615412D01*
X159644839Y-71583890D01*
X159628119Y-71564594D01*
X159498113Y-71378926D01*
X159498108Y-71378920D01*
X159331082Y-71211894D01*
X159137578Y-71076399D01*
X158923492Y-70976570D01*
X158923486Y-70976567D01*
X158710000Y-70919364D01*
X158710000Y-71816988D01*
X158652993Y-71784075D01*
X158525826Y-71750000D01*
X158394174Y-71750000D01*
X158267007Y-71784075D01*
X158210000Y-71816988D01*
X158210000Y-70919364D01*
X158209999Y-70919364D01*
X157996513Y-70976567D01*
X157996507Y-70976570D01*
X157782422Y-71076399D01*
X157782420Y-71076400D01*
X157588926Y-71211886D01*
X157588920Y-71211891D01*
X157421891Y-71378920D01*
X157421886Y-71378926D01*
X157286400Y-71572420D01*
X157286399Y-71572422D01*
X157186570Y-71786507D01*
X157186567Y-71786513D01*
X157129364Y-71999999D01*
X145970499Y-71999999D01*
X145970499Y-71352128D01*
X145964091Y-71292517D01*
X145962810Y-71289083D01*
X145913797Y-71157671D01*
X145913793Y-71157664D01*
X145827547Y-71042455D01*
X145827544Y-71042452D01*
X145712335Y-70956206D01*
X145712328Y-70956202D01*
X145577482Y-70905908D01*
X145577483Y-70905908D01*
X145517883Y-70899501D01*
X145517881Y-70899500D01*
X145517873Y-70899500D01*
X145517864Y-70899500D01*
X143722129Y-70899500D01*
X143722123Y-70899501D01*
X143662516Y-70905908D01*
X143527671Y-70956202D01*
X143527664Y-70956206D01*
X143412455Y-71042452D01*
X143412452Y-71042455D01*
X143326206Y-71157664D01*
X143326203Y-71157669D01*
X143277189Y-71289083D01*
X143235317Y-71345016D01*
X143169853Y-71369433D01*
X143101580Y-71354581D01*
X143073326Y-71333430D01*
X142951402Y-71211506D01*
X142951395Y-71211501D01*
X142757834Y-71075967D01*
X142757830Y-71075965D01*
X142732902Y-71064341D01*
X142543663Y-70976097D01*
X142543659Y-70976096D01*
X142543655Y-70976094D01*
X142315413Y-70914938D01*
X142315403Y-70914936D01*
X142080001Y-70894341D01*
X142079999Y-70894341D01*
X141844596Y-70914936D01*
X141844586Y-70914938D01*
X141616344Y-70976094D01*
X141616335Y-70976098D01*
X141402171Y-71075964D01*
X141402169Y-71075965D01*
X141208597Y-71211505D01*
X141041505Y-71378597D01*
X140911575Y-71564158D01*
X140856998Y-71607783D01*
X140787500Y-71614977D01*
X140725145Y-71583454D01*
X140708425Y-71564158D01*
X140578494Y-71378597D01*
X140411402Y-71211506D01*
X140411395Y-71211501D01*
X140217834Y-71075967D01*
X140217830Y-71075965D01*
X140192902Y-71064341D01*
X140003663Y-70976097D01*
X140003659Y-70976096D01*
X140003655Y-70976094D01*
X139775413Y-70914938D01*
X139775403Y-70914936D01*
X139540001Y-70894341D01*
X139539999Y-70894341D01*
X139304596Y-70914936D01*
X139304586Y-70914938D01*
X139076344Y-70976094D01*
X139076335Y-70976098D01*
X138862171Y-71075964D01*
X138862169Y-71075965D01*
X138668597Y-71211505D01*
X138501508Y-71378594D01*
X138371269Y-71564595D01*
X138316692Y-71608219D01*
X138247193Y-71615412D01*
X138184839Y-71583890D01*
X138168119Y-71564594D01*
X138038113Y-71378926D01*
X138038108Y-71378920D01*
X137871082Y-71211894D01*
X137677578Y-71076399D01*
X137463492Y-70976570D01*
X137463486Y-70976567D01*
X137250000Y-70919364D01*
X137250000Y-71816988D01*
X137192993Y-71784075D01*
X137065826Y-71750000D01*
X136934174Y-71750000D01*
X136807007Y-71784075D01*
X136750000Y-71816988D01*
X136750000Y-70919364D01*
X136749999Y-70919364D01*
X136536513Y-70976567D01*
X136536507Y-70976570D01*
X136322422Y-71076399D01*
X136322420Y-71076400D01*
X136128926Y-71211886D01*
X136128920Y-71211891D01*
X135961891Y-71378920D01*
X135961886Y-71378926D01*
X135826400Y-71572420D01*
X135826399Y-71572422D01*
X135726570Y-71786507D01*
X135726567Y-71786513D01*
X135669364Y-71999999D01*
X133505643Y-71999999D01*
X133505572Y-71999144D01*
X133485109Y-71752187D01*
X133485107Y-71752175D01*
X133424063Y-71511118D01*
X133324173Y-71283393D01*
X133188166Y-71075217D01*
X133158005Y-71042454D01*
X133019744Y-70892262D01*
X132823509Y-70739526D01*
X132823507Y-70739525D01*
X132823506Y-70739524D01*
X132604811Y-70621172D01*
X132604802Y-70621169D01*
X132369616Y-70540429D01*
X132124335Y-70499500D01*
X131875665Y-70499500D01*
X131630383Y-70540429D01*
X131395197Y-70621169D01*
X131395188Y-70621172D01*
X131176493Y-70739524D01*
X130980257Y-70892261D01*
X130811833Y-71075217D01*
X130675826Y-71283393D01*
X130575936Y-71511118D01*
X130514892Y-71752175D01*
X130514890Y-71752187D01*
X130494357Y-71999994D01*
X127005643Y-71999994D01*
X127005572Y-71999144D01*
X126985109Y-71752187D01*
X126985107Y-71752175D01*
X126924063Y-71511118D01*
X126824173Y-71283393D01*
X126688166Y-71075217D01*
X126658005Y-71042454D01*
X126519744Y-70892262D01*
X126323509Y-70739526D01*
X126323507Y-70739525D01*
X126323506Y-70739524D01*
X126104811Y-70621172D01*
X126104802Y-70621169D01*
X125869616Y-70540429D01*
X125624335Y-70499500D01*
X125375665Y-70499500D01*
X125130383Y-70540429D01*
X124895197Y-70621169D01*
X124895188Y-70621172D01*
X124676493Y-70739524D01*
X124480257Y-70892261D01*
X124311833Y-71075217D01*
X124175826Y-71283393D01*
X124075936Y-71511118D01*
X124014892Y-71752175D01*
X124014890Y-71752187D01*
X123994357Y-71999994D01*
X122035601Y-71999994D01*
X122023903Y-71956337D01*
X121924035Y-71742171D01*
X121883136Y-71683760D01*
X121788494Y-71548597D01*
X121621402Y-71381506D01*
X121621395Y-71381501D01*
X121617243Y-71378594D01*
X121552743Y-71333430D01*
X121427834Y-71245967D01*
X121427830Y-71245965D01*
X121427828Y-71245964D01*
X121213663Y-71146097D01*
X121213659Y-71146096D01*
X121213655Y-71146094D01*
X120985413Y-71084938D01*
X120985403Y-71084936D01*
X120750001Y-71064341D01*
X120749999Y-71064341D01*
X120514596Y-71084936D01*
X120514586Y-71084938D01*
X120286344Y-71146094D01*
X120286335Y-71146098D01*
X120072171Y-71245964D01*
X120072169Y-71245965D01*
X119878597Y-71381505D01*
X119711505Y-71548597D01*
X119575965Y-71742169D01*
X119575964Y-71742171D01*
X119476098Y-71956335D01*
X119476094Y-71956344D01*
X119414938Y-72184586D01*
X119414936Y-72184596D01*
X119394341Y-72419999D01*
X116783533Y-72419999D01*
X116817246Y-72316243D01*
X116850500Y-72106287D01*
X116850500Y-71893713D01*
X116817246Y-71683757D01*
X116751557Y-71481588D01*
X116655051Y-71292184D01*
X116655049Y-71292181D01*
X116655048Y-71292179D01*
X116530109Y-71120213D01*
X116379786Y-70969890D01*
X116207820Y-70844951D01*
X116018414Y-70748444D01*
X116018413Y-70748443D01*
X116018412Y-70748443D01*
X115816243Y-70682754D01*
X115816241Y-70682753D01*
X115816240Y-70682753D01*
X115654957Y-70657208D01*
X115606287Y-70649500D01*
X115393713Y-70649500D01*
X115345042Y-70657208D01*
X115183760Y-70682753D01*
X114981585Y-70748444D01*
X114792179Y-70844951D01*
X114620213Y-70969890D01*
X114469890Y-71120213D01*
X114344951Y-71292179D01*
X114248444Y-71481585D01*
X114182753Y-71683760D01*
X114149500Y-71893713D01*
X112501490Y-71893713D01*
X112502274Y-71837729D01*
X112503041Y-71825610D01*
X112539277Y-71504005D01*
X112541606Y-71490299D01*
X112577410Y-71333430D01*
X112613427Y-71175627D01*
X112617272Y-71162279D01*
X112723883Y-70857601D01*
X112729196Y-70844777D01*
X112869243Y-70553965D01*
X112875959Y-70541813D01*
X113047693Y-70268501D01*
X113055723Y-70257183D01*
X113223589Y-70046686D01*
X113280778Y-70006547D01*
X113320536Y-70000000D01*
X172929464Y-70000000D01*
X172996503Y-70019685D01*
G37*
%TD.AperFunction*%
%TD*%
M02*
