%TF.GenerationSoftware,KiCad,Pcbnew,8.0.2-8.0.2-0~ubuntu22.04.1*%
%TF.CreationDate,2024-05-17T14:26:03+02:00*%
%TF.ProjectId,qclock,71636c6f-636b-42e6-9b69-6361645f7063,rev?*%
%TF.SameCoordinates,Original*%
%TF.FileFunction,Copper,L1,Top*%
%TF.FilePolarity,Positive*%
%FSLAX46Y46*%
G04 Gerber Fmt 4.6, Leading zero omitted, Abs format (unit mm)*
G04 Created by KiCad (PCBNEW 8.0.2-8.0.2-0~ubuntu22.04.1) date 2024-05-17 14:26:03*
%MOMM*%
%LPD*%
G01*
G04 APERTURE LIST*
G04 Aperture macros list*
%AMRoundRect*
0 Rectangle with rounded corners*
0 $1 Rounding radius*
0 $2 $3 $4 $5 $6 $7 $8 $9 X,Y pos of 4 corners*
0 Add a 4 corners polygon primitive as box body*
4,1,4,$2,$3,$4,$5,$6,$7,$8,$9,$2,$3,0*
0 Add four circle primitives for the rounded corners*
1,1,$1+$1,$2,$3*
1,1,$1+$1,$4,$5*
1,1,$1+$1,$6,$7*
1,1,$1+$1,$8,$9*
0 Add four rect primitives between the rounded corners*
20,1,$1+$1,$2,$3,$4,$5,0*
20,1,$1+$1,$4,$5,$6,$7,0*
20,1,$1+$1,$6,$7,$8,$9,0*
20,1,$1+$1,$8,$9,$2,$3,0*%
G04 Aperture macros list end*
%TA.AperFunction,SMDPad,CuDef*%
%ADD10R,2.160000X1.120000*%
%TD*%
%TA.AperFunction,SMDPad,CuDef*%
%ADD11R,1.400000X1.200000*%
%TD*%
%TA.AperFunction,SMDPad,CuDef*%
%ADD12RoundRect,0.218750X0.256250X-0.218750X0.256250X0.218750X-0.256250X0.218750X-0.256250X-0.218750X0*%
%TD*%
%TA.AperFunction,SMDPad,CuDef*%
%ADD13RoundRect,0.375000X-0.375000X0.625000X-0.375000X-0.625000X0.375000X-0.625000X0.375000X0.625000X0*%
%TD*%
%TA.AperFunction,SMDPad,CuDef*%
%ADD14RoundRect,0.500000X-1.400000X0.500000X-1.400000X-0.500000X1.400000X-0.500000X1.400000X0.500000X0*%
%TD*%
%TA.AperFunction,SMDPad,CuDef*%
%ADD15RoundRect,0.135000X-0.135000X-0.185000X0.135000X-0.185000X0.135000X0.185000X-0.135000X0.185000X0*%
%TD*%
%TA.AperFunction,SMDPad,CuDef*%
%ADD16RoundRect,0.140000X0.170000X-0.140000X0.170000X0.140000X-0.170000X0.140000X-0.170000X-0.140000X0*%
%TD*%
%TA.AperFunction,SMDPad,CuDef*%
%ADD17RoundRect,0.135000X0.185000X-0.135000X0.185000X0.135000X-0.185000X0.135000X-0.185000X-0.135000X0*%
%TD*%
%TA.AperFunction,SMDPad,CuDef*%
%ADD18RoundRect,0.140000X-0.170000X0.140000X-0.170000X-0.140000X0.170000X-0.140000X0.170000X0.140000X0*%
%TD*%
%TA.AperFunction,SMDPad,CuDef*%
%ADD19R,1.300000X0.450000*%
%TD*%
%TA.AperFunction,ComponentPad*%
%ADD20O,1.800000X1.150000*%
%TD*%
%TA.AperFunction,ComponentPad*%
%ADD21O,2.000000X1.450000*%
%TD*%
%TA.AperFunction,ComponentPad*%
%ADD22O,1.700000X1.700000*%
%TD*%
%TA.AperFunction,ComponentPad*%
%ADD23R,1.700000X1.700000*%
%TD*%
%TA.AperFunction,SMDPad,CuDef*%
%ADD24RoundRect,0.075000X-0.662500X-0.075000X0.662500X-0.075000X0.662500X0.075000X-0.662500X0.075000X0*%
%TD*%
%TA.AperFunction,SMDPad,CuDef*%
%ADD25RoundRect,0.075000X-0.075000X-0.662500X0.075000X-0.662500X0.075000X0.662500X-0.075000X0.662500X0*%
%TD*%
%TA.AperFunction,SMDPad,CuDef*%
%ADD26RoundRect,0.140000X0.140000X0.170000X-0.140000X0.170000X-0.140000X-0.170000X0.140000X-0.170000X0*%
%TD*%
%TA.AperFunction,SMDPad,CuDef*%
%ADD27RoundRect,0.135000X-0.185000X0.135000X-0.185000X-0.135000X0.185000X-0.135000X0.185000X0.135000X0*%
%TD*%
%TA.AperFunction,ComponentPad*%
%ADD28C,2.000000*%
%TD*%
%TA.AperFunction,SMDPad,CuDef*%
%ADD29RoundRect,0.147500X0.147500X0.172500X-0.147500X0.172500X-0.147500X-0.172500X0.147500X-0.172500X0*%
%TD*%
%TA.AperFunction,SMDPad,CuDef*%
%ADD30RoundRect,0.225000X-0.225000X-0.250000X0.225000X-0.250000X0.225000X0.250000X-0.225000X0.250000X0*%
%TD*%
%TA.AperFunction,SMDPad,CuDef*%
%ADD31RoundRect,0.250000X0.250000X0.475000X-0.250000X0.475000X-0.250000X-0.475000X0.250000X-0.475000X0*%
%TD*%
%TA.AperFunction,SMDPad,CuDef*%
%ADD32R,0.900000X1.500000*%
%TD*%
%TA.AperFunction,SMDPad,CuDef*%
%ADD33RoundRect,0.250000X0.475000X-0.250000X0.475000X0.250000X-0.475000X0.250000X-0.475000X-0.250000X0*%
%TD*%
%TA.AperFunction,SMDPad,CuDef*%
%ADD34RoundRect,0.140000X-0.140000X-0.170000X0.140000X-0.170000X0.140000X0.170000X-0.140000X0.170000X0*%
%TD*%
%TA.AperFunction,ViaPad*%
%ADD35C,0.700000*%
%TD*%
%TA.AperFunction,Conductor*%
%ADD36C,0.500000*%
%TD*%
%TA.AperFunction,Conductor*%
%ADD37C,0.300000*%
%TD*%
%TA.AperFunction,Conductor*%
%ADD38C,0.200000*%
%TD*%
G04 APERTURE END LIST*
D10*
%TO.P,SW1,1,A*%
%TO.N,GND*%
X148000000Y-72000000D03*
%TO.P,SW1,2,B*%
%TO.N,Net-(SW1-B)*%
X154730000Y-72000000D03*
%TD*%
D11*
%TO.P,Y1,1,1*%
%TO.N,/HSE_IN*%
X141100000Y-86150000D03*
%TO.P,Y1,2,2*%
%TO.N,GND*%
X138900000Y-86150000D03*
%TO.P,Y1,3,3*%
%TO.N,/HSE_OUT*%
X138900000Y-87850000D03*
%TO.P,Y1,4,4*%
%TO.N,GND*%
X141100000Y-87850000D03*
%TD*%
D12*
%TO.P,D1,1,K*%
%TO.N,Net-(D1-K)*%
X158000000Y-94537500D03*
%TO.P,D1,2,A*%
%TO.N,+3V3*%
X158000000Y-92962500D03*
%TD*%
D13*
%TO.P,U2,1,GND*%
%TO.N,GND*%
X165800000Y-94350000D03*
%TO.P,U2,2,VO*%
%TO.N,+3V3*%
X163500000Y-94350000D03*
D14*
X163500000Y-100650000D03*
D13*
%TO.P,U2,3,VI*%
%TO.N,VBUS*%
X161200000Y-94350000D03*
%TD*%
D15*
%TO.P,R1,1*%
%TO.N,/BOOT0*%
X155740000Y-79750000D03*
%TO.P,R1,2*%
%TO.N,Net-(SW1-B)*%
X156760000Y-79750000D03*
%TD*%
D16*
%TO.P,C3,1*%
%TO.N,+3V3*%
X145750000Y-83480000D03*
%TO.P,C3,2*%
%TO.N,GND*%
X145750000Y-82520000D03*
%TD*%
D17*
%TO.P,R5,1*%
%TO.N,/USB_D+*%
X160000000Y-86010000D03*
%TO.P,R5,2*%
%TO.N,+3V3*%
X160000000Y-84990000D03*
%TD*%
D18*
%TO.P,C6,1*%
%TO.N,/HSE_OUT*%
X144750000Y-87270000D03*
%TO.P,C6,2*%
%TO.N,GND*%
X144750000Y-88230000D03*
%TD*%
D16*
%TO.P,C1,1*%
%TO.N,/HSE_IN*%
X144750000Y-86210000D03*
%TO.P,C1,2*%
%TO.N,GND*%
X144750000Y-85250000D03*
%TD*%
D17*
%TO.P,R2,1*%
%TO.N,/BTN_H*%
X135000000Y-93510000D03*
%TO.P,R2,2*%
%TO.N,GND*%
X135000000Y-92490000D03*
%TD*%
D18*
%TO.P,C14,1*%
%TO.N,VBUS*%
X120350000Y-81840000D03*
%TO.P,C14,2*%
%TO.N,GND*%
X120350000Y-82800000D03*
%TD*%
D19*
%TO.P,J3,1,VBUS*%
%TO.N,VBUS*%
X168000000Y-87400000D03*
%TO.P,J3,2,D-*%
%TO.N,/USB_D-*%
X168000000Y-86750000D03*
%TO.P,J3,3,D+*%
%TO.N,/USB_D+*%
X168000000Y-86100000D03*
%TO.P,J3,4,ID*%
%TO.N,unconnected-(J3-ID-Pad4)*%
X168000000Y-85450000D03*
%TO.P,J3,5,GND*%
%TO.N,GND*%
X168000000Y-84800000D03*
D20*
%TO.P,J3,6,Shield*%
%TO.N,unconnected-(J3-Shield-Pad6)_0*%
X171850000Y-89975000D03*
D21*
%TO.N,unconnected-(J3-Shield-Pad6)*%
X168050000Y-89825000D03*
%TO.N,unconnected-(J3-Shield-Pad6)_2*%
X168050000Y-82375000D03*
D20*
%TO.N,unconnected-(J3-Shield-Pad6)_1*%
X171850000Y-82225000D03*
%TD*%
D22*
%TO.P,J1,4,Pin_4*%
%TO.N,GND*%
X137000000Y-72250000D03*
%TO.P,J1,3,Pin_3*%
%TO.N,/UART_RX*%
X139540000Y-72250000D03*
%TO.P,J1,2,Pin_2*%
%TO.N,/UART_TX*%
X142080000Y-72250000D03*
D23*
%TO.P,J1,1,Pin_1*%
%TO.N,+3V3*%
X144620000Y-72250000D03*
%TD*%
D24*
%TO.P,U1,1,VBAT*%
%TO.N,+3V3*%
X147337500Y-84750000D03*
%TO.P,U1,2,PC13*%
%TO.N,unconnected-(U1-PC13-Pad2)*%
X147337500Y-85250000D03*
%TO.P,U1,3,PC14*%
%TO.N,unconnected-(U1-PC14-Pad3)*%
X147337500Y-85750000D03*
%TO.P,U1,4,PC15*%
%TO.N,unconnected-(U1-PC15-Pad4)*%
X147337500Y-86250000D03*
%TO.P,U1,5,PD0*%
%TO.N,/HSE_IN*%
X147337500Y-86750000D03*
%TO.P,U1,6,PD1*%
%TO.N,/HSE_OUT*%
X147337500Y-87250000D03*
%TO.P,U1,7,NRST*%
%TO.N,/NRST*%
X147337500Y-87750000D03*
%TO.P,U1,8,VSSA*%
%TO.N,GND*%
X147337500Y-88250000D03*
%TO.P,U1,9,VDDA*%
%TO.N,+3.3VA*%
X147337500Y-88750000D03*
%TO.P,U1,10,PA0*%
%TO.N,unconnected-(U1-PA0-Pad10)*%
X147337500Y-89250000D03*
%TO.P,U1,11,PA1*%
%TO.N,unconnected-(U1-PA1-Pad11)*%
X147337500Y-89750000D03*
%TO.P,U1,12,PA2*%
%TO.N,unconnected-(U1-PA2-Pad12)*%
X147337500Y-90250000D03*
D25*
%TO.P,U1,13,PA3*%
%TO.N,unconnected-(U1-PA3-Pad13)*%
X148750000Y-91662500D03*
%TO.P,U1,14,PA4*%
%TO.N,unconnected-(U1-PA4-Pad14)*%
X149250000Y-91662500D03*
%TO.P,U1,15,PA5*%
%TO.N,unconnected-(U1-PA5-Pad15)*%
X149750000Y-91662500D03*
%TO.P,U1,16,PA6*%
%TO.N,unconnected-(U1-PA6-Pad16)*%
X150250000Y-91662500D03*
%TO.P,U1,17,PA7*%
%TO.N,unconnected-(U1-PA7-Pad17)*%
X150750000Y-91662500D03*
%TO.P,U1,18,PB0*%
%TO.N,unconnected-(U1-PB0-Pad18)*%
X151250000Y-91662500D03*
%TO.P,U1,19,PB1*%
%TO.N,/LED*%
X151750000Y-91662500D03*
%TO.P,U1,20,PB2*%
%TO.N,unconnected-(U1-PB2-Pad20)*%
X152250000Y-91662500D03*
%TO.P,U1,21,PB10*%
%TO.N,/I2C2_SCL*%
X152750000Y-91662500D03*
%TO.P,U1,22,PB11*%
%TO.N,/I2C2_SDA*%
X153250000Y-91662500D03*
%TO.P,U1,23,VSS*%
%TO.N,GND*%
X153750000Y-91662500D03*
%TO.P,U1,24,VDD*%
%TO.N,+3V3*%
X154250000Y-91662500D03*
D24*
%TO.P,U1,25,PB12*%
%TO.N,unconnected-(U1-PB12-Pad25)*%
X155662500Y-90250000D03*
%TO.P,U1,26,PB13*%
%TO.N,/BTN_SM*%
X155662500Y-89750000D03*
%TO.P,U1,27,PB14*%
%TO.N,/BTN_M*%
X155662500Y-89250000D03*
%TO.P,U1,28,PB15*%
%TO.N,/BTN_H*%
X155662500Y-88750000D03*
%TO.P,U1,29,PA8*%
%TO.N,unconnected-(U1-PA8-Pad29)*%
X155662500Y-88250000D03*
%TO.P,U1,30,PA9*%
%TO.N,unconnected-(U1-PA9-Pad30)*%
X155662500Y-87750000D03*
%TO.P,U1,31,PA10*%
%TO.N,unconnected-(U1-PA10-Pad31)*%
X155662500Y-87250000D03*
%TO.P,U1,32,PA11*%
%TO.N,/USB_D-*%
X155662500Y-86750000D03*
%TO.P,U1,33,PA12*%
%TO.N,/USB_D+*%
X155662500Y-86250000D03*
%TO.P,U1,34,PA13*%
%TO.N,/SWDIO*%
X155662500Y-85750000D03*
%TO.P,U1,35,VSS*%
%TO.N,GND*%
X155662500Y-85250000D03*
%TO.P,U1,36,VDD*%
%TO.N,+3V3*%
X155662500Y-84750000D03*
D25*
%TO.P,U1,37,PA14*%
%TO.N,/SWCLK*%
X154250000Y-83337500D03*
%TO.P,U1,38,PA15*%
%TO.N,unconnected-(U1-PA15-Pad38)*%
X153750000Y-83337500D03*
%TO.P,U1,39,PB3*%
%TO.N,unconnected-(U1-PB3-Pad39)*%
X153250000Y-83337500D03*
%TO.P,U1,40,PB4*%
%TO.N,unconnected-(U1-PB4-Pad40)*%
X152750000Y-83337500D03*
%TO.P,U1,41,PB5*%
%TO.N,unconnected-(U1-PB5-Pad41)*%
X152250000Y-83337500D03*
%TO.P,U1,42,PB6*%
%TO.N,/UART_TX*%
X151750000Y-83337500D03*
%TO.P,U1,43,PB7*%
%TO.N,/UART_RX*%
X151250000Y-83337500D03*
%TO.P,U1,44,BOOT0*%
%TO.N,/BOOT0*%
X150750000Y-83337500D03*
%TO.P,U1,45,PB8*%
%TO.N,unconnected-(U1-PB8-Pad45)*%
X150250000Y-83337500D03*
%TO.P,U1,46,PB9*%
%TO.N,unconnected-(U1-PB9-Pad46)*%
X149750000Y-83337500D03*
%TO.P,U1,47,VSS*%
%TO.N,GND*%
X149250000Y-83337500D03*
%TO.P,U1,48,VDD*%
%TO.N,+3V3*%
X148750000Y-83337500D03*
%TD*%
D26*
%TO.P,C7,1*%
%TO.N,+3V3*%
X154480000Y-94000000D03*
%TO.P,C7,2*%
%TO.N,GND*%
X153520000Y-94000000D03*
%TD*%
D15*
%TO.P,R7,1*%
%TO.N,/I2C2_SCL*%
X147490000Y-97250000D03*
%TO.P,R7,2*%
%TO.N,+3V3*%
X148510000Y-97250000D03*
%TD*%
D16*
%TO.P,C9,1*%
%TO.N,+3.3VA*%
X144750000Y-90230000D03*
%TO.P,C9,2*%
%TO.N,GND*%
X144750000Y-89270000D03*
%TD*%
D27*
%TO.P,R4,1*%
%TO.N,/BTN_SM*%
X134500000Y-74490000D03*
%TO.P,R4,2*%
%TO.N,GND*%
X134500000Y-75510000D03*
%TD*%
D23*
%TO.P,J5,1,Pin_1*%
%TO.N,GND*%
X120750000Y-77500000D03*
D22*
%TO.P,J5,2,Pin_2*%
%TO.N,Net-(D2-DOUT)*%
X120750000Y-74960000D03*
%TO.P,J5,3,Pin_3*%
%TO.N,VBUS*%
X120750000Y-72420000D03*
%TD*%
D28*
%TO.P,SW4,1,1*%
%TO.N,/BTN_SM*%
X125500000Y-72000000D03*
X132000000Y-72000000D03*
%TO.P,SW4,2,2*%
%TO.N,+3V3*%
X125500000Y-76500000D03*
X132000000Y-76500000D03*
%TD*%
D18*
%TO.P,C10,1*%
%TO.N,+3.3VA*%
X142500000Y-93000000D03*
%TO.P,C10,2*%
%TO.N,GND*%
X142500000Y-93960000D03*
%TD*%
D28*
%TO.P,SW2,1,1*%
%TO.N,/BTN_H*%
X132000000Y-93500000D03*
X125500000Y-93500000D03*
%TO.P,SW2,2,2*%
%TO.N,+3V3*%
X132000000Y-89000000D03*
X125500000Y-89000000D03*
%TD*%
D26*
%TO.P,C11,1*%
%TO.N,+3V3*%
X145230000Y-94250000D03*
%TO.P,C11,2*%
%TO.N,GND*%
X144270000Y-94250000D03*
%TD*%
D28*
%TO.P,SW3,1,1*%
%TO.N,/BTN_M*%
X125500000Y-80500000D03*
X132000000Y-80500000D03*
%TO.P,SW3,2,2*%
%TO.N,+3V3*%
X125500000Y-85000000D03*
X132000000Y-85000000D03*
%TD*%
D18*
%TO.P,C16,1*%
%TO.N,VBUS*%
X120350000Y-91340000D03*
%TO.P,C16,2*%
%TO.N,GND*%
X120350000Y-92300000D03*
%TD*%
D29*
%TO.P,FB1,1*%
%TO.N,+3V3*%
X145235000Y-93000000D03*
%TO.P,FB1,2*%
%TO.N,+3.3VA*%
X144265000Y-93000000D03*
%TD*%
D18*
%TO.P,C4,1*%
%TO.N,+3V3*%
X158000000Y-84520000D03*
%TO.P,C4,2*%
%TO.N,GND*%
X158000000Y-85480000D03*
%TD*%
D30*
%TO.P,C2,1*%
%TO.N,+3V3*%
X148225000Y-79250000D03*
%TO.P,C2,2*%
%TO.N,GND*%
X149775000Y-79250000D03*
%TD*%
D23*
%TO.P,J4,1,Pin_1*%
%TO.N,+3V3*%
X145460000Y-100250000D03*
D22*
%TO.P,J4,2,Pin_2*%
%TO.N,/I2C2_SCL*%
X148000000Y-100250000D03*
%TO.P,J4,3,Pin_3*%
%TO.N,/I2C2_SDA*%
X150540000Y-100250000D03*
%TO.P,J4,4,Pin_4*%
%TO.N,GND*%
X153080000Y-100250000D03*
%TD*%
D27*
%TO.P,R3,1*%
%TO.N,/BTN_M*%
X134750000Y-80240000D03*
%TO.P,R3,2*%
%TO.N,GND*%
X134750000Y-81260000D03*
%TD*%
D31*
%TO.P,C12,1*%
%TO.N,VBUS*%
X162450000Y-91000000D03*
%TO.P,C12,2*%
%TO.N,GND*%
X160550000Y-91000000D03*
%TD*%
D22*
%TO.P,J2,4,Pin_4*%
%TO.N,GND*%
X158460000Y-72250000D03*
%TO.P,J2,3,Pin_3*%
%TO.N,/SWCLK*%
X161000000Y-72250000D03*
%TO.P,J2,2,Pin_2*%
%TO.N,/SWDIO*%
X163540000Y-72250000D03*
D23*
%TO.P,J2,1,Pin_1*%
%TO.N,+3V3*%
X166080000Y-72250000D03*
%TD*%
D32*
%TO.P,D2,1,VDD*%
%TO.N,VBUS*%
X117150000Y-79800000D03*
%TO.P,D2,2,DOUT*%
%TO.N,Net-(D2-DOUT)*%
X113850000Y-79800000D03*
%TO.P,D2,3,VSS*%
%TO.N,GND*%
X113850000Y-84700000D03*
%TO.P,D2,4,DIN*%
%TO.N,Net-(D2-DIN)*%
X117150000Y-84700000D03*
%TD*%
D17*
%TO.P,R6,1*%
%TO.N,GND*%
X158000000Y-96760000D03*
%TO.P,R6,2*%
%TO.N,Net-(D1-K)*%
X158000000Y-95740000D03*
%TD*%
D33*
%TO.P,C13,1*%
%TO.N,+3V3*%
X158250000Y-100700000D03*
%TO.P,C13,2*%
%TO.N,GND*%
X158250000Y-98800000D03*
%TD*%
D34*
%TO.P,C8,1*%
%TO.N,+3V3*%
X148520000Y-81000000D03*
%TO.P,C8,2*%
%TO.N,GND*%
X149480000Y-81000000D03*
%TD*%
D16*
%TO.P,C5,1*%
%TO.N,/NRST*%
X147000000Y-82230000D03*
%TO.P,C5,2*%
%TO.N,GND*%
X147000000Y-81270000D03*
%TD*%
D32*
%TO.P,D4,1,VDD*%
%TO.N,VBUS*%
X117150000Y-89550000D03*
%TO.P,D4,2,DOUT*%
%TO.N,Net-(D2-DIN)*%
X113850000Y-89550000D03*
%TO.P,D4,3,VSS*%
%TO.N,GND*%
X113850000Y-94450000D03*
%TO.P,D4,4,DIN*%
%TO.N,/LED*%
X117150000Y-94450000D03*
%TD*%
D15*
%TO.P,R8,1*%
%TO.N,+3V3*%
X149990000Y-97250000D03*
%TO.P,R8,2*%
%TO.N,/I2C2_SDA*%
X151010000Y-97250000D03*
%TD*%
D35*
%TO.N,GND*%
X138000000Y-74500000D03*
X135500000Y-75500000D03*
X148690686Y-74809314D03*
X141500000Y-90000000D03*
X137000000Y-86000000D03*
X158990000Y-96760000D03*
X143770000Y-88230000D03*
X156800000Y-98800000D03*
X159000000Y-91000000D03*
X120285355Y-93464645D03*
X123250000Y-77500000D03*
X142750000Y-94750000D03*
X166050000Y-84800000D03*
X134750000Y-82250000D03*
X152500000Y-94250000D03*
X143750000Y-89250000D03*
X143500000Y-95000000D03*
X134250000Y-91750000D03*
X150500000Y-80950000D03*
X167650000Y-94350000D03*
X144250000Y-84250000D03*
X113750000Y-86500000D03*
X144714644Y-81785356D03*
X147000000Y-80250000D03*
X155500000Y-100250000D03*
X157000000Y-74750000D03*
X151000000Y-79200000D03*
X158980000Y-85480000D03*
X149750000Y-84750000D03*
X120350000Y-83650000D03*
X114250000Y-96500000D03*
X149000000Y-88250000D03*
%TO.N,+3V3*%
X146250000Y-98000000D03*
X164500000Y-92000000D03*
X138750000Y-99250000D03*
X149250000Y-98000000D03*
X164500000Y-84750000D03*
X139500000Y-76000000D03*
X137500000Y-93750000D03*
X149500000Y-76000000D03*
X165750000Y-76000000D03*
%TO.N,VBUS*%
X131250000Y-100500000D03*
X131250000Y-98250000D03*
%TO.N,Net-(D2-DOUT)*%
X116250000Y-76500000D03*
X118000000Y-76500000D03*
%TO.N,/LED*%
X143250000Y-91500000D03*
X145250000Y-91500000D03*
%TO.N,/UART_TX*%
X153250000Y-81750000D03*
X143000000Y-79250000D03*
%TO.N,/UART_RX*%
X153000000Y-80750000D03*
X140500000Y-80000000D03*
%TO.N,/BOOT0*%
X155250000Y-80500000D03*
X152000000Y-79000000D03*
%TO.N,/BTN_H*%
X158000000Y-88250000D03*
X138050000Y-96250000D03*
%TO.N,/BTN_M*%
X138750000Y-78250000D03*
X160250000Y-87750000D03*
%TO.N,/BTN_SM*%
X137250000Y-75250000D03*
X161250000Y-87750000D03*
%TD*%
D36*
%TO.N,+3V3*%
X144620000Y-72250000D02*
X148370000Y-76000000D01*
X148370000Y-76000000D02*
X149500000Y-76000000D01*
D37*
%TO.N,/UART_TX*%
X143000000Y-79250000D02*
X143000000Y-73170000D01*
X143000000Y-73170000D02*
X142080000Y-72250000D01*
%TO.N,/UART_RX*%
X140420000Y-79420000D02*
X140420000Y-73130000D01*
X140420000Y-73130000D02*
X139540000Y-72250000D01*
D36*
%TO.N,GND*%
X137000000Y-73500000D02*
X138000000Y-74500000D01*
X137000000Y-72250000D02*
X137000000Y-73500000D01*
D37*
%TO.N,/BTN_SM*%
X134500000Y-74490000D02*
X136490000Y-74490000D01*
X136490000Y-74490000D02*
X137250000Y-75250000D01*
D36*
%TO.N,GND*%
X135490000Y-75510000D02*
X135500000Y-75500000D01*
X134500000Y-75510000D02*
X135490000Y-75510000D01*
D37*
%TO.N,/BTN_SM*%
X133500000Y-73500000D02*
X133510000Y-73500000D01*
X133510000Y-73500000D02*
X134500000Y-74490000D01*
D36*
%TO.N,GND*%
X148000000Y-74118628D02*
X148690686Y-74809314D01*
X148000000Y-72000000D02*
X148000000Y-74118628D01*
D37*
%TO.N,Net-(SW1-B)*%
X157000000Y-71000000D02*
X156000000Y-72000000D01*
X156000000Y-72000000D02*
X154730000Y-72000000D01*
%TO.N,/HSE_OUT*%
X143480000Y-87270000D02*
X142200000Y-88550000D01*
X138900000Y-88750000D02*
X138900000Y-87850000D01*
X142200000Y-88550000D02*
X142200000Y-90289950D01*
X142200000Y-90289950D02*
X141789950Y-90700000D01*
X141789950Y-90700000D02*
X140850000Y-90700000D01*
X140850000Y-90700000D02*
X138900000Y-88750000D01*
D36*
%TO.N,GND*%
X141100000Y-89600000D02*
X141500000Y-90000000D01*
X141100000Y-87850000D02*
X141100000Y-89600000D01*
X137150000Y-86150000D02*
X137000000Y-86000000D01*
X138900000Y-86150000D02*
X137150000Y-86150000D01*
X138900000Y-86100000D02*
X139000000Y-86000000D01*
D37*
%TO.N,/HSE_IN*%
X144750000Y-86210000D02*
X144210000Y-86210000D01*
X144210000Y-86210000D02*
X144150000Y-86150000D01*
X144150000Y-86150000D02*
X141100000Y-86150000D01*
X145290000Y-86750000D02*
X144750000Y-86210000D01*
X147337500Y-86750000D02*
X145290000Y-86750000D01*
D36*
%TO.N,GND*%
X144750000Y-84750000D02*
X144250000Y-84250000D01*
X120350000Y-92300000D02*
X120350000Y-93400000D01*
D37*
X134990000Y-92490000D02*
X134250000Y-91750000D01*
D36*
X158460000Y-73290000D02*
X157000000Y-74750000D01*
X165800000Y-94350000D02*
X167650000Y-94350000D01*
D37*
X157000000Y-85500000D02*
X157020000Y-85480000D01*
D36*
X144250000Y-94250000D02*
X143500000Y-95000000D01*
X145520000Y-82520000D02*
X144750000Y-81750000D01*
D37*
X149775000Y-79250000D02*
X151000000Y-79250000D01*
X144750000Y-88230000D02*
X143770000Y-88230000D01*
X143750000Y-88250000D02*
X143770000Y-88230000D01*
D36*
X113850000Y-86400000D02*
X113750000Y-86500000D01*
D37*
X149250000Y-83337500D02*
X149250000Y-84250000D01*
D36*
X120350000Y-93400000D02*
X120285355Y-93464645D01*
D37*
X149500000Y-81020000D02*
X149480000Y-81000000D01*
D36*
X120750000Y-77500000D02*
X123250000Y-77500000D01*
D37*
X153520000Y-94000000D02*
X152750000Y-94000000D01*
D36*
X145750000Y-82520000D02*
X145520000Y-82520000D01*
D37*
X147337500Y-88250000D02*
X144770000Y-88250000D01*
X147000000Y-81270000D02*
X147000000Y-80250000D01*
X145770000Y-88250000D02*
X144750000Y-89270000D01*
X149480000Y-81000000D02*
X150500000Y-81000000D01*
X149250000Y-82496880D02*
X149500000Y-82246880D01*
D36*
X158250000Y-98800000D02*
X156800000Y-98800000D01*
D37*
X147337500Y-88250000D02*
X149000000Y-88250000D01*
D36*
X156750000Y-98750000D02*
X156800000Y-98800000D01*
X142500000Y-94500000D02*
X142750000Y-94750000D01*
X113850000Y-84700000D02*
X113850000Y-86400000D01*
X144750000Y-85250000D02*
X144750000Y-84750000D01*
X114000000Y-96250000D02*
X114250000Y-96500000D01*
D37*
X158000000Y-85480000D02*
X158980000Y-85480000D01*
D36*
X144270000Y-94250000D02*
X144250000Y-94250000D01*
X134750000Y-81260000D02*
X134750000Y-82250000D01*
D37*
X153750000Y-93770000D02*
X153520000Y-94000000D01*
D36*
X120350000Y-82800000D02*
X120350000Y-83650000D01*
X158000000Y-96760000D02*
X158990000Y-96760000D01*
D37*
X166000000Y-84750000D02*
X166050000Y-84800000D01*
D36*
X144750000Y-81750000D02*
X144714644Y-81785356D01*
D37*
X149500000Y-82246880D02*
X149500000Y-81020000D01*
X149480000Y-81000000D02*
X149480000Y-80770000D01*
D36*
X153080000Y-100250000D02*
X155500000Y-100250000D01*
X160550000Y-91000000D02*
X160500000Y-91000000D01*
X158990000Y-96760000D02*
X159000000Y-96750000D01*
D37*
X149775000Y-80475000D02*
X149775000Y-79250000D01*
X144750000Y-89270000D02*
X143770000Y-89270000D01*
X149250000Y-84250000D02*
X149750000Y-84750000D01*
D36*
X142500000Y-93960000D02*
X142500000Y-94500000D01*
D37*
X168000000Y-84800000D02*
X166050000Y-84800000D01*
X150500000Y-81000000D02*
X150500000Y-80950000D01*
X149250000Y-83337500D02*
X149250000Y-82496880D01*
X151000000Y-79250000D02*
X151000000Y-79200000D01*
X147337500Y-88250000D02*
X145770000Y-88250000D01*
X153750000Y-91662500D02*
X153750000Y-93770000D01*
X143770000Y-89270000D02*
X143750000Y-89250000D01*
X152750000Y-94000000D02*
X152500000Y-94250000D01*
X149480000Y-80770000D02*
X149775000Y-80475000D01*
D36*
X113850000Y-94450000D02*
X113850000Y-96100000D01*
D37*
X135000000Y-92490000D02*
X134990000Y-92490000D01*
X157020000Y-85480000D02*
X158000000Y-85480000D01*
D36*
X113850000Y-96100000D02*
X114000000Y-96250000D01*
D37*
X159000000Y-85500000D02*
X158980000Y-85480000D01*
X155662500Y-85250000D02*
X156750000Y-85250000D01*
D36*
X160500000Y-91000000D02*
X159000000Y-91000000D01*
D37*
X156750000Y-85250000D02*
X157000000Y-85500000D01*
X144770000Y-88250000D02*
X144750000Y-88230000D01*
D36*
X158460000Y-72250000D02*
X158460000Y-73290000D01*
%TO.N,+3V3*%
X149990000Y-97250000D02*
X149250000Y-97250000D01*
X158000000Y-93265000D02*
X157680001Y-93265000D01*
X140500000Y-100250000D02*
X145460000Y-100250000D01*
X164500000Y-84750000D02*
X160240000Y-84750000D01*
D37*
X148750000Y-82250000D02*
X148500000Y-82000000D01*
D36*
X146760000Y-101550000D02*
X145460000Y-100250000D01*
X125500000Y-89000000D02*
X132000000Y-89000000D01*
X139000000Y-76500000D02*
X139500000Y-76000000D01*
X157400000Y-101550000D02*
X146760000Y-101550000D01*
X145460000Y-100250000D02*
X145460000Y-98790000D01*
D37*
X156750000Y-84750000D02*
X157000000Y-84500000D01*
X154250000Y-91662500D02*
X154250000Y-93000000D01*
X154250000Y-93000000D02*
X154500000Y-93250000D01*
D36*
X165750000Y-83500000D02*
X164500000Y-84750000D01*
X157450000Y-100700000D02*
X158250000Y-100700000D01*
X156000000Y-99250000D02*
X157450000Y-100700000D01*
D37*
X148520000Y-81980000D02*
X148520000Y-81000000D01*
X154500000Y-93250000D02*
X154480000Y-93270000D01*
D36*
X166080000Y-72250000D02*
X166080000Y-75670000D01*
X132000000Y-85000000D02*
X132000000Y-89000000D01*
X132000000Y-89000000D02*
X132750000Y-89000000D01*
X138750000Y-99250000D02*
X139500000Y-99250000D01*
X164500000Y-93350000D02*
X163500000Y-94350000D01*
X149250000Y-97250000D02*
X148510000Y-97250000D01*
X125500000Y-85000000D02*
X132000000Y-85000000D01*
D37*
X148225000Y-76525000D02*
X148750000Y-76000000D01*
D36*
X132000000Y-76500000D02*
X125500000Y-76500000D01*
X145460000Y-100250000D02*
X145460000Y-94480000D01*
X149250000Y-98000000D02*
X149250000Y-97250000D01*
X139500000Y-99250000D02*
X140500000Y-100250000D01*
D37*
X154480000Y-93270000D02*
X154480000Y-94000000D01*
X148225000Y-79250000D02*
X148225000Y-76525000D01*
D36*
X165750000Y-76000000D02*
X165750000Y-83500000D01*
D37*
X155054999Y-94000000D02*
X156000000Y-94945001D01*
D36*
X132750000Y-89000000D02*
X137500000Y-93750000D01*
X145720000Y-83450000D02*
X145750000Y-83480000D01*
D37*
X147337500Y-84750000D02*
X147020000Y-84750000D01*
D36*
X165750000Y-72580000D02*
X166080000Y-72250000D01*
D37*
X145235000Y-93000000D02*
X145235000Y-94245000D01*
D36*
X132000000Y-76500000D02*
X139000000Y-76500000D01*
X166080000Y-75670000D02*
X165750000Y-76000000D01*
X139500000Y-76000000D02*
X139550000Y-76050000D01*
X145460000Y-98790000D02*
X146250000Y-98000000D01*
X160240000Y-84750000D02*
X160000000Y-84990000D01*
D37*
X159530000Y-84520000D02*
X160000000Y-84990000D01*
D36*
X164500000Y-92000000D02*
X164500000Y-93350000D01*
X158250000Y-100700000D02*
X157400000Y-101550000D01*
X139550000Y-76050000D02*
X139550000Y-80300000D01*
D37*
X145235000Y-94245000D02*
X145230000Y-94250000D01*
X148225000Y-80705000D02*
X148520000Y-81000000D01*
X157000000Y-84500000D02*
X157020000Y-84520000D01*
D36*
X157680001Y-93265000D02*
X156000000Y-94945001D01*
D37*
X147020000Y-84750000D02*
X145750000Y-83480000D01*
D36*
X139550000Y-80300000D02*
X142700000Y-83450000D01*
X145460000Y-94480000D02*
X145230000Y-94250000D01*
D37*
X155662500Y-84750000D02*
X156750000Y-84750000D01*
X154480000Y-94000000D02*
X155054999Y-94000000D01*
X158000000Y-84520000D02*
X159530000Y-84520000D01*
X148750000Y-83337500D02*
X148750000Y-82250000D01*
D36*
X148750000Y-76000000D02*
X149500000Y-76000000D01*
X142700000Y-83450000D02*
X145720000Y-83450000D01*
X156000000Y-94945001D02*
X156000000Y-99250000D01*
D37*
X148500000Y-82000000D02*
X148520000Y-81980000D01*
X157020000Y-84520000D02*
X158000000Y-84520000D01*
X148225000Y-79250000D02*
X148225000Y-80705000D01*
%TO.N,/NRST*%
X147000000Y-83071880D02*
X148425000Y-84496880D01*
X147000000Y-82230000D02*
X147000000Y-83071880D01*
X148425000Y-87503120D02*
X148178120Y-87750000D01*
X148425000Y-84496880D02*
X148425000Y-87503120D01*
X148178120Y-87750000D02*
X147337500Y-87750000D01*
%TO.N,/HSE_OUT*%
X144750000Y-87270000D02*
X143480000Y-87270000D01*
X144770000Y-87250000D02*
X144750000Y-87270000D01*
X147337500Y-87250000D02*
X144770000Y-87250000D01*
%TO.N,+3.3VA*%
X144750000Y-90230000D02*
X144265000Y-90715000D01*
X147337500Y-88750000D02*
X146496880Y-88750000D01*
X146496880Y-88750000D02*
X145016880Y-90230000D01*
X144265000Y-93000000D02*
X142500000Y-93000000D01*
X145016880Y-90230000D02*
X144750000Y-90230000D01*
X144265000Y-90715000D02*
X144265000Y-93000000D01*
D36*
%TO.N,VBUS*%
X118310000Y-79800000D02*
X119005000Y-80495000D01*
X123939339Y-98250000D02*
X131250000Y-98250000D01*
D37*
X164950000Y-88500000D02*
X162450000Y-91000000D01*
D36*
X119250000Y-91340000D02*
X119250000Y-93560661D01*
X165250000Y-89000000D02*
X165250000Y-88800000D01*
X119005000Y-80495000D02*
X120350000Y-81840000D01*
X167250000Y-102250000D02*
X168450000Y-101050000D01*
X168450000Y-92200000D02*
X165250000Y-89000000D01*
X117150000Y-76020000D02*
X120750000Y-72420000D01*
X165250000Y-88800000D02*
X164950000Y-88500000D01*
X133000000Y-102250000D02*
X167250000Y-102250000D01*
X117150000Y-79800000D02*
X117150000Y-76020000D01*
X131250000Y-100500000D02*
X133000000Y-102250000D01*
X168450000Y-101050000D02*
X168450000Y-92200000D01*
X117150000Y-79800000D02*
X118310000Y-79800000D01*
D37*
X166050000Y-87400000D02*
X168000000Y-87400000D01*
D36*
X117150000Y-89550000D02*
X119005000Y-87695000D01*
D37*
X164950000Y-88500000D02*
X166050000Y-87400000D01*
D36*
X119250000Y-93560661D02*
X123939339Y-98250000D01*
X119250000Y-91340000D02*
X118940000Y-91340000D01*
X118940000Y-91340000D02*
X117150000Y-89550000D01*
X119005000Y-87695000D02*
X119005000Y-80495000D01*
X120350000Y-91340000D02*
X119250000Y-91340000D01*
D37*
%TO.N,Net-(D1-K)*%
X158000000Y-95740000D02*
X158000000Y-94235000D01*
%TO.N,Net-(D2-DOUT)*%
X116250000Y-76500000D02*
X113850000Y-78900000D01*
X113850000Y-78900000D02*
X113850000Y-79800000D01*
X120750000Y-74960000D02*
X119540000Y-74960000D01*
X119540000Y-74960000D02*
X118000000Y-76500000D01*
%TO.N,Net-(D2-DIN)*%
X117150000Y-86250000D02*
X113850000Y-89550000D01*
X117150000Y-84700000D02*
X117150000Y-86250000D01*
%TO.N,/LED*%
X138750000Y-91500000D02*
X138750000Y-97750000D01*
X151503120Y-90575000D02*
X148353120Y-90575000D01*
X121900000Y-99200000D02*
X136550000Y-99200000D01*
X151750000Y-91662500D02*
X151750000Y-90821880D01*
X138000000Y-97750000D02*
X136550000Y-99200000D01*
X147428120Y-91500000D02*
X145250000Y-91500000D01*
X117150000Y-94450000D02*
X121900000Y-99200000D01*
X151750000Y-90821880D02*
X151503120Y-90575000D01*
X138750000Y-97750000D02*
X138000000Y-97750000D01*
X148353120Y-90575000D02*
X147428120Y-91500000D01*
X143250000Y-91500000D02*
X138750000Y-91500000D01*
%TO.N,/UART_TX*%
X151750000Y-82496880D02*
X152496880Y-81750000D01*
X152496880Y-81750000D02*
X153250000Y-81750000D01*
X151750000Y-83337500D02*
X151750000Y-82496880D01*
%TO.N,/UART_RX*%
X151250000Y-83337500D02*
X151250000Y-83000000D01*
X151250000Y-82289774D02*
X151769887Y-81769887D01*
X151250000Y-83337500D02*
X151250000Y-82289774D01*
X140500000Y-79500000D02*
X140420000Y-79420000D01*
X151769887Y-81769887D02*
X152789774Y-80750000D01*
X152789774Y-80750000D02*
X153000000Y-80750000D01*
X140500000Y-80000000D02*
X140500000Y-79500000D01*
%TO.N,/SWCLK*%
X154250000Y-79000000D02*
X161000000Y-72250000D01*
X154250000Y-83337500D02*
X154250000Y-79000000D01*
%TO.N,/SWDIO*%
X154575000Y-85503120D02*
X154821880Y-85750000D01*
X163540000Y-75388120D02*
X154575000Y-84353120D01*
X154821880Y-85750000D02*
X155662500Y-85750000D01*
X163540000Y-72250000D02*
X163540000Y-75388120D01*
X154575000Y-84353120D02*
X154575000Y-85503120D01*
D38*
%TO.N,/USB_D+*%
X166325000Y-86200000D02*
X166250000Y-86275000D01*
X167024999Y-86100000D02*
X166924999Y-86200000D01*
X156793751Y-86275000D02*
X166250000Y-86275000D01*
X166924999Y-86200000D02*
X166325000Y-86200000D01*
X168000000Y-86100000D02*
X167024999Y-86100000D01*
X156768751Y-86250000D02*
X156793751Y-86275000D01*
X155662500Y-86250000D02*
X156768751Y-86250000D01*
%TO.N,/USB_D-*%
X155662500Y-86750000D02*
X155712499Y-86700001D01*
X156768751Y-86750000D02*
X155662500Y-86750000D01*
X167024999Y-86750000D02*
X166924999Y-86650000D01*
X168000000Y-86750000D02*
X167024999Y-86750000D01*
X156793751Y-86725000D02*
X156768751Y-86750000D01*
X166429438Y-86725000D02*
X156793751Y-86725000D01*
X166504438Y-86650000D02*
X166429438Y-86725000D01*
X166924999Y-86650000D02*
X166504438Y-86650000D01*
D37*
%TO.N,/I2C2_SCL*%
X147490000Y-99740000D02*
X148000000Y-100250000D01*
X152750000Y-92503120D02*
X152253120Y-93000000D01*
X147490000Y-96510000D02*
X147490000Y-97250000D01*
X152253120Y-93000000D02*
X151000000Y-93000000D01*
X152750000Y-91662500D02*
X152750000Y-92503120D01*
X147490000Y-97250000D02*
X147490000Y-99740000D01*
X151000000Y-93000000D02*
X147490000Y-96510000D01*
%TO.N,/I2C2_SDA*%
X151010000Y-99780000D02*
X150540000Y-100250000D01*
X150540000Y-100040000D02*
X150500000Y-100000000D01*
X151010000Y-94490000D02*
X151010000Y-97250000D01*
X153250000Y-92710226D02*
X152460226Y-93500000D01*
X152460226Y-93500000D02*
X152000000Y-93500000D01*
X153250000Y-91662500D02*
X153250000Y-92710226D01*
X150540000Y-100250000D02*
X150540000Y-100040000D01*
X151010000Y-97250000D02*
X151010000Y-99780000D01*
X152000000Y-93500000D02*
X151010000Y-94490000D01*
%TO.N,Net-(SW1-B)*%
X162200000Y-71700000D02*
X161500000Y-71000000D01*
X161500000Y-71000000D02*
X157000000Y-71000000D01*
X162200000Y-74310000D02*
X162200000Y-71700000D01*
X156760000Y-79750000D02*
X162200000Y-74310000D01*
%TO.N,/BOOT0*%
X150750000Y-83337500D02*
X150750000Y-81919239D01*
X155250000Y-80240000D02*
X155740000Y-79750000D01*
X155250000Y-80500000D02*
X155250000Y-80240000D01*
X152000000Y-80669239D02*
X152000000Y-79000000D01*
X150750000Y-81919239D02*
X152000000Y-80669239D01*
%TO.N,/BTN_H*%
X132000000Y-93500000D02*
X125500000Y-93500000D01*
X132260000Y-93510000D02*
X135000000Y-93510000D01*
X132000000Y-93500000D02*
X132250000Y-93500000D01*
X137500000Y-95750000D02*
X137240000Y-95750000D01*
X157500000Y-88750000D02*
X158000000Y-88250000D01*
X138000000Y-96250000D02*
X137500000Y-95750000D01*
X155662500Y-88750000D02*
X157500000Y-88750000D01*
X132250000Y-93500000D02*
X132260000Y-93510000D01*
X138000000Y-96250000D02*
X138050000Y-96250000D01*
X137240000Y-95750000D02*
X135000000Y-93510000D01*
%TO.N,/BTN_M*%
X125500000Y-80500000D02*
X132000000Y-80500000D01*
X134490000Y-80500000D02*
X134750000Y-80240000D01*
X158750000Y-89250000D02*
X155662500Y-89250000D01*
X134750000Y-80240000D02*
X136760000Y-80240000D01*
X132000000Y-80500000D02*
X134490000Y-80500000D01*
X136760000Y-80240000D02*
X138750000Y-78250000D01*
X160250000Y-87750000D02*
X158750000Y-89250000D01*
%TO.N,/BTN_SM*%
X132000000Y-72000000D02*
X125500000Y-72000000D01*
X155662500Y-89750000D02*
X159250000Y-89750000D01*
X133500000Y-73500000D02*
X132000000Y-72000000D01*
X159250000Y-89750000D02*
X161250000Y-87750000D01*
%TD*%
%TA.AperFunction,Conductor*%
%TO.N,VBUS*%
G36*
X163943039Y-88519685D02*
G01*
X163988794Y-88572489D01*
X164000000Y-88624000D01*
X164000000Y-89626000D01*
X163980315Y-89693039D01*
X163927511Y-89738794D01*
X163876000Y-89750000D01*
X163500000Y-89750000D01*
X163500000Y-91876000D01*
X163480315Y-91943039D01*
X163427511Y-91988794D01*
X163376000Y-92000000D01*
X162000000Y-92000000D01*
X162000000Y-97376000D01*
X161980315Y-97443039D01*
X161927511Y-97488794D01*
X161876000Y-97500000D01*
X159624000Y-97500000D01*
X159556961Y-97480315D01*
X159511206Y-97427511D01*
X159500000Y-97376000D01*
X159500000Y-97204894D01*
X159519685Y-97137855D01*
X159521950Y-97134454D01*
X159570220Y-97064523D01*
X159626237Y-96916818D01*
X159645278Y-96760000D01*
X159626237Y-96603182D01*
X159570220Y-96455477D01*
X159521950Y-96385545D01*
X159500067Y-96319190D01*
X159500000Y-96315105D01*
X159500000Y-92374000D01*
X159519685Y-92306961D01*
X159572489Y-92261206D01*
X159624000Y-92250000D01*
X161250000Y-92250000D01*
X161750000Y-91750000D01*
X161750000Y-89808078D01*
X161769685Y-89741039D01*
X161794617Y-89712819D01*
X163215511Y-88528741D01*
X163279614Y-88500945D01*
X163294894Y-88500000D01*
X163876000Y-88500000D01*
X163943039Y-88519685D01*
G37*
%TD.AperFunction*%
%TD*%
%TA.AperFunction,Conductor*%
%TO.N,+3V3*%
G36*
X164443039Y-92519685D02*
G01*
X164488794Y-92572489D01*
X164500000Y-92624000D01*
X164500000Y-96500000D01*
X165955383Y-97712819D01*
X165994282Y-97770858D01*
X166000000Y-97808078D01*
X166000000Y-101575500D01*
X165980315Y-101642539D01*
X165927511Y-101688294D01*
X165876000Y-101699500D01*
X156874000Y-101699500D01*
X156806961Y-101679815D01*
X156761206Y-101627011D01*
X156750000Y-101575500D01*
X156750000Y-99874000D01*
X156769685Y-99806961D01*
X156822489Y-99761206D01*
X156874000Y-99750000D01*
X160999999Y-99750000D01*
X161000000Y-99750000D01*
X162500000Y-98000000D01*
X162500000Y-92624000D01*
X162519685Y-92556961D01*
X162572489Y-92511206D01*
X162624000Y-92500000D01*
X164376000Y-92500000D01*
X164443039Y-92519685D01*
G37*
%TD.AperFunction*%
%TD*%
M02*
