M48
; DRILL file {KiCad 8.0.2-8.0.2-0~ubuntu22.04.1} date 2024-05-18T13:23:49+0200
; FORMAT={-:-/ absolute / metric / decimal}
; #@! TF.CreationDate,2024-05-18T13:23:49+02:00
; #@! TF.GenerationSoftware,Kicad,Pcbnew,8.0.2-8.0.2-0~ubuntu22.04.1
; #@! TF.FileFunction,MixedPlating,1,2
FMAT,2
METRIC
; #@! TA.AperFunction,Plated,PTH,ViaDrill
T1C0.300
; #@! TA.AperFunction,Plated,PTH,ComponentDrill
T2C0.550
; #@! TA.AperFunction,Plated,PTH,ComponentDrill
T3C0.850
; #@! TA.AperFunction,Plated,PTH,ComponentDrill
T4C1.000
; #@! TA.AperFunction,NonPlated,NPTH,ComponentDrill
T5C0.800
; #@! TA.AperFunction,NonPlated,NPTH,ComponentDrill
T6C0.940
; #@! TA.AperFunction,NonPlated,NPTH,ComponentDrill
T7C2.200
%
G90
G05
T1
X113.75Y-86.5
X114.25Y-96.5
X116.25Y-76.5
X118.0Y-76.5
X120.285Y-93.465
X120.35Y-83.65
X131.25Y-98.25
X131.25Y-100.5
X134.25Y-91.75
X134.75Y-82.25
X135.5Y-75.5
X137.0Y-86.0
X137.25Y-75.25
X137.25Y-97.0
X138.0Y-74.5
X138.05Y-96.25
X138.75Y-78.25
X138.75Y-99.25
X139.5Y-76.0
X140.5Y-80.0
X141.5Y-90.0
X142.75Y-94.75
X143.0Y-79.25
X143.25Y-91.5
X143.5Y-95.0
X143.75Y-89.25
X143.77Y-88.23
X144.25Y-84.25
X144.715Y-81.785
X145.25Y-91.5
X146.25Y-98.0
X147.0Y-80.25
X149.0Y-88.25
X149.25Y-98.0
X149.5Y-76.0
X149.75Y-84.75
X150.5Y-80.95
X151.0Y-79.2
X152.0Y-79.0
X152.5Y-94.25
X153.0Y-80.75
X153.25Y-81.75
X155.25Y-80.5
X155.5Y-100.25
X156.8Y-98.8
X157.0Y-74.75
X158.0Y-88.25
X158.98Y-85.48
X158.99Y-96.76
X159.0Y-91.0
X160.25Y-87.75
X161.25Y-87.75
X164.5Y-84.75
X164.5Y-92.0
X165.75Y-76.0
X166.05Y-84.8
X167.65Y-94.35
T4
X120.75Y-72.42
X120.75Y-74.96
X120.75Y-77.5
X137.0Y-72.25
X139.54Y-72.25
X142.08Y-72.25
X144.62Y-72.25
X145.46Y-100.25
X148.0Y-100.25
X150.54Y-100.25
X153.08Y-100.25
X158.46Y-72.25
X161.0Y-72.25
X163.54Y-72.25
X166.08Y-72.25
T5
X169.1Y-83.6
X169.1Y-88.6
T6
X150.25Y-71.25
X153.25Y-71.25
T7
X115.5Y-72.0
X115.5Y-100.0
X170.75Y-72.0
X170.75Y-100.0
T2
G00X171.525Y-82.225
M15
G01X172.175Y-82.225
M16
G05
G00X171.525Y-89.975
M15
G01X172.175Y-89.975
M16
G05
T3
G00X167.775Y-82.375
M15
G01X168.325Y-82.375
M16
G05
G00X167.775Y-89.825
M15
G01X168.325Y-89.825
M16
G05
M30
