M48
; DRILL file {KiCad 8.0.2-8.0.2-0~ubuntu22.04.1} date 2024-05-18T22:12:10+0200
; FORMAT={-:-/ absolute / metric / decimal}
; #@! TF.CreationDate,2024-05-18T22:12:10+02:00
; #@! TF.GenerationSoftware,Kicad,Pcbnew,8.0.2-8.0.2-0~ubuntu22.04.1
; #@! TF.FileFunction,MixedPlating,1,2
FMAT,2
METRIC
; #@! TA.AperFunction,Plated,PTH,ViaDrill
T1C0.300
; #@! TA.AperFunction,Plated,PTH,ComponentDrill
T2C1.000
; #@! TA.AperFunction,NonPlated,NPTH,ComponentDrill
T3C2.200
; #@! TA.AperFunction,NonPlated,NPTH,ComponentDrill
T4C3.200
%
G90
G05
T1
X53.0Y-57.0
X60.838Y-99.438
X60.838Y-132.438
X60.838Y-165.438
X60.838Y-198.438
X60.838Y-231.438
X60.838Y-264.438
X60.838Y-297.438
X60.838Y-330.438
X60.838Y-363.438
X60.85Y-66.45
X65.988Y-94.488
X65.988Y-127.488
X65.988Y-160.488
X65.988Y-193.488
X65.988Y-226.488
X65.988Y-259.488
X65.988Y-292.488
X65.988Y-325.488
X65.988Y-358.488
X66.0Y-61.5
X68.238Y-100.238
X68.238Y-133.238
X68.238Y-166.238
X68.238Y-199.238
X68.238Y-232.238
X68.238Y-265.238
X68.238Y-298.238
X68.238Y-331.238
X68.238Y-364.238
X68.25Y-67.25
X90.733Y-99.488
X90.733Y-132.488
X90.733Y-165.488
X90.733Y-198.488
X90.733Y-231.488
X90.733Y-264.488
X90.733Y-297.488
X90.733Y-330.488
X90.733Y-363.488
X90.745Y-66.5
X95.883Y-94.538
X95.883Y-127.538
X95.883Y-160.538
X95.883Y-193.538
X95.883Y-226.538
X95.883Y-259.538
X95.883Y-292.538
X95.883Y-325.538
X95.883Y-358.538
X95.895Y-61.55
X98.133Y-100.288
X98.133Y-133.288
X98.133Y-166.288
X98.133Y-199.288
X98.133Y-232.288
X98.133Y-265.288
X98.133Y-298.288
X98.133Y-331.288
X98.133Y-364.288
X98.145Y-67.3
X120.733Y-99.488
X120.733Y-132.488
X120.733Y-165.488
X120.733Y-198.488
X120.733Y-231.488
X120.733Y-264.488
X120.733Y-297.488
X120.733Y-330.488
X120.733Y-363.488
X120.745Y-66.5
X125.883Y-94.538
X125.883Y-127.538
X125.883Y-160.538
X125.883Y-193.538
X125.883Y-226.538
X125.883Y-259.538
X125.883Y-292.538
X125.883Y-325.538
X125.883Y-358.538
X125.895Y-61.55
X128.133Y-100.288
X128.133Y-133.288
X128.133Y-166.288
X128.133Y-199.288
X128.133Y-232.288
X128.133Y-265.288
X128.133Y-298.288
X128.133Y-331.288
X128.133Y-364.288
X128.145Y-67.3
X150.733Y-99.488
X150.733Y-132.488
X150.733Y-165.488
X150.733Y-198.488
X150.733Y-231.488
X150.733Y-264.488
X150.733Y-297.488
X150.733Y-330.488
X150.733Y-363.488
X150.745Y-66.5
X155.883Y-94.538
X155.883Y-127.538
X155.883Y-160.538
X155.883Y-193.538
X155.883Y-226.538
X155.883Y-259.538
X155.883Y-292.538
X155.883Y-325.538
X155.883Y-358.538
X155.895Y-61.55
X158.133Y-100.288
X158.133Y-133.288
X158.133Y-166.288
X158.133Y-199.288
X158.133Y-232.288
X158.133Y-265.288
X158.133Y-298.288
X158.133Y-331.288
X158.133Y-364.288
X158.145Y-67.3
X180.733Y-99.488
X180.733Y-132.488
X180.733Y-165.488
X180.733Y-198.488
X180.733Y-231.488
X180.733Y-264.488
X180.733Y-297.488
X180.733Y-330.488
X180.733Y-363.488
X180.745Y-66.5
X185.883Y-94.538
X185.883Y-127.538
X185.883Y-160.538
X185.883Y-193.538
X185.883Y-226.538
X185.883Y-259.538
X185.883Y-292.538
X185.883Y-325.538
X185.883Y-358.538
X185.895Y-61.55
X188.133Y-100.288
X188.133Y-133.288
X188.133Y-166.288
X188.133Y-199.288
X188.133Y-232.288
X188.133Y-265.288
X188.133Y-298.288
X188.133Y-331.288
X188.133Y-364.288
X188.145Y-67.3
X210.733Y-99.488
X210.733Y-132.488
X210.733Y-165.488
X210.733Y-198.488
X210.733Y-231.488
X210.733Y-264.488
X210.733Y-297.488
X210.733Y-330.488
X210.733Y-363.488
X210.745Y-66.5
X215.883Y-94.538
X215.883Y-127.538
X215.883Y-160.538
X215.883Y-193.538
X215.883Y-226.538
X215.883Y-259.538
X215.883Y-292.538
X215.883Y-325.538
X215.883Y-358.538
X215.895Y-61.55
X218.133Y-100.288
X218.133Y-133.288
X218.133Y-166.288
X218.133Y-199.288
X218.133Y-232.288
X218.133Y-265.288
X218.133Y-298.288
X218.133Y-331.288
X218.133Y-364.288
X218.145Y-67.3
X240.733Y-99.488
X240.733Y-132.488
X240.733Y-165.488
X240.733Y-198.488
X240.733Y-231.488
X240.733Y-264.488
X240.733Y-297.488
X240.733Y-330.488
X240.733Y-363.488
X240.745Y-66.5
X245.883Y-94.538
X245.883Y-127.538
X245.883Y-160.538
X245.883Y-193.538
X245.883Y-226.538
X245.883Y-259.538
X245.883Y-292.538
X245.883Y-325.538
X245.883Y-358.538
X245.895Y-61.55
X248.133Y-100.288
X248.133Y-133.288
X248.133Y-166.288
X248.133Y-199.288
X248.133Y-232.288
X248.133Y-265.288
X248.133Y-298.288
X248.133Y-331.288
X248.133Y-364.288
X248.145Y-67.3
X270.733Y-99.488
X270.733Y-132.488
X270.733Y-165.488
X270.733Y-198.488
X270.733Y-231.488
X270.733Y-264.488
X270.733Y-297.488
X270.733Y-330.488
X270.733Y-363.488
X270.745Y-66.5
X275.883Y-94.538
X275.883Y-127.538
X275.883Y-160.538
X275.883Y-193.538
X275.883Y-226.538
X275.883Y-259.538
X275.883Y-292.538
X275.883Y-325.538
X275.883Y-358.538
X275.895Y-61.55
X278.133Y-100.288
X278.133Y-133.288
X278.133Y-166.288
X278.133Y-199.288
X278.133Y-232.288
X278.133Y-265.288
X278.133Y-298.288
X278.133Y-331.288
X278.133Y-364.288
X278.145Y-67.3
X300.733Y-99.488
X300.733Y-132.488
X300.733Y-165.488
X300.733Y-198.488
X300.733Y-231.488
X300.733Y-264.488
X300.733Y-297.488
X300.733Y-330.488
X300.733Y-363.488
X300.745Y-66.5
X305.883Y-94.538
X305.883Y-127.538
X305.883Y-160.538
X305.883Y-193.538
X305.883Y-226.538
X305.883Y-259.538
X305.883Y-292.538
X305.883Y-325.538
X305.883Y-358.538
X305.895Y-61.55
X308.133Y-100.288
X308.133Y-133.288
X308.133Y-166.288
X308.133Y-199.288
X308.133Y-232.288
X308.133Y-265.288
X308.133Y-298.288
X308.133Y-331.288
X308.133Y-364.288
X308.145Y-67.3
X330.733Y-99.488
X330.733Y-132.488
X330.733Y-165.488
X330.733Y-198.488
X330.733Y-231.488
X330.733Y-264.488
X330.733Y-297.488
X330.733Y-330.488
X330.733Y-363.488
X330.745Y-66.5
X335.883Y-94.538
X335.883Y-127.538
X335.883Y-160.538
X335.883Y-193.538
X335.883Y-226.538
X335.883Y-259.538
X335.883Y-292.538
X335.883Y-325.538
X335.883Y-358.538
X335.895Y-61.55
X338.133Y-100.288
X338.133Y-133.288
X338.133Y-166.288
X338.133Y-199.288
X338.133Y-232.288
X338.133Y-265.288
X338.133Y-298.288
X338.133Y-331.288
X338.133Y-364.288
X338.145Y-67.3
X360.733Y-99.488
X360.733Y-132.488
X360.733Y-165.488
X360.733Y-198.488
X360.733Y-231.488
X360.733Y-264.488
X360.733Y-297.488
X360.733Y-330.488
X360.733Y-363.488
X360.745Y-66.5
X365.883Y-94.538
X365.883Y-127.538
X365.883Y-160.538
X365.883Y-193.538
X365.883Y-226.538
X365.883Y-259.538
X365.883Y-292.538
X365.883Y-325.538
X365.883Y-358.538
X365.895Y-61.55
X368.133Y-100.288
X368.133Y-133.288
X368.133Y-166.288
X368.133Y-199.288
X368.133Y-232.288
X368.133Y-265.288
X368.133Y-298.288
X368.133Y-331.288
X368.133Y-364.288
X368.145Y-67.3
T2
X51.96Y-53.0
X54.5Y-53.0
X57.04Y-53.0
T3
X173.5Y-53.0
X173.5Y-108.25
X201.5Y-53.0
X201.5Y-108.25
T4
X32.0Y-32.0
X32.0Y-393.0
X393.0Y-32.0
X393.0Y-393.0
M30
