G04 #@! TF.GenerationSoftware,KiCad,Pcbnew,8.0.2-8.0.2-0~ubuntu22.04.1*
G04 #@! TF.CreationDate,2024-05-18T22:12:29+02:00*
G04 #@! TF.ProjectId,qclock,71636c6f-636b-42e6-9b69-6361645f7063,rev?*
G04 #@! TF.SameCoordinates,Original*
G04 #@! TF.FileFunction,Copper,L2,Bot*
G04 #@! TF.FilePolarity,Positive*
%FSLAX46Y46*%
G04 Gerber Fmt 4.6, Leading zero omitted, Abs format (unit mm)*
G04 Created by KiCad (PCBNEW 8.0.2-8.0.2-0~ubuntu22.04.1) date 2024-05-18 22:12:29*
%MOMM*%
%LPD*%
G01*
G04 APERTURE LIST*
G04 #@! TA.AperFunction,ComponentPad*
%ADD10R,1.700000X1.700000*%
G04 #@! TD*
G04 #@! TA.AperFunction,ComponentPad*
%ADD11O,1.700000X1.700000*%
G04 #@! TD*
G04 #@! TA.AperFunction,ViaPad*
%ADD12C,0.700000*%
G04 #@! TD*
G04 #@! TA.AperFunction,Conductor*
%ADD13C,0.500000*%
G04 #@! TD*
G04 APERTURE END LIST*
D10*
X51960000Y-53000000D03*
D11*
X54500000Y-53000000D03*
X57040000Y-53000000D03*
D12*
X98133375Y-364288375D03*
X335883375Y-160538375D03*
X125883375Y-259538375D03*
X125883375Y-226538375D03*
X68238375Y-232238375D03*
X95883375Y-127538375D03*
X95883375Y-226538375D03*
X188145000Y-67300000D03*
X368133375Y-364288375D03*
X365883375Y-127538375D03*
X65988375Y-226488375D03*
X155883375Y-292538375D03*
X305883375Y-226538375D03*
X308133375Y-232288375D03*
X338133375Y-232288375D03*
X68238375Y-265238375D03*
X158133375Y-364288375D03*
X245895000Y-61550000D03*
X248133375Y-133288375D03*
X95883375Y-94538375D03*
X185883375Y-259538375D03*
X155883375Y-160538375D03*
X95883375Y-259538375D03*
X248133375Y-166288375D03*
X158133375Y-166288375D03*
X98133375Y-232288375D03*
X125895000Y-61550000D03*
X155883375Y-358538375D03*
X245883375Y-226538375D03*
X215895000Y-61550000D03*
X155883375Y-193538375D03*
X98133375Y-265288375D03*
X248133375Y-298288375D03*
X245883375Y-325538375D03*
X308133375Y-298288375D03*
X365883375Y-160538375D03*
X245883375Y-292538375D03*
X125883375Y-292538375D03*
X155883375Y-94538375D03*
X128133375Y-100288375D03*
X308133375Y-364288375D03*
X158133375Y-199288375D03*
X365883375Y-226538375D03*
X98133375Y-166288375D03*
X95895000Y-61550000D03*
X188133375Y-298288375D03*
X125883375Y-358538375D03*
X218133375Y-199288375D03*
X338133375Y-100288375D03*
X368145000Y-67300000D03*
X65988375Y-259488375D03*
X68238375Y-133238375D03*
X185883375Y-94538375D03*
X218133375Y-100288375D03*
X338133375Y-364288375D03*
X155883375Y-325538375D03*
X275883375Y-127538375D03*
X68238375Y-199238375D03*
X218133375Y-364288375D03*
X248133375Y-232288375D03*
X128145000Y-67300000D03*
X248145000Y-67300000D03*
X308133375Y-199288375D03*
X248133375Y-199288375D03*
X218133375Y-298288375D03*
X218133375Y-166288375D03*
X308133375Y-265288375D03*
X215883375Y-127538375D03*
X65988375Y-193488375D03*
X185883375Y-325538375D03*
X215883375Y-325538375D03*
X128133375Y-232288375D03*
X275883375Y-325538375D03*
X308145000Y-67300000D03*
X158133375Y-265288375D03*
X365883375Y-325538375D03*
X338145000Y-67300000D03*
X98133375Y-298288375D03*
X308133375Y-166288375D03*
X278133375Y-364288375D03*
X95883375Y-193538375D03*
X305883375Y-292538375D03*
X275883375Y-193538375D03*
X65988375Y-358488375D03*
X95883375Y-160538375D03*
X68238375Y-331238375D03*
X218133375Y-265288375D03*
X98133375Y-100288375D03*
X65988375Y-160488375D03*
X128133375Y-298288375D03*
X338133375Y-298288375D03*
X245883375Y-259538375D03*
X215883375Y-193538375D03*
X278133375Y-331288375D03*
X188133375Y-166288375D03*
X248133375Y-100288375D03*
X305883375Y-358538375D03*
X335883375Y-259538375D03*
X275883375Y-160538375D03*
X188133375Y-364288375D03*
X188133375Y-331288375D03*
X188133375Y-133288375D03*
X185883375Y-358538375D03*
X305883375Y-94538375D03*
X155883375Y-259538375D03*
X215883375Y-259538375D03*
X275883375Y-259538375D03*
X68238375Y-364238375D03*
X218133375Y-232288375D03*
X188133375Y-199288375D03*
X128133375Y-265288375D03*
X368133375Y-298288375D03*
X275895000Y-61550000D03*
X278145000Y-67300000D03*
X368133375Y-331288375D03*
X368133375Y-265288375D03*
X158133375Y-298288375D03*
X158133375Y-100288375D03*
X128133375Y-364288375D03*
X245883375Y-193538375D03*
X308133375Y-133288375D03*
X128133375Y-166288375D03*
X185883375Y-226538375D03*
X65988375Y-127488375D03*
X278133375Y-298288375D03*
X215883375Y-160538375D03*
X218133375Y-133288375D03*
X155895000Y-61550000D03*
X68238375Y-166238375D03*
X275883375Y-358538375D03*
X128133375Y-199288375D03*
X95883375Y-358538375D03*
X158133375Y-133288375D03*
X305883375Y-193538375D03*
X365883375Y-259538375D03*
X368133375Y-166288375D03*
X245883375Y-127538375D03*
X125883375Y-127538375D03*
X338133375Y-199288375D03*
X65988375Y-292488375D03*
X305883375Y-325538375D03*
X185883375Y-292538375D03*
X98133375Y-331288375D03*
X338133375Y-331288375D03*
X65988375Y-325488375D03*
X365883375Y-94538375D03*
X248133375Y-331288375D03*
X275883375Y-94538375D03*
X305883375Y-259538375D03*
X338133375Y-166288375D03*
X278133375Y-100288375D03*
X278133375Y-232288375D03*
X158133375Y-331288375D03*
X248133375Y-265288375D03*
X278133375Y-199288375D03*
X125883375Y-193538375D03*
X188133375Y-100288375D03*
X245883375Y-94538375D03*
X215883375Y-94538375D03*
X128133375Y-133288375D03*
X275883375Y-226538375D03*
X278133375Y-265288375D03*
X335883375Y-226538375D03*
X188133375Y-265288375D03*
X185883375Y-193538375D03*
X365883375Y-292538375D03*
X245883375Y-160538375D03*
X68238375Y-100238375D03*
X278133375Y-133288375D03*
X95883375Y-292538375D03*
X335883375Y-358538375D03*
X335883375Y-292538375D03*
X335895000Y-61550000D03*
X248133375Y-364288375D03*
X218133375Y-331288375D03*
X278133375Y-166288375D03*
X365883375Y-193538375D03*
X155883375Y-226538375D03*
X188133375Y-232288375D03*
X125883375Y-160538375D03*
X338133375Y-265288375D03*
X305883375Y-127538375D03*
X128133375Y-331288375D03*
X98133375Y-199288375D03*
X305895000Y-61550000D03*
X338133375Y-133288375D03*
X185883375Y-127538375D03*
X368133375Y-232288375D03*
X335883375Y-193538375D03*
X98133375Y-133288375D03*
X185883375Y-160538375D03*
X68238375Y-298238375D03*
X125883375Y-325538375D03*
X95883375Y-325538375D03*
X65988375Y-94488375D03*
X308133375Y-331288375D03*
X275883375Y-292538375D03*
X158133375Y-232288375D03*
X335883375Y-94538375D03*
X53000000Y-57000000D03*
X365883375Y-358538375D03*
X218145000Y-67300000D03*
X368133375Y-100288375D03*
X66000000Y-61500000D03*
X335883375Y-325538375D03*
X308133375Y-100288375D03*
X305883375Y-160538375D03*
X215883375Y-358538375D03*
X158145000Y-67300000D03*
X185895000Y-61550000D03*
X215883375Y-226538375D03*
X335883375Y-127538375D03*
X155883375Y-127538375D03*
X125883375Y-94538375D03*
X368133375Y-133288375D03*
X245883375Y-358538375D03*
X365895000Y-61550000D03*
X68250000Y-67250000D03*
X98145000Y-67300000D03*
X368133375Y-199288375D03*
X215883375Y-292538375D03*
X150733375Y-165488375D03*
X360733375Y-165488375D03*
X240733375Y-132488375D03*
X360733375Y-99488375D03*
X240733375Y-330488375D03*
X180733375Y-165488375D03*
X120733375Y-264488375D03*
X90733375Y-297488375D03*
X330733375Y-198488375D03*
X150733375Y-330488375D03*
X330733375Y-264488375D03*
X360733375Y-363488375D03*
X300733375Y-297488375D03*
X360733375Y-264488375D03*
X240733375Y-363488375D03*
X60850000Y-66450000D03*
X240733375Y-99488375D03*
X330733375Y-231488375D03*
X60838375Y-264438375D03*
X180733375Y-297488375D03*
X150745000Y-66500000D03*
X90733375Y-231488375D03*
X300733375Y-264488375D03*
X90733375Y-330488375D03*
X210733375Y-363488375D03*
X90733375Y-363488375D03*
X300733375Y-198488375D03*
X150733375Y-198488375D03*
X270733375Y-330488375D03*
X90733375Y-165488375D03*
X150733375Y-297488375D03*
X90733375Y-264488375D03*
X90733375Y-198488375D03*
X240733375Y-264488375D03*
X360733375Y-297488375D03*
X180733375Y-264488375D03*
X270733375Y-231488375D03*
X300733375Y-99488375D03*
X180733375Y-330488375D03*
X90733375Y-99488375D03*
X150733375Y-231488375D03*
X150733375Y-99488375D03*
X270733375Y-198488375D03*
X210733375Y-330488375D03*
X300733375Y-165488375D03*
X60838375Y-99438375D03*
X120733375Y-165488375D03*
X240745000Y-66500000D03*
X150733375Y-264488375D03*
X180733375Y-99488375D03*
X180733375Y-231488375D03*
X330733375Y-165488375D03*
X120733375Y-231488375D03*
X300733375Y-231488375D03*
X360733375Y-132488375D03*
X60838375Y-165438375D03*
X300733375Y-132488375D03*
X270733375Y-297488375D03*
X270733375Y-132488375D03*
X60838375Y-132438375D03*
X330733375Y-363488375D03*
X240733375Y-297488375D03*
X210733375Y-99488375D03*
X240733375Y-231488375D03*
X240733375Y-165488375D03*
X60838375Y-231438375D03*
X300745000Y-66500000D03*
X330733375Y-99488375D03*
X90733375Y-132488375D03*
X180733375Y-363488375D03*
X270733375Y-99488375D03*
X210733375Y-165488375D03*
X210745000Y-66500000D03*
X60838375Y-198438375D03*
X240733375Y-198488375D03*
X180733375Y-132488375D03*
X120733375Y-198488375D03*
X120733375Y-99488375D03*
X330745000Y-66500000D03*
X120733375Y-297488375D03*
X270733375Y-264488375D03*
X270745000Y-66500000D03*
X330733375Y-132488375D03*
X300733375Y-363488375D03*
X180733375Y-198488375D03*
X60838375Y-297438375D03*
X210733375Y-264488375D03*
X60838375Y-330438375D03*
X150733375Y-363488375D03*
X270733375Y-363488375D03*
X360733375Y-231488375D03*
X150733375Y-132488375D03*
X360745000Y-66500000D03*
X180745000Y-66500000D03*
X210733375Y-198488375D03*
X300733375Y-330488375D03*
X60838375Y-363438375D03*
X270733375Y-165488375D03*
X360733375Y-330488375D03*
X330733375Y-330488375D03*
X210733375Y-297488375D03*
X120733375Y-132488375D03*
X120733375Y-363488375D03*
X360733375Y-198488375D03*
X330733375Y-297488375D03*
X120733375Y-330488375D03*
X120745000Y-66500000D03*
X210733375Y-231488375D03*
X90745000Y-66500000D03*
X210733375Y-132488375D03*
D13*
X90733375Y-165488375D02*
X120733375Y-165488375D01*
X90733375Y-330488375D02*
X90683375Y-330438375D01*
X90733375Y-99488375D02*
X90683375Y-99438375D01*
X90733375Y-231488375D02*
X120733375Y-231488375D01*
X120733375Y-330488375D02*
X360733375Y-330488375D01*
X90745000Y-66500000D02*
X90695000Y-66450000D01*
X120733375Y-231488375D02*
X360733375Y-231488375D01*
X90733375Y-198488375D02*
X90683375Y-198438375D01*
X120745000Y-66500000D02*
X360745000Y-66500000D01*
X90733375Y-132488375D02*
X90683375Y-132438375D01*
X90683375Y-99438375D02*
X60838375Y-99438375D01*
X90683375Y-297438375D02*
X60838375Y-297438375D01*
X90733375Y-330488375D02*
X120733375Y-330488375D01*
X90733375Y-198488375D02*
X120733375Y-198488375D01*
X90683375Y-231438375D02*
X60838375Y-231438375D01*
X120733375Y-264488375D02*
X360733375Y-264488375D01*
X90745000Y-66500000D02*
X120745000Y-66500000D01*
X90683375Y-165438375D02*
X60838375Y-165438375D01*
X90683375Y-330438375D02*
X60838375Y-330438375D01*
X90733375Y-132488375D02*
X120733375Y-132488375D01*
X90683375Y-198438375D02*
X60838375Y-198438375D01*
X90733375Y-363488375D02*
X120733375Y-363488375D01*
X120733375Y-132488375D02*
X360733375Y-132488375D01*
X90733375Y-297488375D02*
X120733375Y-297488375D01*
X90733375Y-165488375D02*
X90683375Y-165438375D01*
X90683375Y-363438375D02*
X60838375Y-363438375D01*
X90683375Y-132438375D02*
X60838375Y-132438375D01*
X120733375Y-297488375D02*
X360733375Y-297488375D01*
X90733375Y-264488375D02*
X90683375Y-264438375D01*
X90733375Y-264488375D02*
X120733375Y-264488375D01*
X90733375Y-297488375D02*
X90683375Y-297438375D01*
X90733375Y-363488375D02*
X90683375Y-363438375D01*
X90695000Y-66450000D02*
X60850000Y-66450000D01*
X90683375Y-264438375D02*
X60838375Y-264438375D01*
X120733375Y-99488375D02*
X360733375Y-99488375D01*
X120733375Y-363488375D02*
X360733375Y-363488375D01*
X120733375Y-165488375D02*
X360733375Y-165488375D01*
X120733375Y-198488375D02*
X360733375Y-198488375D01*
X90733375Y-99488375D02*
X120733375Y-99488375D01*
X90733375Y-231488375D02*
X90683375Y-231438375D01*
G04 #@! TA.AperFunction,Conductor*
G36*
X374943039Y-50019685D02*
G01*
X374988794Y-50072489D01*
X375000000Y-50124000D01*
X375000000Y-374876000D01*
X374980315Y-374943039D01*
X374927511Y-374988794D01*
X374876000Y-375000000D01*
X50124000Y-375000000D01*
X50056961Y-374980315D01*
X50011206Y-374927511D01*
X50000000Y-374876000D01*
X50000000Y-363438375D01*
X59975146Y-363438375D01*
X59994010Y-363617851D01*
X60010255Y-363667850D01*
X60049776Y-363789482D01*
X60140008Y-363945768D01*
X60182071Y-363992483D01*
X60260756Y-364079874D01*
X60260759Y-364079876D01*
X60260762Y-364079879D01*
X60406760Y-364185953D01*
X60571617Y-364259353D01*
X60571623Y-364259355D01*
X60748143Y-364296875D01*
X60748144Y-364296875D01*
X60928606Y-364296875D01*
X60928607Y-364296875D01*
X61105127Y-364259355D01*
X61221382Y-364207595D01*
X61271817Y-364196875D01*
X90207683Y-364196875D01*
X90274722Y-364216560D01*
X90280567Y-364220555D01*
X90301760Y-364235953D01*
X90466617Y-364309353D01*
X90466623Y-364309355D01*
X90643143Y-364346875D01*
X90643144Y-364346875D01*
X90823606Y-364346875D01*
X90823607Y-364346875D01*
X91000127Y-364309355D01*
X91116382Y-364257595D01*
X91166817Y-364246875D01*
X120299933Y-364246875D01*
X120350368Y-364257595D01*
X120466623Y-364309355D01*
X120643143Y-364346875D01*
X120643144Y-364346875D01*
X120823606Y-364346875D01*
X120823607Y-364346875D01*
X121000127Y-364309355D01*
X121116382Y-364257595D01*
X121166817Y-364246875D01*
X150299933Y-364246875D01*
X150350368Y-364257595D01*
X150466623Y-364309355D01*
X150643143Y-364346875D01*
X150643144Y-364346875D01*
X150823606Y-364346875D01*
X150823607Y-364346875D01*
X151000127Y-364309355D01*
X151116382Y-364257595D01*
X151166817Y-364246875D01*
X180299933Y-364246875D01*
X180350368Y-364257595D01*
X180466623Y-364309355D01*
X180643143Y-364346875D01*
X180643144Y-364346875D01*
X180823606Y-364346875D01*
X180823607Y-364346875D01*
X181000127Y-364309355D01*
X181116382Y-364257595D01*
X181166817Y-364246875D01*
X210299933Y-364246875D01*
X210350368Y-364257595D01*
X210466623Y-364309355D01*
X210643143Y-364346875D01*
X210643144Y-364346875D01*
X210823606Y-364346875D01*
X210823607Y-364346875D01*
X211000127Y-364309355D01*
X211116382Y-364257595D01*
X211166817Y-364246875D01*
X240299933Y-364246875D01*
X240350368Y-364257595D01*
X240466623Y-364309355D01*
X240643143Y-364346875D01*
X240643144Y-364346875D01*
X240823606Y-364346875D01*
X240823607Y-364346875D01*
X241000127Y-364309355D01*
X241116382Y-364257595D01*
X241166817Y-364246875D01*
X270299933Y-364246875D01*
X270350368Y-364257595D01*
X270466623Y-364309355D01*
X270643143Y-364346875D01*
X270643144Y-364346875D01*
X270823606Y-364346875D01*
X270823607Y-364346875D01*
X271000127Y-364309355D01*
X271116382Y-364257595D01*
X271166817Y-364246875D01*
X300299933Y-364246875D01*
X300350368Y-364257595D01*
X300466623Y-364309355D01*
X300643143Y-364346875D01*
X300643144Y-364346875D01*
X300823606Y-364346875D01*
X300823607Y-364346875D01*
X301000127Y-364309355D01*
X301116382Y-364257595D01*
X301166817Y-364246875D01*
X330299933Y-364246875D01*
X330350368Y-364257595D01*
X330466623Y-364309355D01*
X330643143Y-364346875D01*
X330643144Y-364346875D01*
X330823606Y-364346875D01*
X330823607Y-364346875D01*
X331000127Y-364309355D01*
X331116382Y-364257595D01*
X331166817Y-364246875D01*
X360299933Y-364246875D01*
X360350368Y-364257595D01*
X360466623Y-364309355D01*
X360643143Y-364346875D01*
X360643144Y-364346875D01*
X360823606Y-364346875D01*
X360823607Y-364346875D01*
X361000127Y-364309355D01*
X361000129Y-364309353D01*
X361000132Y-364309353D01*
X361112428Y-364259355D01*
X361164990Y-364235953D01*
X361310988Y-364129879D01*
X361431742Y-363995768D01*
X361521974Y-363839482D01*
X361577740Y-363667850D01*
X361596604Y-363488375D01*
X361577740Y-363308900D01*
X361521974Y-363137268D01*
X361431742Y-362980982D01*
X361384446Y-362928454D01*
X361310993Y-362846875D01*
X361310990Y-362846873D01*
X361310989Y-362846872D01*
X361310988Y-362846871D01*
X361164990Y-362740797D01*
X361164989Y-362740796D01*
X361000132Y-362667396D01*
X361000126Y-362667394D01*
X360861126Y-362637849D01*
X360823607Y-362629875D01*
X360643143Y-362629875D01*
X360612200Y-362636451D01*
X360466623Y-362667394D01*
X360466617Y-362667396D01*
X360350371Y-362719154D01*
X360299935Y-362729875D01*
X331166817Y-362729875D01*
X331116382Y-362719155D01*
X331000128Y-362667395D01*
X331000126Y-362667394D01*
X330861126Y-362637849D01*
X330823607Y-362629875D01*
X330643143Y-362629875D01*
X330612200Y-362636451D01*
X330466623Y-362667394D01*
X330466617Y-362667396D01*
X330350371Y-362719154D01*
X330299935Y-362729875D01*
X301166817Y-362729875D01*
X301116382Y-362719155D01*
X301000128Y-362667395D01*
X301000126Y-362667394D01*
X300861126Y-362637849D01*
X300823607Y-362629875D01*
X300643143Y-362629875D01*
X300612200Y-362636451D01*
X300466623Y-362667394D01*
X300466617Y-362667396D01*
X300350371Y-362719154D01*
X300299935Y-362729875D01*
X271166817Y-362729875D01*
X271116382Y-362719155D01*
X271000128Y-362667395D01*
X271000126Y-362667394D01*
X270861126Y-362637849D01*
X270823607Y-362629875D01*
X270643143Y-362629875D01*
X270612200Y-362636451D01*
X270466623Y-362667394D01*
X270466617Y-362667396D01*
X270350371Y-362719154D01*
X270299935Y-362729875D01*
X241166817Y-362729875D01*
X241116382Y-362719155D01*
X241000128Y-362667395D01*
X241000126Y-362667394D01*
X240861126Y-362637849D01*
X240823607Y-362629875D01*
X240643143Y-362629875D01*
X240612200Y-362636451D01*
X240466623Y-362667394D01*
X240466617Y-362667396D01*
X240350371Y-362719154D01*
X240299935Y-362729875D01*
X211166817Y-362729875D01*
X211116382Y-362719155D01*
X211000128Y-362667395D01*
X211000126Y-362667394D01*
X210861126Y-362637849D01*
X210823607Y-362629875D01*
X210643143Y-362629875D01*
X210612200Y-362636451D01*
X210466623Y-362667394D01*
X210466617Y-362667396D01*
X210350371Y-362719154D01*
X210299935Y-362729875D01*
X181166817Y-362729875D01*
X181116382Y-362719155D01*
X181000128Y-362667395D01*
X181000126Y-362667394D01*
X180861126Y-362637849D01*
X180823607Y-362629875D01*
X180643143Y-362629875D01*
X180612200Y-362636451D01*
X180466623Y-362667394D01*
X180466617Y-362667396D01*
X180350371Y-362719154D01*
X180299935Y-362729875D01*
X151166817Y-362729875D01*
X151116382Y-362719155D01*
X151000128Y-362667395D01*
X151000126Y-362667394D01*
X150861126Y-362637849D01*
X150823607Y-362629875D01*
X150643143Y-362629875D01*
X150612200Y-362636451D01*
X150466623Y-362667394D01*
X150466617Y-362667396D01*
X150350371Y-362719154D01*
X150299935Y-362729875D01*
X121166817Y-362729875D01*
X121116382Y-362719155D01*
X121000128Y-362667395D01*
X121000126Y-362667394D01*
X120861126Y-362637849D01*
X120823607Y-362629875D01*
X120643143Y-362629875D01*
X120612200Y-362636451D01*
X120466623Y-362667394D01*
X120466617Y-362667396D01*
X120350371Y-362719154D01*
X120299935Y-362729875D01*
X91166817Y-362729875D01*
X91116382Y-362719155D01*
X91000128Y-362667395D01*
X91000126Y-362667394D01*
X90861126Y-362637849D01*
X90823607Y-362629875D01*
X90643143Y-362629875D01*
X90466625Y-362667394D01*
X90466622Y-362667394D01*
X90462672Y-362669154D01*
X90412235Y-362679875D01*
X61271817Y-362679875D01*
X61221382Y-362669155D01*
X61105128Y-362617395D01*
X61105126Y-362617394D01*
X60966126Y-362587849D01*
X60928607Y-362579875D01*
X60748143Y-362579875D01*
X60717200Y-362586451D01*
X60571623Y-362617394D01*
X60571617Y-362617396D01*
X60406761Y-362690796D01*
X60406756Y-362690799D01*
X60260763Y-362796869D01*
X60260756Y-362796875D01*
X60140007Y-362930983D01*
X60049775Y-363087269D01*
X59994010Y-363258898D01*
X59975146Y-363438375D01*
X50000000Y-363438375D01*
X50000000Y-330438375D01*
X59975146Y-330438375D01*
X59994010Y-330617851D01*
X60010255Y-330667850D01*
X60049776Y-330789482D01*
X60140008Y-330945768D01*
X60182071Y-330992483D01*
X60260756Y-331079874D01*
X60260759Y-331079876D01*
X60260762Y-331079879D01*
X60406760Y-331185953D01*
X60571617Y-331259353D01*
X60571623Y-331259355D01*
X60748143Y-331296875D01*
X60748144Y-331296875D01*
X60928606Y-331296875D01*
X60928607Y-331296875D01*
X61105127Y-331259355D01*
X61221382Y-331207595D01*
X61271817Y-331196875D01*
X90207683Y-331196875D01*
X90274722Y-331216560D01*
X90280567Y-331220555D01*
X90301760Y-331235953D01*
X90466617Y-331309353D01*
X90466623Y-331309355D01*
X90643143Y-331346875D01*
X90643144Y-331346875D01*
X90823606Y-331346875D01*
X90823607Y-331346875D01*
X91000127Y-331309355D01*
X91116382Y-331257595D01*
X91166817Y-331246875D01*
X120299933Y-331246875D01*
X120350368Y-331257595D01*
X120466623Y-331309355D01*
X120643143Y-331346875D01*
X120643144Y-331346875D01*
X120823606Y-331346875D01*
X120823607Y-331346875D01*
X121000127Y-331309355D01*
X121116382Y-331257595D01*
X121166817Y-331246875D01*
X150299933Y-331246875D01*
X150350368Y-331257595D01*
X150466623Y-331309355D01*
X150643143Y-331346875D01*
X150643144Y-331346875D01*
X150823606Y-331346875D01*
X150823607Y-331346875D01*
X151000127Y-331309355D01*
X151116382Y-331257595D01*
X151166817Y-331246875D01*
X180299933Y-331246875D01*
X180350368Y-331257595D01*
X180466623Y-331309355D01*
X180643143Y-331346875D01*
X180643144Y-331346875D01*
X180823606Y-331346875D01*
X180823607Y-331346875D01*
X181000127Y-331309355D01*
X181116382Y-331257595D01*
X181166817Y-331246875D01*
X210299933Y-331246875D01*
X210350368Y-331257595D01*
X210466623Y-331309355D01*
X210643143Y-331346875D01*
X210643144Y-331346875D01*
X210823606Y-331346875D01*
X210823607Y-331346875D01*
X211000127Y-331309355D01*
X211116382Y-331257595D01*
X211166817Y-331246875D01*
X240299933Y-331246875D01*
X240350368Y-331257595D01*
X240466623Y-331309355D01*
X240643143Y-331346875D01*
X240643144Y-331346875D01*
X240823606Y-331346875D01*
X240823607Y-331346875D01*
X241000127Y-331309355D01*
X241116382Y-331257595D01*
X241166817Y-331246875D01*
X270299933Y-331246875D01*
X270350368Y-331257595D01*
X270466623Y-331309355D01*
X270643143Y-331346875D01*
X270643144Y-331346875D01*
X270823606Y-331346875D01*
X270823607Y-331346875D01*
X271000127Y-331309355D01*
X271116382Y-331257595D01*
X271166817Y-331246875D01*
X300299933Y-331246875D01*
X300350368Y-331257595D01*
X300466623Y-331309355D01*
X300643143Y-331346875D01*
X300643144Y-331346875D01*
X300823606Y-331346875D01*
X300823607Y-331346875D01*
X301000127Y-331309355D01*
X301116382Y-331257595D01*
X301166817Y-331246875D01*
X330299933Y-331246875D01*
X330350368Y-331257595D01*
X330466623Y-331309355D01*
X330643143Y-331346875D01*
X330643144Y-331346875D01*
X330823606Y-331346875D01*
X330823607Y-331346875D01*
X331000127Y-331309355D01*
X331116382Y-331257595D01*
X331166817Y-331246875D01*
X360299933Y-331246875D01*
X360350368Y-331257595D01*
X360466623Y-331309355D01*
X360643143Y-331346875D01*
X360643144Y-331346875D01*
X360823606Y-331346875D01*
X360823607Y-331346875D01*
X361000127Y-331309355D01*
X361000129Y-331309353D01*
X361000132Y-331309353D01*
X361112428Y-331259355D01*
X361164990Y-331235953D01*
X361310988Y-331129879D01*
X361431742Y-330995768D01*
X361521974Y-330839482D01*
X361577740Y-330667850D01*
X361596604Y-330488375D01*
X361577740Y-330308900D01*
X361521974Y-330137268D01*
X361431742Y-329980982D01*
X361384446Y-329928454D01*
X361310993Y-329846875D01*
X361310990Y-329846873D01*
X361310989Y-329846872D01*
X361310988Y-329846871D01*
X361164990Y-329740797D01*
X361164989Y-329740796D01*
X361000132Y-329667396D01*
X361000126Y-329667394D01*
X360861126Y-329637849D01*
X360823607Y-329629875D01*
X360643143Y-329629875D01*
X360612200Y-329636451D01*
X360466623Y-329667394D01*
X360466617Y-329667396D01*
X360350371Y-329719154D01*
X360299935Y-329729875D01*
X331166817Y-329729875D01*
X331116382Y-329719155D01*
X331000128Y-329667395D01*
X331000126Y-329667394D01*
X330861126Y-329637849D01*
X330823607Y-329629875D01*
X330643143Y-329629875D01*
X330612200Y-329636451D01*
X330466623Y-329667394D01*
X330466617Y-329667396D01*
X330350371Y-329719154D01*
X330299935Y-329729875D01*
X301166817Y-329729875D01*
X301116382Y-329719155D01*
X301000128Y-329667395D01*
X301000126Y-329667394D01*
X300861126Y-329637849D01*
X300823607Y-329629875D01*
X300643143Y-329629875D01*
X300612200Y-329636451D01*
X300466623Y-329667394D01*
X300466617Y-329667396D01*
X300350371Y-329719154D01*
X300299935Y-329729875D01*
X271166817Y-329729875D01*
X271116382Y-329719155D01*
X271000128Y-329667395D01*
X271000126Y-329667394D01*
X270861126Y-329637849D01*
X270823607Y-329629875D01*
X270643143Y-329629875D01*
X270612200Y-329636451D01*
X270466623Y-329667394D01*
X270466617Y-329667396D01*
X270350371Y-329719154D01*
X270299935Y-329729875D01*
X241166817Y-329729875D01*
X241116382Y-329719155D01*
X241000128Y-329667395D01*
X241000126Y-329667394D01*
X240861126Y-329637849D01*
X240823607Y-329629875D01*
X240643143Y-329629875D01*
X240612200Y-329636451D01*
X240466623Y-329667394D01*
X240466617Y-329667396D01*
X240350371Y-329719154D01*
X240299935Y-329729875D01*
X211166817Y-329729875D01*
X211116382Y-329719155D01*
X211000128Y-329667395D01*
X211000126Y-329667394D01*
X210861126Y-329637849D01*
X210823607Y-329629875D01*
X210643143Y-329629875D01*
X210612200Y-329636451D01*
X210466623Y-329667394D01*
X210466617Y-329667396D01*
X210350371Y-329719154D01*
X210299935Y-329729875D01*
X181166817Y-329729875D01*
X181116382Y-329719155D01*
X181000128Y-329667395D01*
X181000126Y-329667394D01*
X180861126Y-329637849D01*
X180823607Y-329629875D01*
X180643143Y-329629875D01*
X180612200Y-329636451D01*
X180466623Y-329667394D01*
X180466617Y-329667396D01*
X180350371Y-329719154D01*
X180299935Y-329729875D01*
X151166817Y-329729875D01*
X151116382Y-329719155D01*
X151000128Y-329667395D01*
X151000126Y-329667394D01*
X150861126Y-329637849D01*
X150823607Y-329629875D01*
X150643143Y-329629875D01*
X150612200Y-329636451D01*
X150466623Y-329667394D01*
X150466617Y-329667396D01*
X150350371Y-329719154D01*
X150299935Y-329729875D01*
X121166817Y-329729875D01*
X121116382Y-329719155D01*
X121000128Y-329667395D01*
X121000126Y-329667394D01*
X120861126Y-329637849D01*
X120823607Y-329629875D01*
X120643143Y-329629875D01*
X120612200Y-329636451D01*
X120466623Y-329667394D01*
X120466617Y-329667396D01*
X120350371Y-329719154D01*
X120299935Y-329729875D01*
X91166817Y-329729875D01*
X91116382Y-329719155D01*
X91000128Y-329667395D01*
X91000126Y-329667394D01*
X90861126Y-329637849D01*
X90823607Y-329629875D01*
X90643143Y-329629875D01*
X90466625Y-329667394D01*
X90466622Y-329667394D01*
X90462672Y-329669154D01*
X90412235Y-329679875D01*
X61271817Y-329679875D01*
X61221382Y-329669155D01*
X61105128Y-329617395D01*
X61105126Y-329617394D01*
X60966126Y-329587849D01*
X60928607Y-329579875D01*
X60748143Y-329579875D01*
X60717200Y-329586451D01*
X60571623Y-329617394D01*
X60571617Y-329617396D01*
X60406761Y-329690796D01*
X60406756Y-329690799D01*
X60260763Y-329796869D01*
X60260756Y-329796875D01*
X60140007Y-329930983D01*
X60049775Y-330087269D01*
X59994010Y-330258898D01*
X59975146Y-330438375D01*
X50000000Y-330438375D01*
X50000000Y-297438375D01*
X59975146Y-297438375D01*
X59994010Y-297617851D01*
X60010255Y-297667850D01*
X60049776Y-297789482D01*
X60140008Y-297945768D01*
X60182071Y-297992483D01*
X60260756Y-298079874D01*
X60260759Y-298079876D01*
X60260762Y-298079879D01*
X60406760Y-298185953D01*
X60571617Y-298259353D01*
X60571623Y-298259355D01*
X60748143Y-298296875D01*
X60748144Y-298296875D01*
X60928606Y-298296875D01*
X60928607Y-298296875D01*
X61105127Y-298259355D01*
X61221382Y-298207595D01*
X61271817Y-298196875D01*
X90207683Y-298196875D01*
X90274722Y-298216560D01*
X90280567Y-298220555D01*
X90301760Y-298235953D01*
X90466617Y-298309353D01*
X90466623Y-298309355D01*
X90643143Y-298346875D01*
X90643144Y-298346875D01*
X90823606Y-298346875D01*
X90823607Y-298346875D01*
X91000127Y-298309355D01*
X91116382Y-298257595D01*
X91166817Y-298246875D01*
X120299933Y-298246875D01*
X120350368Y-298257595D01*
X120466623Y-298309355D01*
X120643143Y-298346875D01*
X120643144Y-298346875D01*
X120823606Y-298346875D01*
X120823607Y-298346875D01*
X121000127Y-298309355D01*
X121116382Y-298257595D01*
X121166817Y-298246875D01*
X150299933Y-298246875D01*
X150350368Y-298257595D01*
X150466623Y-298309355D01*
X150643143Y-298346875D01*
X150643144Y-298346875D01*
X150823606Y-298346875D01*
X150823607Y-298346875D01*
X151000127Y-298309355D01*
X151116382Y-298257595D01*
X151166817Y-298246875D01*
X180299933Y-298246875D01*
X180350368Y-298257595D01*
X180466623Y-298309355D01*
X180643143Y-298346875D01*
X180643144Y-298346875D01*
X180823606Y-298346875D01*
X180823607Y-298346875D01*
X181000127Y-298309355D01*
X181116382Y-298257595D01*
X181166817Y-298246875D01*
X210299933Y-298246875D01*
X210350368Y-298257595D01*
X210466623Y-298309355D01*
X210643143Y-298346875D01*
X210643144Y-298346875D01*
X210823606Y-298346875D01*
X210823607Y-298346875D01*
X211000127Y-298309355D01*
X211116382Y-298257595D01*
X211166817Y-298246875D01*
X240299933Y-298246875D01*
X240350368Y-298257595D01*
X240466623Y-298309355D01*
X240643143Y-298346875D01*
X240643144Y-298346875D01*
X240823606Y-298346875D01*
X240823607Y-298346875D01*
X241000127Y-298309355D01*
X241116382Y-298257595D01*
X241166817Y-298246875D01*
X270299933Y-298246875D01*
X270350368Y-298257595D01*
X270466623Y-298309355D01*
X270643143Y-298346875D01*
X270643144Y-298346875D01*
X270823606Y-298346875D01*
X270823607Y-298346875D01*
X271000127Y-298309355D01*
X271116382Y-298257595D01*
X271166817Y-298246875D01*
X300299933Y-298246875D01*
X300350368Y-298257595D01*
X300466623Y-298309355D01*
X300643143Y-298346875D01*
X300643144Y-298346875D01*
X300823606Y-298346875D01*
X300823607Y-298346875D01*
X301000127Y-298309355D01*
X301116382Y-298257595D01*
X301166817Y-298246875D01*
X330299933Y-298246875D01*
X330350368Y-298257595D01*
X330466623Y-298309355D01*
X330643143Y-298346875D01*
X330643144Y-298346875D01*
X330823606Y-298346875D01*
X330823607Y-298346875D01*
X331000127Y-298309355D01*
X331116382Y-298257595D01*
X331166817Y-298246875D01*
X360299933Y-298246875D01*
X360350368Y-298257595D01*
X360466623Y-298309355D01*
X360643143Y-298346875D01*
X360643144Y-298346875D01*
X360823606Y-298346875D01*
X360823607Y-298346875D01*
X361000127Y-298309355D01*
X361000129Y-298309353D01*
X361000132Y-298309353D01*
X361112428Y-298259355D01*
X361164990Y-298235953D01*
X361310988Y-298129879D01*
X361431742Y-297995768D01*
X361521974Y-297839482D01*
X361577740Y-297667850D01*
X361596604Y-297488375D01*
X361577740Y-297308900D01*
X361521974Y-297137268D01*
X361431742Y-296980982D01*
X361384446Y-296928454D01*
X361310993Y-296846875D01*
X361310990Y-296846873D01*
X361310989Y-296846872D01*
X361310988Y-296846871D01*
X361164990Y-296740797D01*
X361164989Y-296740796D01*
X361000132Y-296667396D01*
X361000126Y-296667394D01*
X360861126Y-296637849D01*
X360823607Y-296629875D01*
X360643143Y-296629875D01*
X360612200Y-296636451D01*
X360466623Y-296667394D01*
X360466617Y-296667396D01*
X360350371Y-296719154D01*
X360299935Y-296729875D01*
X331166817Y-296729875D01*
X331116382Y-296719155D01*
X331000128Y-296667395D01*
X331000126Y-296667394D01*
X330861126Y-296637849D01*
X330823607Y-296629875D01*
X330643143Y-296629875D01*
X330612200Y-296636451D01*
X330466623Y-296667394D01*
X330466617Y-296667396D01*
X330350371Y-296719154D01*
X330299935Y-296729875D01*
X301166817Y-296729875D01*
X301116382Y-296719155D01*
X301000128Y-296667395D01*
X301000126Y-296667394D01*
X300861126Y-296637849D01*
X300823607Y-296629875D01*
X300643143Y-296629875D01*
X300612200Y-296636451D01*
X300466623Y-296667394D01*
X300466617Y-296667396D01*
X300350371Y-296719154D01*
X300299935Y-296729875D01*
X271166817Y-296729875D01*
X271116382Y-296719155D01*
X271000128Y-296667395D01*
X271000126Y-296667394D01*
X270861126Y-296637849D01*
X270823607Y-296629875D01*
X270643143Y-296629875D01*
X270612200Y-296636451D01*
X270466623Y-296667394D01*
X270466617Y-296667396D01*
X270350371Y-296719154D01*
X270299935Y-296729875D01*
X241166817Y-296729875D01*
X241116382Y-296719155D01*
X241000128Y-296667395D01*
X241000126Y-296667394D01*
X240861126Y-296637849D01*
X240823607Y-296629875D01*
X240643143Y-296629875D01*
X240612200Y-296636451D01*
X240466623Y-296667394D01*
X240466617Y-296667396D01*
X240350371Y-296719154D01*
X240299935Y-296729875D01*
X211166817Y-296729875D01*
X211116382Y-296719155D01*
X211000128Y-296667395D01*
X211000126Y-296667394D01*
X210861126Y-296637849D01*
X210823607Y-296629875D01*
X210643143Y-296629875D01*
X210612200Y-296636451D01*
X210466623Y-296667394D01*
X210466617Y-296667396D01*
X210350371Y-296719154D01*
X210299935Y-296729875D01*
X181166817Y-296729875D01*
X181116382Y-296719155D01*
X181000128Y-296667395D01*
X181000126Y-296667394D01*
X180861126Y-296637849D01*
X180823607Y-296629875D01*
X180643143Y-296629875D01*
X180612200Y-296636451D01*
X180466623Y-296667394D01*
X180466617Y-296667396D01*
X180350371Y-296719154D01*
X180299935Y-296729875D01*
X151166817Y-296729875D01*
X151116382Y-296719155D01*
X151000128Y-296667395D01*
X151000126Y-296667394D01*
X150861126Y-296637849D01*
X150823607Y-296629875D01*
X150643143Y-296629875D01*
X150612200Y-296636451D01*
X150466623Y-296667394D01*
X150466617Y-296667396D01*
X150350371Y-296719154D01*
X150299935Y-296729875D01*
X121166817Y-296729875D01*
X121116382Y-296719155D01*
X121000128Y-296667395D01*
X121000126Y-296667394D01*
X120861126Y-296637849D01*
X120823607Y-296629875D01*
X120643143Y-296629875D01*
X120612200Y-296636451D01*
X120466623Y-296667394D01*
X120466617Y-296667396D01*
X120350371Y-296719154D01*
X120299935Y-296729875D01*
X91166817Y-296729875D01*
X91116382Y-296719155D01*
X91000128Y-296667395D01*
X91000126Y-296667394D01*
X90861126Y-296637849D01*
X90823607Y-296629875D01*
X90643143Y-296629875D01*
X90466625Y-296667394D01*
X90466622Y-296667394D01*
X90462672Y-296669154D01*
X90412235Y-296679875D01*
X61271817Y-296679875D01*
X61221382Y-296669155D01*
X61105128Y-296617395D01*
X61105126Y-296617394D01*
X60966126Y-296587849D01*
X60928607Y-296579875D01*
X60748143Y-296579875D01*
X60717200Y-296586451D01*
X60571623Y-296617394D01*
X60571617Y-296617396D01*
X60406761Y-296690796D01*
X60406756Y-296690799D01*
X60260763Y-296796869D01*
X60260756Y-296796875D01*
X60140007Y-296930983D01*
X60049775Y-297087269D01*
X59994010Y-297258898D01*
X59975146Y-297438375D01*
X50000000Y-297438375D01*
X50000000Y-264438375D01*
X59975146Y-264438375D01*
X59994010Y-264617851D01*
X60010255Y-264667850D01*
X60049776Y-264789482D01*
X60140008Y-264945768D01*
X60182071Y-264992483D01*
X60260756Y-265079874D01*
X60260759Y-265079876D01*
X60260762Y-265079879D01*
X60406760Y-265185953D01*
X60571617Y-265259353D01*
X60571623Y-265259355D01*
X60748143Y-265296875D01*
X60748144Y-265296875D01*
X60928606Y-265296875D01*
X60928607Y-265296875D01*
X61105127Y-265259355D01*
X61221382Y-265207595D01*
X61271817Y-265196875D01*
X90207683Y-265196875D01*
X90274722Y-265216560D01*
X90280567Y-265220555D01*
X90301760Y-265235953D01*
X90466617Y-265309353D01*
X90466623Y-265309355D01*
X90643143Y-265346875D01*
X90643144Y-265346875D01*
X90823606Y-265346875D01*
X90823607Y-265346875D01*
X91000127Y-265309355D01*
X91116382Y-265257595D01*
X91166817Y-265246875D01*
X120299933Y-265246875D01*
X120350368Y-265257595D01*
X120466623Y-265309355D01*
X120643143Y-265346875D01*
X120643144Y-265346875D01*
X120823606Y-265346875D01*
X120823607Y-265346875D01*
X121000127Y-265309355D01*
X121116382Y-265257595D01*
X121166817Y-265246875D01*
X150299933Y-265246875D01*
X150350368Y-265257595D01*
X150466623Y-265309355D01*
X150643143Y-265346875D01*
X150643144Y-265346875D01*
X150823606Y-265346875D01*
X150823607Y-265346875D01*
X151000127Y-265309355D01*
X151116382Y-265257595D01*
X151166817Y-265246875D01*
X180299933Y-265246875D01*
X180350368Y-265257595D01*
X180466623Y-265309355D01*
X180643143Y-265346875D01*
X180643144Y-265346875D01*
X180823606Y-265346875D01*
X180823607Y-265346875D01*
X181000127Y-265309355D01*
X181116382Y-265257595D01*
X181166817Y-265246875D01*
X210299933Y-265246875D01*
X210350368Y-265257595D01*
X210466623Y-265309355D01*
X210643143Y-265346875D01*
X210643144Y-265346875D01*
X210823606Y-265346875D01*
X210823607Y-265346875D01*
X211000127Y-265309355D01*
X211116382Y-265257595D01*
X211166817Y-265246875D01*
X240299933Y-265246875D01*
X240350368Y-265257595D01*
X240466623Y-265309355D01*
X240643143Y-265346875D01*
X240643144Y-265346875D01*
X240823606Y-265346875D01*
X240823607Y-265346875D01*
X241000127Y-265309355D01*
X241116382Y-265257595D01*
X241166817Y-265246875D01*
X270299933Y-265246875D01*
X270350368Y-265257595D01*
X270466623Y-265309355D01*
X270643143Y-265346875D01*
X270643144Y-265346875D01*
X270823606Y-265346875D01*
X270823607Y-265346875D01*
X271000127Y-265309355D01*
X271116382Y-265257595D01*
X271166817Y-265246875D01*
X300299933Y-265246875D01*
X300350368Y-265257595D01*
X300466623Y-265309355D01*
X300643143Y-265346875D01*
X300643144Y-265346875D01*
X300823606Y-265346875D01*
X300823607Y-265346875D01*
X301000127Y-265309355D01*
X301116382Y-265257595D01*
X301166817Y-265246875D01*
X330299933Y-265246875D01*
X330350368Y-265257595D01*
X330466623Y-265309355D01*
X330643143Y-265346875D01*
X330643144Y-265346875D01*
X330823606Y-265346875D01*
X330823607Y-265346875D01*
X331000127Y-265309355D01*
X331116382Y-265257595D01*
X331166817Y-265246875D01*
X360299933Y-265246875D01*
X360350368Y-265257595D01*
X360466623Y-265309355D01*
X360643143Y-265346875D01*
X360643144Y-265346875D01*
X360823606Y-265346875D01*
X360823607Y-265346875D01*
X361000127Y-265309355D01*
X361000129Y-265309353D01*
X361000132Y-265309353D01*
X361112428Y-265259355D01*
X361164990Y-265235953D01*
X361310988Y-265129879D01*
X361431742Y-264995768D01*
X361521974Y-264839482D01*
X361577740Y-264667850D01*
X361596604Y-264488375D01*
X361577740Y-264308900D01*
X361521974Y-264137268D01*
X361431742Y-263980982D01*
X361384446Y-263928454D01*
X361310993Y-263846875D01*
X361310990Y-263846873D01*
X361310989Y-263846872D01*
X361310988Y-263846871D01*
X361164990Y-263740797D01*
X361164989Y-263740796D01*
X361000132Y-263667396D01*
X361000126Y-263667394D01*
X360861126Y-263637849D01*
X360823607Y-263629875D01*
X360643143Y-263629875D01*
X360612200Y-263636451D01*
X360466623Y-263667394D01*
X360466617Y-263667396D01*
X360350371Y-263719154D01*
X360299935Y-263729875D01*
X331166817Y-263729875D01*
X331116382Y-263719155D01*
X331000128Y-263667395D01*
X331000126Y-263667394D01*
X330861126Y-263637849D01*
X330823607Y-263629875D01*
X330643143Y-263629875D01*
X330612200Y-263636451D01*
X330466623Y-263667394D01*
X330466617Y-263667396D01*
X330350371Y-263719154D01*
X330299935Y-263729875D01*
X301166817Y-263729875D01*
X301116382Y-263719155D01*
X301000128Y-263667395D01*
X301000126Y-263667394D01*
X300861126Y-263637849D01*
X300823607Y-263629875D01*
X300643143Y-263629875D01*
X300612200Y-263636451D01*
X300466623Y-263667394D01*
X300466617Y-263667396D01*
X300350371Y-263719154D01*
X300299935Y-263729875D01*
X271166817Y-263729875D01*
X271116382Y-263719155D01*
X271000128Y-263667395D01*
X271000126Y-263667394D01*
X270861126Y-263637849D01*
X270823607Y-263629875D01*
X270643143Y-263629875D01*
X270612200Y-263636451D01*
X270466623Y-263667394D01*
X270466617Y-263667396D01*
X270350371Y-263719154D01*
X270299935Y-263729875D01*
X241166817Y-263729875D01*
X241116382Y-263719155D01*
X241000128Y-263667395D01*
X241000126Y-263667394D01*
X240861126Y-263637849D01*
X240823607Y-263629875D01*
X240643143Y-263629875D01*
X240612200Y-263636451D01*
X240466623Y-263667394D01*
X240466617Y-263667396D01*
X240350371Y-263719154D01*
X240299935Y-263729875D01*
X211166817Y-263729875D01*
X211116382Y-263719155D01*
X211000128Y-263667395D01*
X211000126Y-263667394D01*
X210861126Y-263637849D01*
X210823607Y-263629875D01*
X210643143Y-263629875D01*
X210612200Y-263636451D01*
X210466623Y-263667394D01*
X210466617Y-263667396D01*
X210350371Y-263719154D01*
X210299935Y-263729875D01*
X181166817Y-263729875D01*
X181116382Y-263719155D01*
X181000128Y-263667395D01*
X181000126Y-263667394D01*
X180861126Y-263637849D01*
X180823607Y-263629875D01*
X180643143Y-263629875D01*
X180612200Y-263636451D01*
X180466623Y-263667394D01*
X180466617Y-263667396D01*
X180350371Y-263719154D01*
X180299935Y-263729875D01*
X151166817Y-263729875D01*
X151116382Y-263719155D01*
X151000128Y-263667395D01*
X151000126Y-263667394D01*
X150861126Y-263637849D01*
X150823607Y-263629875D01*
X150643143Y-263629875D01*
X150612200Y-263636451D01*
X150466623Y-263667394D01*
X150466617Y-263667396D01*
X150350371Y-263719154D01*
X150299935Y-263729875D01*
X121166817Y-263729875D01*
X121116382Y-263719155D01*
X121000128Y-263667395D01*
X121000126Y-263667394D01*
X120861126Y-263637849D01*
X120823607Y-263629875D01*
X120643143Y-263629875D01*
X120612200Y-263636451D01*
X120466623Y-263667394D01*
X120466617Y-263667396D01*
X120350371Y-263719154D01*
X120299935Y-263729875D01*
X91166817Y-263729875D01*
X91116382Y-263719155D01*
X91000128Y-263667395D01*
X91000126Y-263667394D01*
X90861126Y-263637849D01*
X90823607Y-263629875D01*
X90643143Y-263629875D01*
X90466625Y-263667394D01*
X90466622Y-263667394D01*
X90462672Y-263669154D01*
X90412235Y-263679875D01*
X61271817Y-263679875D01*
X61221382Y-263669155D01*
X61105128Y-263617395D01*
X61105126Y-263617394D01*
X60966126Y-263587849D01*
X60928607Y-263579875D01*
X60748143Y-263579875D01*
X60717200Y-263586451D01*
X60571623Y-263617394D01*
X60571617Y-263617396D01*
X60406761Y-263690796D01*
X60406756Y-263690799D01*
X60260763Y-263796869D01*
X60260756Y-263796875D01*
X60140007Y-263930983D01*
X60049775Y-264087269D01*
X59994010Y-264258898D01*
X59975146Y-264438375D01*
X50000000Y-264438375D01*
X50000000Y-231438375D01*
X59975146Y-231438375D01*
X59994010Y-231617851D01*
X60010255Y-231667850D01*
X60049776Y-231789482D01*
X60140008Y-231945768D01*
X60182071Y-231992483D01*
X60260756Y-232079874D01*
X60260759Y-232079876D01*
X60260762Y-232079879D01*
X60406760Y-232185953D01*
X60571617Y-232259353D01*
X60571623Y-232259355D01*
X60748143Y-232296875D01*
X60748144Y-232296875D01*
X60928606Y-232296875D01*
X60928607Y-232296875D01*
X61105127Y-232259355D01*
X61221382Y-232207595D01*
X61271817Y-232196875D01*
X90207683Y-232196875D01*
X90274722Y-232216560D01*
X90280567Y-232220555D01*
X90301760Y-232235953D01*
X90466617Y-232309353D01*
X90466623Y-232309355D01*
X90643143Y-232346875D01*
X90643144Y-232346875D01*
X90823606Y-232346875D01*
X90823607Y-232346875D01*
X91000127Y-232309355D01*
X91116382Y-232257595D01*
X91166817Y-232246875D01*
X120299933Y-232246875D01*
X120350368Y-232257595D01*
X120466623Y-232309355D01*
X120643143Y-232346875D01*
X120643144Y-232346875D01*
X120823606Y-232346875D01*
X120823607Y-232346875D01*
X121000127Y-232309355D01*
X121116382Y-232257595D01*
X121166817Y-232246875D01*
X150299933Y-232246875D01*
X150350368Y-232257595D01*
X150466623Y-232309355D01*
X150643143Y-232346875D01*
X150643144Y-232346875D01*
X150823606Y-232346875D01*
X150823607Y-232346875D01*
X151000127Y-232309355D01*
X151116382Y-232257595D01*
X151166817Y-232246875D01*
X180299933Y-232246875D01*
X180350368Y-232257595D01*
X180466623Y-232309355D01*
X180643143Y-232346875D01*
X180643144Y-232346875D01*
X180823606Y-232346875D01*
X180823607Y-232346875D01*
X181000127Y-232309355D01*
X181116382Y-232257595D01*
X181166817Y-232246875D01*
X210299933Y-232246875D01*
X210350368Y-232257595D01*
X210466623Y-232309355D01*
X210643143Y-232346875D01*
X210643144Y-232346875D01*
X210823606Y-232346875D01*
X210823607Y-232346875D01*
X211000127Y-232309355D01*
X211116382Y-232257595D01*
X211166817Y-232246875D01*
X240299933Y-232246875D01*
X240350368Y-232257595D01*
X240466623Y-232309355D01*
X240643143Y-232346875D01*
X240643144Y-232346875D01*
X240823606Y-232346875D01*
X240823607Y-232346875D01*
X241000127Y-232309355D01*
X241116382Y-232257595D01*
X241166817Y-232246875D01*
X270299933Y-232246875D01*
X270350368Y-232257595D01*
X270466623Y-232309355D01*
X270643143Y-232346875D01*
X270643144Y-232346875D01*
X270823606Y-232346875D01*
X270823607Y-232346875D01*
X271000127Y-232309355D01*
X271116382Y-232257595D01*
X271166817Y-232246875D01*
X300299933Y-232246875D01*
X300350368Y-232257595D01*
X300466623Y-232309355D01*
X300643143Y-232346875D01*
X300643144Y-232346875D01*
X300823606Y-232346875D01*
X300823607Y-232346875D01*
X301000127Y-232309355D01*
X301116382Y-232257595D01*
X301166817Y-232246875D01*
X330299933Y-232246875D01*
X330350368Y-232257595D01*
X330466623Y-232309355D01*
X330643143Y-232346875D01*
X330643144Y-232346875D01*
X330823606Y-232346875D01*
X330823607Y-232346875D01*
X331000127Y-232309355D01*
X331116382Y-232257595D01*
X331166817Y-232246875D01*
X360299933Y-232246875D01*
X360350368Y-232257595D01*
X360466623Y-232309355D01*
X360643143Y-232346875D01*
X360643144Y-232346875D01*
X360823606Y-232346875D01*
X360823607Y-232346875D01*
X361000127Y-232309355D01*
X361000129Y-232309353D01*
X361000132Y-232309353D01*
X361112428Y-232259355D01*
X361164990Y-232235953D01*
X361310988Y-232129879D01*
X361431742Y-231995768D01*
X361521974Y-231839482D01*
X361577740Y-231667850D01*
X361596604Y-231488375D01*
X361577740Y-231308900D01*
X361521974Y-231137268D01*
X361431742Y-230980982D01*
X361384446Y-230928454D01*
X361310993Y-230846875D01*
X361310990Y-230846873D01*
X361310989Y-230846872D01*
X361310988Y-230846871D01*
X361164990Y-230740797D01*
X361164989Y-230740796D01*
X361000132Y-230667396D01*
X361000126Y-230667394D01*
X360861126Y-230637849D01*
X360823607Y-230629875D01*
X360643143Y-230629875D01*
X360612200Y-230636451D01*
X360466623Y-230667394D01*
X360466617Y-230667396D01*
X360350371Y-230719154D01*
X360299935Y-230729875D01*
X331166817Y-230729875D01*
X331116382Y-230719155D01*
X331000128Y-230667395D01*
X331000126Y-230667394D01*
X330861126Y-230637849D01*
X330823607Y-230629875D01*
X330643143Y-230629875D01*
X330612200Y-230636451D01*
X330466623Y-230667394D01*
X330466617Y-230667396D01*
X330350371Y-230719154D01*
X330299935Y-230729875D01*
X301166817Y-230729875D01*
X301116382Y-230719155D01*
X301000128Y-230667395D01*
X301000126Y-230667394D01*
X300861126Y-230637849D01*
X300823607Y-230629875D01*
X300643143Y-230629875D01*
X300612200Y-230636451D01*
X300466623Y-230667394D01*
X300466617Y-230667396D01*
X300350371Y-230719154D01*
X300299935Y-230729875D01*
X271166817Y-230729875D01*
X271116382Y-230719155D01*
X271000128Y-230667395D01*
X271000126Y-230667394D01*
X270861126Y-230637849D01*
X270823607Y-230629875D01*
X270643143Y-230629875D01*
X270612200Y-230636451D01*
X270466623Y-230667394D01*
X270466617Y-230667396D01*
X270350371Y-230719154D01*
X270299935Y-230729875D01*
X241166817Y-230729875D01*
X241116382Y-230719155D01*
X241000128Y-230667395D01*
X241000126Y-230667394D01*
X240861126Y-230637849D01*
X240823607Y-230629875D01*
X240643143Y-230629875D01*
X240612200Y-230636451D01*
X240466623Y-230667394D01*
X240466617Y-230667396D01*
X240350371Y-230719154D01*
X240299935Y-230729875D01*
X211166817Y-230729875D01*
X211116382Y-230719155D01*
X211000128Y-230667395D01*
X211000126Y-230667394D01*
X210861126Y-230637849D01*
X210823607Y-230629875D01*
X210643143Y-230629875D01*
X210612200Y-230636451D01*
X210466623Y-230667394D01*
X210466617Y-230667396D01*
X210350371Y-230719154D01*
X210299935Y-230729875D01*
X181166817Y-230729875D01*
X181116382Y-230719155D01*
X181000128Y-230667395D01*
X181000126Y-230667394D01*
X180861126Y-230637849D01*
X180823607Y-230629875D01*
X180643143Y-230629875D01*
X180612200Y-230636451D01*
X180466623Y-230667394D01*
X180466617Y-230667396D01*
X180350371Y-230719154D01*
X180299935Y-230729875D01*
X151166817Y-230729875D01*
X151116382Y-230719155D01*
X151000128Y-230667395D01*
X151000126Y-230667394D01*
X150861126Y-230637849D01*
X150823607Y-230629875D01*
X150643143Y-230629875D01*
X150612200Y-230636451D01*
X150466623Y-230667394D01*
X150466617Y-230667396D01*
X150350371Y-230719154D01*
X150299935Y-230729875D01*
X121166817Y-230729875D01*
X121116382Y-230719155D01*
X121000128Y-230667395D01*
X121000126Y-230667394D01*
X120861126Y-230637849D01*
X120823607Y-230629875D01*
X120643143Y-230629875D01*
X120612200Y-230636451D01*
X120466623Y-230667394D01*
X120466617Y-230667396D01*
X120350371Y-230719154D01*
X120299935Y-230729875D01*
X91166817Y-230729875D01*
X91116382Y-230719155D01*
X91000128Y-230667395D01*
X91000126Y-230667394D01*
X90861126Y-230637849D01*
X90823607Y-230629875D01*
X90643143Y-230629875D01*
X90466625Y-230667394D01*
X90466622Y-230667394D01*
X90462672Y-230669154D01*
X90412235Y-230679875D01*
X61271817Y-230679875D01*
X61221382Y-230669155D01*
X61105128Y-230617395D01*
X61105126Y-230617394D01*
X60966126Y-230587849D01*
X60928607Y-230579875D01*
X60748143Y-230579875D01*
X60717200Y-230586451D01*
X60571623Y-230617394D01*
X60571617Y-230617396D01*
X60406761Y-230690796D01*
X60406756Y-230690799D01*
X60260763Y-230796869D01*
X60260756Y-230796875D01*
X60140007Y-230930983D01*
X60049775Y-231087269D01*
X59994010Y-231258898D01*
X59975146Y-231438375D01*
X50000000Y-231438375D01*
X50000000Y-198438375D01*
X59975146Y-198438375D01*
X59994010Y-198617851D01*
X60010255Y-198667850D01*
X60049776Y-198789482D01*
X60140008Y-198945768D01*
X60182071Y-198992483D01*
X60260756Y-199079874D01*
X60260759Y-199079876D01*
X60260762Y-199079879D01*
X60406760Y-199185953D01*
X60571617Y-199259353D01*
X60571623Y-199259355D01*
X60748143Y-199296875D01*
X60748144Y-199296875D01*
X60928606Y-199296875D01*
X60928607Y-199296875D01*
X61105127Y-199259355D01*
X61221382Y-199207595D01*
X61271817Y-199196875D01*
X90207683Y-199196875D01*
X90274722Y-199216560D01*
X90280567Y-199220555D01*
X90301760Y-199235953D01*
X90466617Y-199309353D01*
X90466623Y-199309355D01*
X90643143Y-199346875D01*
X90643144Y-199346875D01*
X90823606Y-199346875D01*
X90823607Y-199346875D01*
X91000127Y-199309355D01*
X91116382Y-199257595D01*
X91166817Y-199246875D01*
X120299933Y-199246875D01*
X120350368Y-199257595D01*
X120466623Y-199309355D01*
X120643143Y-199346875D01*
X120643144Y-199346875D01*
X120823606Y-199346875D01*
X120823607Y-199346875D01*
X121000127Y-199309355D01*
X121116382Y-199257595D01*
X121166817Y-199246875D01*
X150299933Y-199246875D01*
X150350368Y-199257595D01*
X150466623Y-199309355D01*
X150643143Y-199346875D01*
X150643144Y-199346875D01*
X150823606Y-199346875D01*
X150823607Y-199346875D01*
X151000127Y-199309355D01*
X151116382Y-199257595D01*
X151166817Y-199246875D01*
X180299933Y-199246875D01*
X180350368Y-199257595D01*
X180466623Y-199309355D01*
X180643143Y-199346875D01*
X180643144Y-199346875D01*
X180823606Y-199346875D01*
X180823607Y-199346875D01*
X181000127Y-199309355D01*
X181116382Y-199257595D01*
X181166817Y-199246875D01*
X210299933Y-199246875D01*
X210350368Y-199257595D01*
X210466623Y-199309355D01*
X210643143Y-199346875D01*
X210643144Y-199346875D01*
X210823606Y-199346875D01*
X210823607Y-199346875D01*
X211000127Y-199309355D01*
X211116382Y-199257595D01*
X211166817Y-199246875D01*
X240299933Y-199246875D01*
X240350368Y-199257595D01*
X240466623Y-199309355D01*
X240643143Y-199346875D01*
X240643144Y-199346875D01*
X240823606Y-199346875D01*
X240823607Y-199346875D01*
X241000127Y-199309355D01*
X241116382Y-199257595D01*
X241166817Y-199246875D01*
X270299933Y-199246875D01*
X270350368Y-199257595D01*
X270466623Y-199309355D01*
X270643143Y-199346875D01*
X270643144Y-199346875D01*
X270823606Y-199346875D01*
X270823607Y-199346875D01*
X271000127Y-199309355D01*
X271116382Y-199257595D01*
X271166817Y-199246875D01*
X300299933Y-199246875D01*
X300350368Y-199257595D01*
X300466623Y-199309355D01*
X300643143Y-199346875D01*
X300643144Y-199346875D01*
X300823606Y-199346875D01*
X300823607Y-199346875D01*
X301000127Y-199309355D01*
X301116382Y-199257595D01*
X301166817Y-199246875D01*
X330299933Y-199246875D01*
X330350368Y-199257595D01*
X330466623Y-199309355D01*
X330643143Y-199346875D01*
X330643144Y-199346875D01*
X330823606Y-199346875D01*
X330823607Y-199346875D01*
X331000127Y-199309355D01*
X331116382Y-199257595D01*
X331166817Y-199246875D01*
X360299933Y-199246875D01*
X360350368Y-199257595D01*
X360466623Y-199309355D01*
X360643143Y-199346875D01*
X360643144Y-199346875D01*
X360823606Y-199346875D01*
X360823607Y-199346875D01*
X361000127Y-199309355D01*
X361000129Y-199309353D01*
X361000132Y-199309353D01*
X361112428Y-199259355D01*
X361164990Y-199235953D01*
X361310988Y-199129879D01*
X361431742Y-198995768D01*
X361521974Y-198839482D01*
X361577740Y-198667850D01*
X361596604Y-198488375D01*
X361577740Y-198308900D01*
X361521974Y-198137268D01*
X361431742Y-197980982D01*
X361384446Y-197928454D01*
X361310993Y-197846875D01*
X361310990Y-197846873D01*
X361310989Y-197846872D01*
X361310988Y-197846871D01*
X361164990Y-197740797D01*
X361164989Y-197740796D01*
X361000132Y-197667396D01*
X361000126Y-197667394D01*
X360861126Y-197637849D01*
X360823607Y-197629875D01*
X360643143Y-197629875D01*
X360612200Y-197636451D01*
X360466623Y-197667394D01*
X360466617Y-197667396D01*
X360350371Y-197719154D01*
X360299935Y-197729875D01*
X331166817Y-197729875D01*
X331116382Y-197719155D01*
X331000128Y-197667395D01*
X331000126Y-197667394D01*
X330861126Y-197637849D01*
X330823607Y-197629875D01*
X330643143Y-197629875D01*
X330612200Y-197636451D01*
X330466623Y-197667394D01*
X330466617Y-197667396D01*
X330350371Y-197719154D01*
X330299935Y-197729875D01*
X301166817Y-197729875D01*
X301116382Y-197719155D01*
X301000128Y-197667395D01*
X301000126Y-197667394D01*
X300861126Y-197637849D01*
X300823607Y-197629875D01*
X300643143Y-197629875D01*
X300612200Y-197636451D01*
X300466623Y-197667394D01*
X300466617Y-197667396D01*
X300350371Y-197719154D01*
X300299935Y-197729875D01*
X271166817Y-197729875D01*
X271116382Y-197719155D01*
X271000128Y-197667395D01*
X271000126Y-197667394D01*
X270861126Y-197637849D01*
X270823607Y-197629875D01*
X270643143Y-197629875D01*
X270612200Y-197636451D01*
X270466623Y-197667394D01*
X270466617Y-197667396D01*
X270350371Y-197719154D01*
X270299935Y-197729875D01*
X241166817Y-197729875D01*
X241116382Y-197719155D01*
X241000128Y-197667395D01*
X241000126Y-197667394D01*
X240861126Y-197637849D01*
X240823607Y-197629875D01*
X240643143Y-197629875D01*
X240612200Y-197636451D01*
X240466623Y-197667394D01*
X240466617Y-197667396D01*
X240350371Y-197719154D01*
X240299935Y-197729875D01*
X211166817Y-197729875D01*
X211116382Y-197719155D01*
X211000128Y-197667395D01*
X211000126Y-197667394D01*
X210861126Y-197637849D01*
X210823607Y-197629875D01*
X210643143Y-197629875D01*
X210612200Y-197636451D01*
X210466623Y-197667394D01*
X210466617Y-197667396D01*
X210350371Y-197719154D01*
X210299935Y-197729875D01*
X181166817Y-197729875D01*
X181116382Y-197719155D01*
X181000128Y-197667395D01*
X181000126Y-197667394D01*
X180861126Y-197637849D01*
X180823607Y-197629875D01*
X180643143Y-197629875D01*
X180612200Y-197636451D01*
X180466623Y-197667394D01*
X180466617Y-197667396D01*
X180350371Y-197719154D01*
X180299935Y-197729875D01*
X151166817Y-197729875D01*
X151116382Y-197719155D01*
X151000128Y-197667395D01*
X151000126Y-197667394D01*
X150861126Y-197637849D01*
X150823607Y-197629875D01*
X150643143Y-197629875D01*
X150612200Y-197636451D01*
X150466623Y-197667394D01*
X150466617Y-197667396D01*
X150350371Y-197719154D01*
X150299935Y-197729875D01*
X121166817Y-197729875D01*
X121116382Y-197719155D01*
X121000128Y-197667395D01*
X121000126Y-197667394D01*
X120861126Y-197637849D01*
X120823607Y-197629875D01*
X120643143Y-197629875D01*
X120612200Y-197636451D01*
X120466623Y-197667394D01*
X120466617Y-197667396D01*
X120350371Y-197719154D01*
X120299935Y-197729875D01*
X91166817Y-197729875D01*
X91116382Y-197719155D01*
X91000128Y-197667395D01*
X91000126Y-197667394D01*
X90861126Y-197637849D01*
X90823607Y-197629875D01*
X90643143Y-197629875D01*
X90466625Y-197667394D01*
X90466622Y-197667394D01*
X90462672Y-197669154D01*
X90412235Y-197679875D01*
X61271817Y-197679875D01*
X61221382Y-197669155D01*
X61105128Y-197617395D01*
X61105126Y-197617394D01*
X60966126Y-197587849D01*
X60928607Y-197579875D01*
X60748143Y-197579875D01*
X60717200Y-197586451D01*
X60571623Y-197617394D01*
X60571617Y-197617396D01*
X60406761Y-197690796D01*
X60406756Y-197690799D01*
X60260763Y-197796869D01*
X60260756Y-197796875D01*
X60140007Y-197930983D01*
X60049775Y-198087269D01*
X59994010Y-198258898D01*
X59975146Y-198438375D01*
X50000000Y-198438375D01*
X50000000Y-165438375D01*
X59975146Y-165438375D01*
X59994010Y-165617851D01*
X60010255Y-165667850D01*
X60049776Y-165789482D01*
X60140008Y-165945768D01*
X60182071Y-165992483D01*
X60260756Y-166079874D01*
X60260759Y-166079876D01*
X60260762Y-166079879D01*
X60406760Y-166185953D01*
X60571617Y-166259353D01*
X60571623Y-166259355D01*
X60748143Y-166296875D01*
X60748144Y-166296875D01*
X60928606Y-166296875D01*
X60928607Y-166296875D01*
X61105127Y-166259355D01*
X61221382Y-166207595D01*
X61271817Y-166196875D01*
X90207683Y-166196875D01*
X90274722Y-166216560D01*
X90280567Y-166220555D01*
X90301760Y-166235953D01*
X90466617Y-166309353D01*
X90466623Y-166309355D01*
X90643143Y-166346875D01*
X90643144Y-166346875D01*
X90823606Y-166346875D01*
X90823607Y-166346875D01*
X91000127Y-166309355D01*
X91116382Y-166257595D01*
X91166817Y-166246875D01*
X120299933Y-166246875D01*
X120350368Y-166257595D01*
X120466623Y-166309355D01*
X120643143Y-166346875D01*
X120643144Y-166346875D01*
X120823606Y-166346875D01*
X120823607Y-166346875D01*
X121000127Y-166309355D01*
X121116382Y-166257595D01*
X121166817Y-166246875D01*
X150299933Y-166246875D01*
X150350368Y-166257595D01*
X150466623Y-166309355D01*
X150643143Y-166346875D01*
X150643144Y-166346875D01*
X150823606Y-166346875D01*
X150823607Y-166346875D01*
X151000127Y-166309355D01*
X151116382Y-166257595D01*
X151166817Y-166246875D01*
X180299933Y-166246875D01*
X180350368Y-166257595D01*
X180466623Y-166309355D01*
X180643143Y-166346875D01*
X180643144Y-166346875D01*
X180823606Y-166346875D01*
X180823607Y-166346875D01*
X181000127Y-166309355D01*
X181116382Y-166257595D01*
X181166817Y-166246875D01*
X210299933Y-166246875D01*
X210350368Y-166257595D01*
X210466623Y-166309355D01*
X210643143Y-166346875D01*
X210643144Y-166346875D01*
X210823606Y-166346875D01*
X210823607Y-166346875D01*
X211000127Y-166309355D01*
X211116382Y-166257595D01*
X211166817Y-166246875D01*
X240299933Y-166246875D01*
X240350368Y-166257595D01*
X240466623Y-166309355D01*
X240643143Y-166346875D01*
X240643144Y-166346875D01*
X240823606Y-166346875D01*
X240823607Y-166346875D01*
X241000127Y-166309355D01*
X241116382Y-166257595D01*
X241166817Y-166246875D01*
X270299933Y-166246875D01*
X270350368Y-166257595D01*
X270466623Y-166309355D01*
X270643143Y-166346875D01*
X270643144Y-166346875D01*
X270823606Y-166346875D01*
X270823607Y-166346875D01*
X271000127Y-166309355D01*
X271116382Y-166257595D01*
X271166817Y-166246875D01*
X300299933Y-166246875D01*
X300350368Y-166257595D01*
X300466623Y-166309355D01*
X300643143Y-166346875D01*
X300643144Y-166346875D01*
X300823606Y-166346875D01*
X300823607Y-166346875D01*
X301000127Y-166309355D01*
X301116382Y-166257595D01*
X301166817Y-166246875D01*
X330299933Y-166246875D01*
X330350368Y-166257595D01*
X330466623Y-166309355D01*
X330643143Y-166346875D01*
X330643144Y-166346875D01*
X330823606Y-166346875D01*
X330823607Y-166346875D01*
X331000127Y-166309355D01*
X331116382Y-166257595D01*
X331166817Y-166246875D01*
X360299933Y-166246875D01*
X360350368Y-166257595D01*
X360466623Y-166309355D01*
X360643143Y-166346875D01*
X360643144Y-166346875D01*
X360823606Y-166346875D01*
X360823607Y-166346875D01*
X361000127Y-166309355D01*
X361000129Y-166309353D01*
X361000132Y-166309353D01*
X361112428Y-166259355D01*
X361164990Y-166235953D01*
X361310988Y-166129879D01*
X361431742Y-165995768D01*
X361521974Y-165839482D01*
X361577740Y-165667850D01*
X361596604Y-165488375D01*
X361577740Y-165308900D01*
X361521974Y-165137268D01*
X361431742Y-164980982D01*
X361384446Y-164928454D01*
X361310993Y-164846875D01*
X361310990Y-164846873D01*
X361310989Y-164846872D01*
X361310988Y-164846871D01*
X361164990Y-164740797D01*
X361164989Y-164740796D01*
X361000132Y-164667396D01*
X361000126Y-164667394D01*
X360861126Y-164637849D01*
X360823607Y-164629875D01*
X360643143Y-164629875D01*
X360612200Y-164636451D01*
X360466623Y-164667394D01*
X360466617Y-164667396D01*
X360350371Y-164719154D01*
X360299935Y-164729875D01*
X331166817Y-164729875D01*
X331116382Y-164719155D01*
X331000128Y-164667395D01*
X331000126Y-164667394D01*
X330861126Y-164637849D01*
X330823607Y-164629875D01*
X330643143Y-164629875D01*
X330612200Y-164636451D01*
X330466623Y-164667394D01*
X330466617Y-164667396D01*
X330350371Y-164719154D01*
X330299935Y-164729875D01*
X301166817Y-164729875D01*
X301116382Y-164719155D01*
X301000128Y-164667395D01*
X301000126Y-164667394D01*
X300861126Y-164637849D01*
X300823607Y-164629875D01*
X300643143Y-164629875D01*
X300612200Y-164636451D01*
X300466623Y-164667394D01*
X300466617Y-164667396D01*
X300350371Y-164719154D01*
X300299935Y-164729875D01*
X271166817Y-164729875D01*
X271116382Y-164719155D01*
X271000128Y-164667395D01*
X271000126Y-164667394D01*
X270861126Y-164637849D01*
X270823607Y-164629875D01*
X270643143Y-164629875D01*
X270612200Y-164636451D01*
X270466623Y-164667394D01*
X270466617Y-164667396D01*
X270350371Y-164719154D01*
X270299935Y-164729875D01*
X241166817Y-164729875D01*
X241116382Y-164719155D01*
X241000128Y-164667395D01*
X241000126Y-164667394D01*
X240861126Y-164637849D01*
X240823607Y-164629875D01*
X240643143Y-164629875D01*
X240612200Y-164636451D01*
X240466623Y-164667394D01*
X240466617Y-164667396D01*
X240350371Y-164719154D01*
X240299935Y-164729875D01*
X211166817Y-164729875D01*
X211116382Y-164719155D01*
X211000128Y-164667395D01*
X211000126Y-164667394D01*
X210861126Y-164637849D01*
X210823607Y-164629875D01*
X210643143Y-164629875D01*
X210612200Y-164636451D01*
X210466623Y-164667394D01*
X210466617Y-164667396D01*
X210350371Y-164719154D01*
X210299935Y-164729875D01*
X181166817Y-164729875D01*
X181116382Y-164719155D01*
X181000128Y-164667395D01*
X181000126Y-164667394D01*
X180861126Y-164637849D01*
X180823607Y-164629875D01*
X180643143Y-164629875D01*
X180612200Y-164636451D01*
X180466623Y-164667394D01*
X180466617Y-164667396D01*
X180350371Y-164719154D01*
X180299935Y-164729875D01*
X151166817Y-164729875D01*
X151116382Y-164719155D01*
X151000128Y-164667395D01*
X151000126Y-164667394D01*
X150861126Y-164637849D01*
X150823607Y-164629875D01*
X150643143Y-164629875D01*
X150612200Y-164636451D01*
X150466623Y-164667394D01*
X150466617Y-164667396D01*
X150350371Y-164719154D01*
X150299935Y-164729875D01*
X121166817Y-164729875D01*
X121116382Y-164719155D01*
X121000128Y-164667395D01*
X121000126Y-164667394D01*
X120861126Y-164637849D01*
X120823607Y-164629875D01*
X120643143Y-164629875D01*
X120612200Y-164636451D01*
X120466623Y-164667394D01*
X120466617Y-164667396D01*
X120350371Y-164719154D01*
X120299935Y-164729875D01*
X91166817Y-164729875D01*
X91116382Y-164719155D01*
X91000128Y-164667395D01*
X91000126Y-164667394D01*
X90861126Y-164637849D01*
X90823607Y-164629875D01*
X90643143Y-164629875D01*
X90466625Y-164667394D01*
X90466622Y-164667394D01*
X90462672Y-164669154D01*
X90412235Y-164679875D01*
X61271817Y-164679875D01*
X61221382Y-164669155D01*
X61105128Y-164617395D01*
X61105126Y-164617394D01*
X60966126Y-164587849D01*
X60928607Y-164579875D01*
X60748143Y-164579875D01*
X60717200Y-164586451D01*
X60571623Y-164617394D01*
X60571617Y-164617396D01*
X60406761Y-164690796D01*
X60406756Y-164690799D01*
X60260763Y-164796869D01*
X60260756Y-164796875D01*
X60140007Y-164930983D01*
X60049775Y-165087269D01*
X59994010Y-165258898D01*
X59975146Y-165438375D01*
X50000000Y-165438375D01*
X50000000Y-132438375D01*
X59975146Y-132438375D01*
X59994010Y-132617851D01*
X60010255Y-132667850D01*
X60049776Y-132789482D01*
X60140008Y-132945768D01*
X60182071Y-132992483D01*
X60260756Y-133079874D01*
X60260759Y-133079876D01*
X60260762Y-133079879D01*
X60406760Y-133185953D01*
X60571617Y-133259353D01*
X60571623Y-133259355D01*
X60748143Y-133296875D01*
X60748144Y-133296875D01*
X60928606Y-133296875D01*
X60928607Y-133296875D01*
X61105127Y-133259355D01*
X61221382Y-133207595D01*
X61271817Y-133196875D01*
X90207683Y-133196875D01*
X90274722Y-133216560D01*
X90280567Y-133220555D01*
X90301760Y-133235953D01*
X90466617Y-133309353D01*
X90466623Y-133309355D01*
X90643143Y-133346875D01*
X90643144Y-133346875D01*
X90823606Y-133346875D01*
X90823607Y-133346875D01*
X91000127Y-133309355D01*
X91116382Y-133257595D01*
X91166817Y-133246875D01*
X120299933Y-133246875D01*
X120350368Y-133257595D01*
X120466623Y-133309355D01*
X120643143Y-133346875D01*
X120643144Y-133346875D01*
X120823606Y-133346875D01*
X120823607Y-133346875D01*
X121000127Y-133309355D01*
X121116382Y-133257595D01*
X121166817Y-133246875D01*
X150299933Y-133246875D01*
X150350368Y-133257595D01*
X150466623Y-133309355D01*
X150643143Y-133346875D01*
X150643144Y-133346875D01*
X150823606Y-133346875D01*
X150823607Y-133346875D01*
X151000127Y-133309355D01*
X151116382Y-133257595D01*
X151166817Y-133246875D01*
X180299933Y-133246875D01*
X180350368Y-133257595D01*
X180466623Y-133309355D01*
X180643143Y-133346875D01*
X180643144Y-133346875D01*
X180823606Y-133346875D01*
X180823607Y-133346875D01*
X181000127Y-133309355D01*
X181116382Y-133257595D01*
X181166817Y-133246875D01*
X210299933Y-133246875D01*
X210350368Y-133257595D01*
X210466623Y-133309355D01*
X210643143Y-133346875D01*
X210643144Y-133346875D01*
X210823606Y-133346875D01*
X210823607Y-133346875D01*
X211000127Y-133309355D01*
X211116382Y-133257595D01*
X211166817Y-133246875D01*
X240299933Y-133246875D01*
X240350368Y-133257595D01*
X240466623Y-133309355D01*
X240643143Y-133346875D01*
X240643144Y-133346875D01*
X240823606Y-133346875D01*
X240823607Y-133346875D01*
X241000127Y-133309355D01*
X241116382Y-133257595D01*
X241166817Y-133246875D01*
X270299933Y-133246875D01*
X270350368Y-133257595D01*
X270466623Y-133309355D01*
X270643143Y-133346875D01*
X270643144Y-133346875D01*
X270823606Y-133346875D01*
X270823607Y-133346875D01*
X271000127Y-133309355D01*
X271116382Y-133257595D01*
X271166817Y-133246875D01*
X300299933Y-133246875D01*
X300350368Y-133257595D01*
X300466623Y-133309355D01*
X300643143Y-133346875D01*
X300643144Y-133346875D01*
X300823606Y-133346875D01*
X300823607Y-133346875D01*
X301000127Y-133309355D01*
X301116382Y-133257595D01*
X301166817Y-133246875D01*
X330299933Y-133246875D01*
X330350368Y-133257595D01*
X330466623Y-133309355D01*
X330643143Y-133346875D01*
X330643144Y-133346875D01*
X330823606Y-133346875D01*
X330823607Y-133346875D01*
X331000127Y-133309355D01*
X331116382Y-133257595D01*
X331166817Y-133246875D01*
X360299933Y-133246875D01*
X360350368Y-133257595D01*
X360466623Y-133309355D01*
X360643143Y-133346875D01*
X360643144Y-133346875D01*
X360823606Y-133346875D01*
X360823607Y-133346875D01*
X361000127Y-133309355D01*
X361000129Y-133309353D01*
X361000132Y-133309353D01*
X361112428Y-133259355D01*
X361164990Y-133235953D01*
X361310988Y-133129879D01*
X361431742Y-132995768D01*
X361521974Y-132839482D01*
X361577740Y-132667850D01*
X361596604Y-132488375D01*
X361577740Y-132308900D01*
X361521974Y-132137268D01*
X361431742Y-131980982D01*
X361384446Y-131928454D01*
X361310993Y-131846875D01*
X361310990Y-131846873D01*
X361310989Y-131846872D01*
X361310988Y-131846871D01*
X361164990Y-131740797D01*
X361164989Y-131740796D01*
X361000132Y-131667396D01*
X361000126Y-131667394D01*
X360861126Y-131637849D01*
X360823607Y-131629875D01*
X360643143Y-131629875D01*
X360612200Y-131636451D01*
X360466623Y-131667394D01*
X360466617Y-131667396D01*
X360350371Y-131719154D01*
X360299935Y-131729875D01*
X331166817Y-131729875D01*
X331116382Y-131719155D01*
X331000128Y-131667395D01*
X331000126Y-131667394D01*
X330861126Y-131637849D01*
X330823607Y-131629875D01*
X330643143Y-131629875D01*
X330612200Y-131636451D01*
X330466623Y-131667394D01*
X330466617Y-131667396D01*
X330350371Y-131719154D01*
X330299935Y-131729875D01*
X301166817Y-131729875D01*
X301116382Y-131719155D01*
X301000128Y-131667395D01*
X301000126Y-131667394D01*
X300861126Y-131637849D01*
X300823607Y-131629875D01*
X300643143Y-131629875D01*
X300612200Y-131636451D01*
X300466623Y-131667394D01*
X300466617Y-131667396D01*
X300350371Y-131719154D01*
X300299935Y-131729875D01*
X271166817Y-131729875D01*
X271116382Y-131719155D01*
X271000128Y-131667395D01*
X271000126Y-131667394D01*
X270861126Y-131637849D01*
X270823607Y-131629875D01*
X270643143Y-131629875D01*
X270612200Y-131636451D01*
X270466623Y-131667394D01*
X270466617Y-131667396D01*
X270350371Y-131719154D01*
X270299935Y-131729875D01*
X241166817Y-131729875D01*
X241116382Y-131719155D01*
X241000128Y-131667395D01*
X241000126Y-131667394D01*
X240861126Y-131637849D01*
X240823607Y-131629875D01*
X240643143Y-131629875D01*
X240612200Y-131636451D01*
X240466623Y-131667394D01*
X240466617Y-131667396D01*
X240350371Y-131719154D01*
X240299935Y-131729875D01*
X211166817Y-131729875D01*
X211116382Y-131719155D01*
X211000128Y-131667395D01*
X211000126Y-131667394D01*
X210861126Y-131637849D01*
X210823607Y-131629875D01*
X210643143Y-131629875D01*
X210612200Y-131636451D01*
X210466623Y-131667394D01*
X210466617Y-131667396D01*
X210350371Y-131719154D01*
X210299935Y-131729875D01*
X181166817Y-131729875D01*
X181116382Y-131719155D01*
X181000128Y-131667395D01*
X181000126Y-131667394D01*
X180861126Y-131637849D01*
X180823607Y-131629875D01*
X180643143Y-131629875D01*
X180612200Y-131636451D01*
X180466623Y-131667394D01*
X180466617Y-131667396D01*
X180350371Y-131719154D01*
X180299935Y-131729875D01*
X151166817Y-131729875D01*
X151116382Y-131719155D01*
X151000128Y-131667395D01*
X151000126Y-131667394D01*
X150861126Y-131637849D01*
X150823607Y-131629875D01*
X150643143Y-131629875D01*
X150612200Y-131636451D01*
X150466623Y-131667394D01*
X150466617Y-131667396D01*
X150350371Y-131719154D01*
X150299935Y-131729875D01*
X121166817Y-131729875D01*
X121116382Y-131719155D01*
X121000128Y-131667395D01*
X121000126Y-131667394D01*
X120861126Y-131637849D01*
X120823607Y-131629875D01*
X120643143Y-131629875D01*
X120612200Y-131636451D01*
X120466623Y-131667394D01*
X120466617Y-131667396D01*
X120350371Y-131719154D01*
X120299935Y-131729875D01*
X91166817Y-131729875D01*
X91116382Y-131719155D01*
X91000128Y-131667395D01*
X91000126Y-131667394D01*
X90861126Y-131637849D01*
X90823607Y-131629875D01*
X90643143Y-131629875D01*
X90466625Y-131667394D01*
X90466622Y-131667394D01*
X90462672Y-131669154D01*
X90412235Y-131679875D01*
X61271817Y-131679875D01*
X61221382Y-131669155D01*
X61105128Y-131617395D01*
X61105126Y-131617394D01*
X60966126Y-131587849D01*
X60928607Y-131579875D01*
X60748143Y-131579875D01*
X60717200Y-131586451D01*
X60571623Y-131617394D01*
X60571617Y-131617396D01*
X60406761Y-131690796D01*
X60406756Y-131690799D01*
X60260763Y-131796869D01*
X60260756Y-131796875D01*
X60140007Y-131930983D01*
X60049775Y-132087269D01*
X59994010Y-132258898D01*
X59975146Y-132438375D01*
X50000000Y-132438375D01*
X50000000Y-108143713D01*
X172149500Y-108143713D01*
X172149500Y-108356286D01*
X172182753Y-108566239D01*
X172248444Y-108768414D01*
X172344951Y-108957820D01*
X172469890Y-109129786D01*
X172620213Y-109280109D01*
X172792179Y-109405048D01*
X172792181Y-109405049D01*
X172792184Y-109405051D01*
X172981588Y-109501557D01*
X173183757Y-109567246D01*
X173393713Y-109600500D01*
X173393714Y-109600500D01*
X173606286Y-109600500D01*
X173606287Y-109600500D01*
X173816243Y-109567246D01*
X174018412Y-109501557D01*
X174207816Y-109405051D01*
X174229789Y-109389086D01*
X174379786Y-109280109D01*
X174379788Y-109280106D01*
X174379792Y-109280104D01*
X174530104Y-109129792D01*
X174530106Y-109129788D01*
X174530109Y-109129786D01*
X174655048Y-108957820D01*
X174655047Y-108957820D01*
X174655051Y-108957816D01*
X174751557Y-108768412D01*
X174817246Y-108566243D01*
X174850500Y-108356287D01*
X174850500Y-108143713D01*
X200149500Y-108143713D01*
X200149500Y-108356286D01*
X200182753Y-108566239D01*
X200248444Y-108768414D01*
X200344951Y-108957820D01*
X200469890Y-109129786D01*
X200620213Y-109280109D01*
X200792179Y-109405048D01*
X200792181Y-109405049D01*
X200792184Y-109405051D01*
X200981588Y-109501557D01*
X201183757Y-109567246D01*
X201393713Y-109600500D01*
X201393714Y-109600500D01*
X201606286Y-109600500D01*
X201606287Y-109600500D01*
X201816243Y-109567246D01*
X202018412Y-109501557D01*
X202207816Y-109405051D01*
X202229789Y-109389086D01*
X202379786Y-109280109D01*
X202379788Y-109280106D01*
X202379792Y-109280104D01*
X202530104Y-109129792D01*
X202530106Y-109129788D01*
X202530109Y-109129786D01*
X202655048Y-108957820D01*
X202655047Y-108957820D01*
X202655051Y-108957816D01*
X202751557Y-108768412D01*
X202817246Y-108566243D01*
X202850500Y-108356287D01*
X202850500Y-108143713D01*
X202817246Y-107933757D01*
X202751557Y-107731588D01*
X202655051Y-107542184D01*
X202655049Y-107542181D01*
X202655048Y-107542179D01*
X202530109Y-107370213D01*
X202379786Y-107219890D01*
X202207820Y-107094951D01*
X202018414Y-106998444D01*
X202018413Y-106998443D01*
X202018412Y-106998443D01*
X201816243Y-106932754D01*
X201816241Y-106932753D01*
X201816240Y-106932753D01*
X201654957Y-106907208D01*
X201606287Y-106899500D01*
X201393713Y-106899500D01*
X201345042Y-106907208D01*
X201183760Y-106932753D01*
X200981585Y-106998444D01*
X200792179Y-107094951D01*
X200620213Y-107219890D01*
X200469890Y-107370213D01*
X200344951Y-107542179D01*
X200248444Y-107731585D01*
X200182753Y-107933760D01*
X200149500Y-108143713D01*
X174850500Y-108143713D01*
X174817246Y-107933757D01*
X174751557Y-107731588D01*
X174655051Y-107542184D01*
X174655049Y-107542181D01*
X174655048Y-107542179D01*
X174530109Y-107370213D01*
X174379786Y-107219890D01*
X174207820Y-107094951D01*
X174018414Y-106998444D01*
X174018413Y-106998443D01*
X174018412Y-106998443D01*
X173816243Y-106932754D01*
X173816241Y-106932753D01*
X173816240Y-106932753D01*
X173654957Y-106907208D01*
X173606287Y-106899500D01*
X173393713Y-106899500D01*
X173345042Y-106907208D01*
X173183760Y-106932753D01*
X172981585Y-106998444D01*
X172792179Y-107094951D01*
X172620213Y-107219890D01*
X172469890Y-107370213D01*
X172344951Y-107542179D01*
X172248444Y-107731585D01*
X172182753Y-107933760D01*
X172149500Y-108143713D01*
X50000000Y-108143713D01*
X50000000Y-99438375D01*
X59975146Y-99438375D01*
X59994010Y-99617851D01*
X60010255Y-99667850D01*
X60049776Y-99789482D01*
X60140008Y-99945768D01*
X60182071Y-99992483D01*
X60260756Y-100079874D01*
X60260759Y-100079876D01*
X60260762Y-100079879D01*
X60406760Y-100185953D01*
X60571617Y-100259353D01*
X60571623Y-100259355D01*
X60748143Y-100296875D01*
X60748144Y-100296875D01*
X60928606Y-100296875D01*
X60928607Y-100296875D01*
X61105127Y-100259355D01*
X61221382Y-100207595D01*
X61271817Y-100196875D01*
X90207683Y-100196875D01*
X90274722Y-100216560D01*
X90280567Y-100220555D01*
X90301760Y-100235953D01*
X90466617Y-100309353D01*
X90466623Y-100309355D01*
X90643143Y-100346875D01*
X90643144Y-100346875D01*
X90823606Y-100346875D01*
X90823607Y-100346875D01*
X91000127Y-100309355D01*
X91116382Y-100257595D01*
X91166817Y-100246875D01*
X120299933Y-100246875D01*
X120350368Y-100257595D01*
X120466623Y-100309355D01*
X120643143Y-100346875D01*
X120643144Y-100346875D01*
X120823606Y-100346875D01*
X120823607Y-100346875D01*
X121000127Y-100309355D01*
X121116382Y-100257595D01*
X121166817Y-100246875D01*
X150299933Y-100246875D01*
X150350368Y-100257595D01*
X150466623Y-100309355D01*
X150643143Y-100346875D01*
X150643144Y-100346875D01*
X150823606Y-100346875D01*
X150823607Y-100346875D01*
X151000127Y-100309355D01*
X151116382Y-100257595D01*
X151166817Y-100246875D01*
X180299933Y-100246875D01*
X180350368Y-100257595D01*
X180466623Y-100309355D01*
X180643143Y-100346875D01*
X180643144Y-100346875D01*
X180823606Y-100346875D01*
X180823607Y-100346875D01*
X181000127Y-100309355D01*
X181116382Y-100257595D01*
X181166817Y-100246875D01*
X210299933Y-100246875D01*
X210350368Y-100257595D01*
X210466623Y-100309355D01*
X210643143Y-100346875D01*
X210643144Y-100346875D01*
X210823606Y-100346875D01*
X210823607Y-100346875D01*
X211000127Y-100309355D01*
X211116382Y-100257595D01*
X211166817Y-100246875D01*
X240299933Y-100246875D01*
X240350368Y-100257595D01*
X240466623Y-100309355D01*
X240643143Y-100346875D01*
X240643144Y-100346875D01*
X240823606Y-100346875D01*
X240823607Y-100346875D01*
X241000127Y-100309355D01*
X241116382Y-100257595D01*
X241166817Y-100246875D01*
X270299933Y-100246875D01*
X270350368Y-100257595D01*
X270466623Y-100309355D01*
X270643143Y-100346875D01*
X270643144Y-100346875D01*
X270823606Y-100346875D01*
X270823607Y-100346875D01*
X271000127Y-100309355D01*
X271116382Y-100257595D01*
X271166817Y-100246875D01*
X300299933Y-100246875D01*
X300350368Y-100257595D01*
X300466623Y-100309355D01*
X300643143Y-100346875D01*
X300643144Y-100346875D01*
X300823606Y-100346875D01*
X300823607Y-100346875D01*
X301000127Y-100309355D01*
X301116382Y-100257595D01*
X301166817Y-100246875D01*
X330299933Y-100246875D01*
X330350368Y-100257595D01*
X330466623Y-100309355D01*
X330643143Y-100346875D01*
X330643144Y-100346875D01*
X330823606Y-100346875D01*
X330823607Y-100346875D01*
X331000127Y-100309355D01*
X331116382Y-100257595D01*
X331166817Y-100246875D01*
X360299933Y-100246875D01*
X360350368Y-100257595D01*
X360466623Y-100309355D01*
X360643143Y-100346875D01*
X360643144Y-100346875D01*
X360823606Y-100346875D01*
X360823607Y-100346875D01*
X361000127Y-100309355D01*
X361000129Y-100309353D01*
X361000132Y-100309353D01*
X361112428Y-100259355D01*
X361164990Y-100235953D01*
X361310988Y-100129879D01*
X361431742Y-99995768D01*
X361521974Y-99839482D01*
X361577740Y-99667850D01*
X361596604Y-99488375D01*
X361577740Y-99308900D01*
X361521974Y-99137268D01*
X361431742Y-98980982D01*
X361384446Y-98928454D01*
X361310993Y-98846875D01*
X361310990Y-98846873D01*
X361310989Y-98846872D01*
X361310988Y-98846871D01*
X361164990Y-98740797D01*
X361164989Y-98740796D01*
X361000132Y-98667396D01*
X361000126Y-98667394D01*
X360861126Y-98637849D01*
X360823607Y-98629875D01*
X360643143Y-98629875D01*
X360612200Y-98636451D01*
X360466623Y-98667394D01*
X360466617Y-98667396D01*
X360350371Y-98719154D01*
X360299935Y-98729875D01*
X331166817Y-98729875D01*
X331116382Y-98719155D01*
X331000128Y-98667395D01*
X331000126Y-98667394D01*
X330861126Y-98637849D01*
X330823607Y-98629875D01*
X330643143Y-98629875D01*
X330612200Y-98636451D01*
X330466623Y-98667394D01*
X330466617Y-98667396D01*
X330350371Y-98719154D01*
X330299935Y-98729875D01*
X301166817Y-98729875D01*
X301116382Y-98719155D01*
X301000128Y-98667395D01*
X301000126Y-98667394D01*
X300861126Y-98637849D01*
X300823607Y-98629875D01*
X300643143Y-98629875D01*
X300612200Y-98636451D01*
X300466623Y-98667394D01*
X300466617Y-98667396D01*
X300350371Y-98719154D01*
X300299935Y-98729875D01*
X271166817Y-98729875D01*
X271116382Y-98719155D01*
X271000128Y-98667395D01*
X271000126Y-98667394D01*
X270861126Y-98637849D01*
X270823607Y-98629875D01*
X270643143Y-98629875D01*
X270612200Y-98636451D01*
X270466623Y-98667394D01*
X270466617Y-98667396D01*
X270350371Y-98719154D01*
X270299935Y-98729875D01*
X241166817Y-98729875D01*
X241116382Y-98719155D01*
X241000128Y-98667395D01*
X241000126Y-98667394D01*
X240861126Y-98637849D01*
X240823607Y-98629875D01*
X240643143Y-98629875D01*
X240612200Y-98636451D01*
X240466623Y-98667394D01*
X240466617Y-98667396D01*
X240350371Y-98719154D01*
X240299935Y-98729875D01*
X211166817Y-98729875D01*
X211116382Y-98719155D01*
X211000128Y-98667395D01*
X211000126Y-98667394D01*
X210861126Y-98637849D01*
X210823607Y-98629875D01*
X210643143Y-98629875D01*
X210612200Y-98636451D01*
X210466623Y-98667394D01*
X210466617Y-98667396D01*
X210350371Y-98719154D01*
X210299935Y-98729875D01*
X181166817Y-98729875D01*
X181116382Y-98719155D01*
X181000128Y-98667395D01*
X181000126Y-98667394D01*
X180861126Y-98637849D01*
X180823607Y-98629875D01*
X180643143Y-98629875D01*
X180612200Y-98636451D01*
X180466623Y-98667394D01*
X180466617Y-98667396D01*
X180350371Y-98719154D01*
X180299935Y-98729875D01*
X151166817Y-98729875D01*
X151116382Y-98719155D01*
X151000128Y-98667395D01*
X151000126Y-98667394D01*
X150861126Y-98637849D01*
X150823607Y-98629875D01*
X150643143Y-98629875D01*
X150612200Y-98636451D01*
X150466623Y-98667394D01*
X150466617Y-98667396D01*
X150350371Y-98719154D01*
X150299935Y-98729875D01*
X121166817Y-98729875D01*
X121116382Y-98719155D01*
X121000128Y-98667395D01*
X121000126Y-98667394D01*
X120861126Y-98637849D01*
X120823607Y-98629875D01*
X120643143Y-98629875D01*
X120612200Y-98636451D01*
X120466623Y-98667394D01*
X120466617Y-98667396D01*
X120350371Y-98719154D01*
X120299935Y-98729875D01*
X91166817Y-98729875D01*
X91116382Y-98719155D01*
X91000128Y-98667395D01*
X91000126Y-98667394D01*
X90861126Y-98637849D01*
X90823607Y-98629875D01*
X90643143Y-98629875D01*
X90466625Y-98667394D01*
X90466622Y-98667394D01*
X90462672Y-98669154D01*
X90412235Y-98679875D01*
X61271817Y-98679875D01*
X61221382Y-98669155D01*
X61105128Y-98617395D01*
X61105126Y-98617394D01*
X60966126Y-98587849D01*
X60928607Y-98579875D01*
X60748143Y-98579875D01*
X60717200Y-98586451D01*
X60571623Y-98617394D01*
X60571617Y-98617396D01*
X60406761Y-98690796D01*
X60406756Y-98690799D01*
X60260763Y-98796869D01*
X60260756Y-98796875D01*
X60140007Y-98930983D01*
X60049775Y-99087269D01*
X59994010Y-99258898D01*
X59975146Y-99438375D01*
X50000000Y-99438375D01*
X50000000Y-66450000D01*
X59986771Y-66450000D01*
X60005635Y-66629476D01*
X60021880Y-66679475D01*
X60061401Y-66801107D01*
X60151633Y-66957393D01*
X60193696Y-67004108D01*
X60272381Y-67091499D01*
X60272384Y-67091501D01*
X60272387Y-67091504D01*
X60418385Y-67197578D01*
X60583242Y-67270978D01*
X60583248Y-67270980D01*
X60759768Y-67308500D01*
X60759769Y-67308500D01*
X60940231Y-67308500D01*
X60940232Y-67308500D01*
X61116752Y-67270980D01*
X61233007Y-67219220D01*
X61283442Y-67208500D01*
X90219308Y-67208500D01*
X90286347Y-67228185D01*
X90292192Y-67232180D01*
X90313385Y-67247578D01*
X90478242Y-67320978D01*
X90478248Y-67320980D01*
X90654768Y-67358500D01*
X90654769Y-67358500D01*
X90835231Y-67358500D01*
X90835232Y-67358500D01*
X91011752Y-67320980D01*
X91128007Y-67269220D01*
X91178442Y-67258500D01*
X120311558Y-67258500D01*
X120361993Y-67269220D01*
X120478248Y-67320980D01*
X120654768Y-67358500D01*
X120654769Y-67358500D01*
X120835231Y-67358500D01*
X120835232Y-67358500D01*
X121011752Y-67320980D01*
X121128007Y-67269220D01*
X121178442Y-67258500D01*
X150311558Y-67258500D01*
X150361993Y-67269220D01*
X150478248Y-67320980D01*
X150654768Y-67358500D01*
X150654769Y-67358500D01*
X150835231Y-67358500D01*
X150835232Y-67358500D01*
X151011752Y-67320980D01*
X151128007Y-67269220D01*
X151178442Y-67258500D01*
X180311558Y-67258500D01*
X180361993Y-67269220D01*
X180478248Y-67320980D01*
X180654768Y-67358500D01*
X180654769Y-67358500D01*
X180835231Y-67358500D01*
X180835232Y-67358500D01*
X181011752Y-67320980D01*
X181128007Y-67269220D01*
X181178442Y-67258500D01*
X210311558Y-67258500D01*
X210361993Y-67269220D01*
X210478248Y-67320980D01*
X210654768Y-67358500D01*
X210654769Y-67358500D01*
X210835231Y-67358500D01*
X210835232Y-67358500D01*
X211011752Y-67320980D01*
X211128007Y-67269220D01*
X211178442Y-67258500D01*
X240311558Y-67258500D01*
X240361993Y-67269220D01*
X240478248Y-67320980D01*
X240654768Y-67358500D01*
X240654769Y-67358500D01*
X240835231Y-67358500D01*
X240835232Y-67358500D01*
X241011752Y-67320980D01*
X241128007Y-67269220D01*
X241178442Y-67258500D01*
X270311558Y-67258500D01*
X270361993Y-67269220D01*
X270478248Y-67320980D01*
X270654768Y-67358500D01*
X270654769Y-67358500D01*
X270835231Y-67358500D01*
X270835232Y-67358500D01*
X271011752Y-67320980D01*
X271128007Y-67269220D01*
X271178442Y-67258500D01*
X300311558Y-67258500D01*
X300361993Y-67269220D01*
X300478248Y-67320980D01*
X300654768Y-67358500D01*
X300654769Y-67358500D01*
X300835231Y-67358500D01*
X300835232Y-67358500D01*
X301011752Y-67320980D01*
X301128007Y-67269220D01*
X301178442Y-67258500D01*
X330311558Y-67258500D01*
X330361993Y-67269220D01*
X330478248Y-67320980D01*
X330654768Y-67358500D01*
X330654769Y-67358500D01*
X330835231Y-67358500D01*
X330835232Y-67358500D01*
X331011752Y-67320980D01*
X331128007Y-67269220D01*
X331178442Y-67258500D01*
X360311558Y-67258500D01*
X360361993Y-67269220D01*
X360478248Y-67320980D01*
X360654768Y-67358500D01*
X360654769Y-67358500D01*
X360835231Y-67358500D01*
X360835232Y-67358500D01*
X361011752Y-67320980D01*
X361011754Y-67320978D01*
X361011757Y-67320978D01*
X361124053Y-67270980D01*
X361176615Y-67247578D01*
X361322613Y-67141504D01*
X361443367Y-67007393D01*
X361533599Y-66851107D01*
X361589365Y-66679475D01*
X361608229Y-66500000D01*
X361589365Y-66320525D01*
X361533599Y-66148893D01*
X361443367Y-65992607D01*
X361396071Y-65940079D01*
X361322618Y-65858500D01*
X361322615Y-65858498D01*
X361322614Y-65858497D01*
X361322613Y-65858496D01*
X361176615Y-65752422D01*
X361176614Y-65752421D01*
X361011757Y-65679021D01*
X361011751Y-65679019D01*
X360872751Y-65649474D01*
X360835232Y-65641500D01*
X360654768Y-65641500D01*
X360623825Y-65648076D01*
X360478248Y-65679019D01*
X360478242Y-65679021D01*
X360361996Y-65730779D01*
X360311560Y-65741500D01*
X331178442Y-65741500D01*
X331128007Y-65730780D01*
X331011753Y-65679020D01*
X331011751Y-65679019D01*
X330872751Y-65649474D01*
X330835232Y-65641500D01*
X330654768Y-65641500D01*
X330623825Y-65648076D01*
X330478248Y-65679019D01*
X330478242Y-65679021D01*
X330361996Y-65730779D01*
X330311560Y-65741500D01*
X301178442Y-65741500D01*
X301128007Y-65730780D01*
X301011753Y-65679020D01*
X301011751Y-65679019D01*
X300872751Y-65649474D01*
X300835232Y-65641500D01*
X300654768Y-65641500D01*
X300623825Y-65648076D01*
X300478248Y-65679019D01*
X300478242Y-65679021D01*
X300361996Y-65730779D01*
X300311560Y-65741500D01*
X271178442Y-65741500D01*
X271128007Y-65730780D01*
X271011753Y-65679020D01*
X271011751Y-65679019D01*
X270872751Y-65649474D01*
X270835232Y-65641500D01*
X270654768Y-65641500D01*
X270623825Y-65648076D01*
X270478248Y-65679019D01*
X270478242Y-65679021D01*
X270361996Y-65730779D01*
X270311560Y-65741500D01*
X241178442Y-65741500D01*
X241128007Y-65730780D01*
X241011753Y-65679020D01*
X241011751Y-65679019D01*
X240872751Y-65649474D01*
X240835232Y-65641500D01*
X240654768Y-65641500D01*
X240623825Y-65648076D01*
X240478248Y-65679019D01*
X240478242Y-65679021D01*
X240361996Y-65730779D01*
X240311560Y-65741500D01*
X211178442Y-65741500D01*
X211128007Y-65730780D01*
X211011753Y-65679020D01*
X211011751Y-65679019D01*
X210872751Y-65649474D01*
X210835232Y-65641500D01*
X210654768Y-65641500D01*
X210623825Y-65648076D01*
X210478248Y-65679019D01*
X210478242Y-65679021D01*
X210361996Y-65730779D01*
X210311560Y-65741500D01*
X181178442Y-65741500D01*
X181128007Y-65730780D01*
X181011753Y-65679020D01*
X181011751Y-65679019D01*
X180872751Y-65649474D01*
X180835232Y-65641500D01*
X180654768Y-65641500D01*
X180623825Y-65648076D01*
X180478248Y-65679019D01*
X180478242Y-65679021D01*
X180361996Y-65730779D01*
X180311560Y-65741500D01*
X151178442Y-65741500D01*
X151128007Y-65730780D01*
X151011753Y-65679020D01*
X151011751Y-65679019D01*
X150872751Y-65649474D01*
X150835232Y-65641500D01*
X150654768Y-65641500D01*
X150623825Y-65648076D01*
X150478248Y-65679019D01*
X150478242Y-65679021D01*
X150361996Y-65730779D01*
X150311560Y-65741500D01*
X121178442Y-65741500D01*
X121128007Y-65730780D01*
X121011753Y-65679020D01*
X121011751Y-65679019D01*
X120872751Y-65649474D01*
X120835232Y-65641500D01*
X120654768Y-65641500D01*
X120623825Y-65648076D01*
X120478248Y-65679019D01*
X120478242Y-65679021D01*
X120361996Y-65730779D01*
X120311560Y-65741500D01*
X91178442Y-65741500D01*
X91128007Y-65730780D01*
X91011753Y-65679020D01*
X91011751Y-65679019D01*
X90872751Y-65649474D01*
X90835232Y-65641500D01*
X90654768Y-65641500D01*
X90478250Y-65679019D01*
X90478247Y-65679019D01*
X90474297Y-65680779D01*
X90423860Y-65691500D01*
X61283442Y-65691500D01*
X61233007Y-65680780D01*
X61116753Y-65629020D01*
X61116751Y-65629019D01*
X60977751Y-65599474D01*
X60940232Y-65591500D01*
X60759768Y-65591500D01*
X60728825Y-65598076D01*
X60583248Y-65629019D01*
X60583242Y-65629021D01*
X60418386Y-65702421D01*
X60418381Y-65702424D01*
X60272388Y-65808494D01*
X60272381Y-65808500D01*
X60151632Y-65942608D01*
X60061400Y-66098894D01*
X60005635Y-66270523D01*
X59986771Y-66450000D01*
X50000000Y-66450000D01*
X50000000Y-52101345D01*
X50601500Y-52101345D01*
X50601500Y-53898654D01*
X50608011Y-53959202D01*
X50608011Y-53959204D01*
X50659111Y-54096204D01*
X50746739Y-54213261D01*
X50863796Y-54300889D01*
X51000799Y-54351989D01*
X51028050Y-54354918D01*
X51061345Y-54358499D01*
X51061362Y-54358500D01*
X52858638Y-54358500D01*
X52858654Y-54358499D01*
X52885692Y-54355591D01*
X52919201Y-54351989D01*
X53056204Y-54300889D01*
X53173261Y-54213261D01*
X53260889Y-54096204D01*
X53306138Y-53974887D01*
X53348009Y-53918956D01*
X53413474Y-53894539D01*
X53481746Y-53909391D01*
X53513545Y-53934236D01*
X53576760Y-54002906D01*
X53754424Y-54141189D01*
X53754425Y-54141189D01*
X53754427Y-54141191D01*
X53814314Y-54173600D01*
X53952426Y-54248342D01*
X54165365Y-54321444D01*
X54387431Y-54358500D01*
X54612569Y-54358500D01*
X54834635Y-54321444D01*
X55047574Y-54248342D01*
X55245576Y-54141189D01*
X55423240Y-54002906D01*
X55544594Y-53871082D01*
X55575715Y-53837276D01*
X55575715Y-53837275D01*
X55575722Y-53837268D01*
X55669749Y-53693347D01*
X55722894Y-53647994D01*
X55792125Y-53638570D01*
X55855461Y-53668072D01*
X55875130Y-53690048D01*
X56001890Y-53871078D01*
X56168917Y-54038105D01*
X56362421Y-54173600D01*
X56576507Y-54273429D01*
X56576516Y-54273433D01*
X56790000Y-54330634D01*
X56790000Y-53433012D01*
X56847007Y-53465925D01*
X56974174Y-53500000D01*
X57105826Y-53500000D01*
X57232993Y-53465925D01*
X57290000Y-53433012D01*
X57290000Y-54330633D01*
X57503483Y-54273433D01*
X57503492Y-54273429D01*
X57717578Y-54173600D01*
X57911082Y-54038105D01*
X58078105Y-53871082D01*
X58213600Y-53677578D01*
X58313429Y-53463492D01*
X58313432Y-53463486D01*
X58370636Y-53250000D01*
X57473012Y-53250000D01*
X57505925Y-53192993D01*
X57540000Y-53065826D01*
X57540000Y-52934174D01*
X57529158Y-52893713D01*
X172149500Y-52893713D01*
X172149500Y-53106287D01*
X172182754Y-53316243D01*
X172230598Y-53463492D01*
X172248444Y-53518414D01*
X172344951Y-53707820D01*
X172469890Y-53879786D01*
X172620213Y-54030109D01*
X172792179Y-54155048D01*
X172792181Y-54155049D01*
X172792184Y-54155051D01*
X172981588Y-54251557D01*
X173183757Y-54317246D01*
X173393713Y-54350500D01*
X173393714Y-54350500D01*
X173606286Y-54350500D01*
X173606287Y-54350500D01*
X173816243Y-54317246D01*
X174018412Y-54251557D01*
X174207816Y-54155051D01*
X174288813Y-54096204D01*
X174379786Y-54030109D01*
X174379788Y-54030106D01*
X174379792Y-54030104D01*
X174530104Y-53879792D01*
X174530106Y-53879788D01*
X174530109Y-53879786D01*
X174655048Y-53707820D01*
X174655047Y-53707820D01*
X174655051Y-53707816D01*
X174751557Y-53518412D01*
X174817246Y-53316243D01*
X174850500Y-53106287D01*
X174850500Y-52893713D01*
X200149500Y-52893713D01*
X200149500Y-53106287D01*
X200182754Y-53316243D01*
X200230598Y-53463492D01*
X200248444Y-53518414D01*
X200344951Y-53707820D01*
X200469890Y-53879786D01*
X200620213Y-54030109D01*
X200792179Y-54155048D01*
X200792181Y-54155049D01*
X200792184Y-54155051D01*
X200981588Y-54251557D01*
X201183757Y-54317246D01*
X201393713Y-54350500D01*
X201393714Y-54350500D01*
X201606286Y-54350500D01*
X201606287Y-54350500D01*
X201816243Y-54317246D01*
X202018412Y-54251557D01*
X202207816Y-54155051D01*
X202288813Y-54096204D01*
X202379786Y-54030109D01*
X202379788Y-54030106D01*
X202379792Y-54030104D01*
X202530104Y-53879792D01*
X202530106Y-53879788D01*
X202530109Y-53879786D01*
X202655048Y-53707820D01*
X202655047Y-53707820D01*
X202655051Y-53707816D01*
X202751557Y-53518412D01*
X202817246Y-53316243D01*
X202850500Y-53106287D01*
X202850500Y-52893713D01*
X202817246Y-52683757D01*
X202751557Y-52481588D01*
X202655051Y-52292184D01*
X202655049Y-52292181D01*
X202655048Y-52292179D01*
X202530109Y-52120213D01*
X202379786Y-51969890D01*
X202207820Y-51844951D01*
X202018414Y-51748444D01*
X202018413Y-51748443D01*
X202018412Y-51748443D01*
X201816243Y-51682754D01*
X201816241Y-51682753D01*
X201816240Y-51682753D01*
X201654957Y-51657208D01*
X201606287Y-51649500D01*
X201393713Y-51649500D01*
X201345042Y-51657208D01*
X201183760Y-51682753D01*
X200981585Y-51748444D01*
X200792179Y-51844951D01*
X200620213Y-51969890D01*
X200469890Y-52120213D01*
X200344951Y-52292179D01*
X200248444Y-52481585D01*
X200182753Y-52683760D01*
X200181291Y-52692993D01*
X200149500Y-52893713D01*
X174850500Y-52893713D01*
X174817246Y-52683757D01*
X174751557Y-52481588D01*
X174655051Y-52292184D01*
X174655049Y-52292181D01*
X174655048Y-52292179D01*
X174530109Y-52120213D01*
X174379786Y-51969890D01*
X174207820Y-51844951D01*
X174018414Y-51748444D01*
X174018413Y-51748443D01*
X174018412Y-51748443D01*
X173816243Y-51682754D01*
X173816241Y-51682753D01*
X173816240Y-51682753D01*
X173654957Y-51657208D01*
X173606287Y-51649500D01*
X173393713Y-51649500D01*
X173345042Y-51657208D01*
X173183760Y-51682753D01*
X172981585Y-51748444D01*
X172792179Y-51844951D01*
X172620213Y-51969890D01*
X172469890Y-52120213D01*
X172344951Y-52292179D01*
X172248444Y-52481585D01*
X172182753Y-52683760D01*
X172181291Y-52692993D01*
X172149500Y-52893713D01*
X57529158Y-52893713D01*
X57505925Y-52807007D01*
X57473012Y-52750000D01*
X58370636Y-52750000D01*
X58370635Y-52749999D01*
X58313432Y-52536513D01*
X58313429Y-52536507D01*
X58213600Y-52322422D01*
X58213599Y-52322420D01*
X58078113Y-52128926D01*
X58078108Y-52128920D01*
X57911082Y-51961894D01*
X57717578Y-51826399D01*
X57503492Y-51726570D01*
X57503486Y-51726567D01*
X57290000Y-51669364D01*
X57290000Y-52566988D01*
X57232993Y-52534075D01*
X57105826Y-52500000D01*
X56974174Y-52500000D01*
X56847007Y-52534075D01*
X56790000Y-52566988D01*
X56790000Y-51669364D01*
X56789999Y-51669364D01*
X56576513Y-51726567D01*
X56576507Y-51726570D01*
X56362422Y-51826399D01*
X56362420Y-51826400D01*
X56168926Y-51961886D01*
X56168920Y-51961891D01*
X56001891Y-52128920D01*
X56001890Y-52128922D01*
X55875131Y-52309952D01*
X55820554Y-52353577D01*
X55751055Y-52360769D01*
X55688701Y-52329247D01*
X55669752Y-52306656D01*
X55575722Y-52162732D01*
X55575715Y-52162725D01*
X55575715Y-52162723D01*
X55423243Y-51997097D01*
X55423238Y-51997092D01*
X55245577Y-51858812D01*
X55245572Y-51858808D01*
X55047580Y-51751661D01*
X55047577Y-51751659D01*
X55047574Y-51751658D01*
X55047571Y-51751657D01*
X55047569Y-51751656D01*
X54834637Y-51678556D01*
X54612569Y-51641500D01*
X54387431Y-51641500D01*
X54165362Y-51678556D01*
X53952430Y-51751656D01*
X53952419Y-51751661D01*
X53754427Y-51858808D01*
X53754422Y-51858812D01*
X53576761Y-51997092D01*
X53513548Y-52065760D01*
X53453661Y-52101750D01*
X53383823Y-52099649D01*
X53326207Y-52060124D01*
X53306138Y-52025110D01*
X53260889Y-51903796D01*
X53227214Y-51858812D01*
X53173261Y-51786739D01*
X53056204Y-51699111D01*
X53012350Y-51682754D01*
X52919203Y-51648011D01*
X52858654Y-51641500D01*
X52858638Y-51641500D01*
X51061362Y-51641500D01*
X51061345Y-51641500D01*
X51000797Y-51648011D01*
X51000795Y-51648011D01*
X50863795Y-51699111D01*
X50746739Y-51786739D01*
X50659111Y-51903795D01*
X50608011Y-52040795D01*
X50608011Y-52040797D01*
X50601500Y-52101345D01*
X50000000Y-52101345D01*
X50000000Y-50124000D01*
X50019685Y-50056961D01*
X50072489Y-50011206D01*
X50124000Y-50000000D01*
X374876000Y-50000000D01*
X374943039Y-50019685D01*
G37*
G04 #@! TD.AperFunction*
M02*
