G04 #@! TF.GenerationSoftware,KiCad,Pcbnew,8.0.2-8.0.2-0~ubuntu22.04.1*
G04 #@! TF.CreationDate,2024-05-18T22:12:29+02:00*
G04 #@! TF.ProjectId,qclock,71636c6f-636b-42e6-9b69-6361645f7063,rev?*
G04 #@! TF.SameCoordinates,Original*
G04 #@! TF.FileFunction,Paste,Top*
G04 #@! TF.FilePolarity,Positive*
%FSLAX46Y46*%
G04 Gerber Fmt 4.6, Leading zero omitted, Abs format (unit mm)*
G04 Created by KiCad (PCBNEW 8.0.2-8.0.2-0~ubuntu22.04.1) date 2024-05-18 22:12:29*
%MOMM*%
%LPD*%
G01*
G04 APERTURE LIST*
G04 Aperture macros list*
%AMRoundRect*
0 Rectangle with rounded corners*
0 $1 Rounding radius*
0 $2 $3 $4 $5 $6 $7 $8 $9 X,Y pos of 4 corners*
0 Add a 4 corners polygon primitive as box body*
4,1,4,$2,$3,$4,$5,$6,$7,$8,$9,$2,$3,0*
0 Add four circle primitives for the rounded corners*
1,1,$1+$1,$2,$3*
1,1,$1+$1,$4,$5*
1,1,$1+$1,$6,$7*
1,1,$1+$1,$8,$9*
0 Add four rect primitives between the rounded corners*
20,1,$1+$1,$2,$3,$4,$5,0*
20,1,$1+$1,$4,$5,$6,$7,0*
20,1,$1+$1,$6,$7,$8,$9,0*
20,1,$1+$1,$8,$9,$2,$3,0*%
G04 Aperture macros list end*
%ADD10R,0.900000X1.500000*%
%ADD11RoundRect,0.140000X0.170000X-0.140000X0.170000X0.140000X-0.170000X0.140000X-0.170000X-0.140000X0*%
G04 APERTURE END LIST*
D10*
X360950000Y-66450000D03*
X364250000Y-66450000D03*
X364250000Y-61550000D03*
X360950000Y-61550000D03*
D11*
X338261625Y-102480000D03*
X338261625Y-101520000D03*
D10*
X150880000Y-165450000D03*
X154180000Y-165450000D03*
X154180000Y-160550000D03*
X150880000Y-160550000D03*
D11*
X368261625Y-69480000D03*
X368261625Y-68520000D03*
X158261625Y-135480000D03*
X158261625Y-134520000D03*
X248238375Y-366430000D03*
X248238375Y-365470000D03*
X158261625Y-267480000D03*
X158261625Y-266520000D03*
X128261625Y-201480000D03*
X128261625Y-200520000D03*
X218261625Y-333480000D03*
X218261625Y-332520000D03*
D10*
X180890000Y-231450000D03*
X184190000Y-231450000D03*
X184190000Y-226550000D03*
X180890000Y-226550000D03*
D11*
X368261625Y-201480000D03*
X368261625Y-200520000D03*
X338261625Y-333480000D03*
X338261625Y-332520000D03*
X98261625Y-234480000D03*
X98261625Y-233520000D03*
X308261625Y-168480000D03*
X308261625Y-167520000D03*
D10*
X150880000Y-99450000D03*
X154180000Y-99450000D03*
X154180000Y-94550000D03*
X150880000Y-94550000D03*
X300930000Y-165450000D03*
X304230000Y-165450000D03*
X304230000Y-160550000D03*
X300930000Y-160550000D03*
X90860000Y-66450000D03*
X94160000Y-66450000D03*
X94160000Y-61550000D03*
X90860000Y-61550000D03*
X330940000Y-264450000D03*
X334240000Y-264450000D03*
X334240000Y-259550000D03*
X330940000Y-259550000D03*
X60850000Y-198450000D03*
X64150000Y-198450000D03*
X64150000Y-193550000D03*
X60850000Y-193550000D03*
D11*
X368261625Y-300480000D03*
X368261625Y-299520000D03*
D10*
X120870000Y-264450000D03*
X124170000Y-264450000D03*
X124170000Y-259550000D03*
X120870000Y-259550000D03*
D11*
X338261625Y-135480000D03*
X338261625Y-134520000D03*
X338261625Y-168480000D03*
X338261625Y-167520000D03*
X308261625Y-333480000D03*
X308261625Y-332520000D03*
X278238375Y-366430000D03*
X278238375Y-365470000D03*
X368261625Y-102480000D03*
X368261625Y-101520000D03*
D10*
X180890000Y-66450000D03*
X184190000Y-66450000D03*
X184190000Y-61550000D03*
X180890000Y-61550000D03*
X240910000Y-264450000D03*
X244210000Y-264450000D03*
X244210000Y-259550000D03*
X240910000Y-259550000D03*
X270920000Y-264450000D03*
X274220000Y-264450000D03*
X274220000Y-259550000D03*
X270920000Y-259550000D03*
X90860000Y-330450000D03*
X94160000Y-330450000D03*
X94160000Y-325550000D03*
X90860000Y-325550000D03*
D11*
X338261625Y-201480000D03*
X338261625Y-200520000D03*
X278261625Y-201480000D03*
X278261625Y-200520000D03*
D10*
X210900000Y-165450000D03*
X214200000Y-165450000D03*
X214200000Y-160550000D03*
X210900000Y-160550000D03*
D11*
X68261625Y-168480000D03*
X68261625Y-167520000D03*
X308261625Y-201480000D03*
X308261625Y-200520000D03*
X248261625Y-267480000D03*
X248261625Y-266520000D03*
X128261625Y-333480000D03*
X128261625Y-332520000D03*
D10*
X210900000Y-330450000D03*
X214200000Y-330450000D03*
X214200000Y-325550000D03*
X210900000Y-325550000D03*
X210900000Y-264450000D03*
X214200000Y-264450000D03*
X214200000Y-259550000D03*
X210900000Y-259550000D03*
X360950000Y-99450000D03*
X364250000Y-99450000D03*
X364250000Y-94550000D03*
X360950000Y-94550000D03*
X360850000Y-297450000D03*
X364150000Y-297450000D03*
X364150000Y-292550000D03*
X360850000Y-292550000D03*
D11*
X98261625Y-69480000D03*
X98261625Y-68520000D03*
X308261625Y-102480000D03*
X308261625Y-101520000D03*
X218261625Y-201480000D03*
X218261625Y-200520000D03*
D10*
X60850000Y-99450000D03*
X64150000Y-99450000D03*
X64150000Y-94550000D03*
X60850000Y-94550000D03*
X120870000Y-66450000D03*
X124170000Y-66450000D03*
X124170000Y-61550000D03*
X120870000Y-61550000D03*
X210900000Y-363500000D03*
X214200000Y-363500000D03*
X214200000Y-358600000D03*
X210900000Y-358600000D03*
X90860000Y-297450000D03*
X94160000Y-297450000D03*
X94160000Y-292550000D03*
X90860000Y-292550000D03*
D11*
X248261625Y-69480000D03*
X248261625Y-68520000D03*
D10*
X180890000Y-297450000D03*
X184190000Y-297450000D03*
X184190000Y-292550000D03*
X180890000Y-292550000D03*
D11*
X68261625Y-300480000D03*
X68261625Y-299520000D03*
X98261625Y-135480000D03*
X98261625Y-134520000D03*
D10*
X240910000Y-99450000D03*
X244210000Y-99450000D03*
X244210000Y-94550000D03*
X240910000Y-94550000D03*
D11*
X218238375Y-366430000D03*
X218238375Y-365470000D03*
D10*
X300930000Y-330450000D03*
X304230000Y-330450000D03*
X304230000Y-325550000D03*
X300930000Y-325550000D03*
X150880000Y-132450000D03*
X154180000Y-132450000D03*
X154180000Y-127550000D03*
X150880000Y-127550000D03*
X240910000Y-330450000D03*
X244210000Y-330450000D03*
X244210000Y-325550000D03*
X240910000Y-325550000D03*
D11*
X338238375Y-366430000D03*
X338238375Y-365470000D03*
X278261625Y-300480000D03*
X278261625Y-299520000D03*
D10*
X300930000Y-264450000D03*
X304230000Y-264450000D03*
X304230000Y-259550000D03*
X300930000Y-259550000D03*
D11*
X188261625Y-333480000D03*
X188261625Y-332520000D03*
D10*
X150880000Y-264450000D03*
X154180000Y-264450000D03*
X154180000Y-259550000D03*
X150880000Y-259550000D03*
X120870000Y-198450000D03*
X124170000Y-198450000D03*
X124170000Y-193550000D03*
X120870000Y-193550000D03*
X120870000Y-231450000D03*
X124170000Y-231450000D03*
X124170000Y-226550000D03*
X120870000Y-226550000D03*
D11*
X98238375Y-366430000D03*
X98238375Y-365470000D03*
D10*
X270920000Y-198450000D03*
X274220000Y-198450000D03*
X274220000Y-193550000D03*
X270920000Y-193550000D03*
X360950000Y-132450000D03*
X364250000Y-132450000D03*
X364250000Y-127550000D03*
X360950000Y-127550000D03*
X150880000Y-297450000D03*
X154180000Y-297450000D03*
X154180000Y-292550000D03*
X150880000Y-292550000D03*
D11*
X98261625Y-267480000D03*
X98261625Y-266520000D03*
D10*
X270920000Y-297450000D03*
X274220000Y-297450000D03*
X274220000Y-292550000D03*
X270920000Y-292550000D03*
D11*
X368261625Y-234480000D03*
X368261625Y-233520000D03*
D10*
X300930000Y-297450000D03*
X304230000Y-297450000D03*
X304230000Y-292550000D03*
X300930000Y-292550000D03*
X150880000Y-330450000D03*
X154180000Y-330450000D03*
X154180000Y-325550000D03*
X150880000Y-325550000D03*
X330940000Y-330450000D03*
X334240000Y-330450000D03*
X334240000Y-325550000D03*
X330940000Y-325550000D03*
X240910000Y-363500000D03*
X244210000Y-363500000D03*
X244210000Y-358600000D03*
X240910000Y-358600000D03*
D11*
X218261625Y-135480000D03*
X218261625Y-134520000D03*
X308238375Y-366430000D03*
X308238375Y-365470000D03*
D10*
X360850000Y-264450000D03*
X364150000Y-264450000D03*
X364150000Y-259550000D03*
X360850000Y-259550000D03*
D11*
X188261625Y-102480000D03*
X188261625Y-101520000D03*
D10*
X60850000Y-297450000D03*
X64150000Y-297450000D03*
X64150000Y-292550000D03*
X60850000Y-292550000D03*
D11*
X308261625Y-267480000D03*
X308261625Y-266520000D03*
D10*
X150880000Y-198450000D03*
X154180000Y-198450000D03*
X154180000Y-193550000D03*
X150880000Y-193550000D03*
X360950000Y-330450000D03*
X364250000Y-330450000D03*
X364250000Y-325550000D03*
X360950000Y-325550000D03*
X300930000Y-198450000D03*
X304230000Y-198450000D03*
X304230000Y-193550000D03*
X300930000Y-193550000D03*
X240910000Y-66450000D03*
X244210000Y-66450000D03*
X244210000Y-61550000D03*
X240910000Y-61550000D03*
D11*
X158261625Y-69480000D03*
X158261625Y-68520000D03*
D10*
X120870000Y-363500000D03*
X124170000Y-363500000D03*
X124170000Y-358600000D03*
X120870000Y-358600000D03*
D11*
X368261625Y-333480000D03*
X368261625Y-332520000D03*
X248261625Y-135480000D03*
X248261625Y-134520000D03*
D10*
X240910000Y-165450000D03*
X244210000Y-165450000D03*
X244210000Y-160550000D03*
X240910000Y-160550000D03*
X210900000Y-297450000D03*
X214200000Y-297450000D03*
X214200000Y-292550000D03*
X210900000Y-292550000D03*
D11*
X248261625Y-234480000D03*
X248261625Y-233520000D03*
D10*
X60850000Y-264450000D03*
X64150000Y-264450000D03*
X64150000Y-259550000D03*
X60850000Y-259550000D03*
D11*
X158261625Y-168480000D03*
X158261625Y-167520000D03*
X128261625Y-168480000D03*
X128261625Y-167520000D03*
X218261625Y-234480000D03*
X218261625Y-233520000D03*
D10*
X300930000Y-99450000D03*
X304230000Y-99450000D03*
X304230000Y-94550000D03*
X300930000Y-94550000D03*
X90860000Y-165450000D03*
X94160000Y-165450000D03*
X94160000Y-160550000D03*
X90860000Y-160550000D03*
D11*
X128261625Y-102480000D03*
X128261625Y-101520000D03*
D10*
X300930000Y-132450000D03*
X304230000Y-132450000D03*
X304230000Y-127550000D03*
X300930000Y-127550000D03*
X180890000Y-264450000D03*
X184190000Y-264450000D03*
X184190000Y-259550000D03*
X180890000Y-259550000D03*
X210900000Y-231450000D03*
X214200000Y-231450000D03*
X214200000Y-226550000D03*
X210900000Y-226550000D03*
D11*
X248261625Y-102480000D03*
X248261625Y-101520000D03*
X158238375Y-366430000D03*
X158238375Y-365470000D03*
D10*
X60850000Y-165450000D03*
X64150000Y-165450000D03*
X64150000Y-160550000D03*
X60850000Y-160550000D03*
D11*
X278261625Y-135480000D03*
X278261625Y-134520000D03*
D10*
X270920000Y-330450000D03*
X274220000Y-330450000D03*
X274220000Y-325550000D03*
X270920000Y-325550000D03*
D11*
X188261625Y-168480000D03*
X188261625Y-167520000D03*
D10*
X60850000Y-330450000D03*
X64150000Y-330450000D03*
X64150000Y-325550000D03*
X60850000Y-325550000D03*
X300930000Y-363500000D03*
X304230000Y-363500000D03*
X304230000Y-358600000D03*
X300930000Y-358600000D03*
D11*
X68261625Y-267480000D03*
X68261625Y-266520000D03*
D10*
X120870000Y-132450000D03*
X124170000Y-132450000D03*
X124170000Y-127550000D03*
X120870000Y-127550000D03*
D11*
X278261625Y-168480000D03*
X278261625Y-167520000D03*
X68261625Y-102480000D03*
X68261625Y-101520000D03*
X308261625Y-135480000D03*
X308261625Y-134520000D03*
D10*
X360950000Y-165450000D03*
X364250000Y-165450000D03*
X364250000Y-160550000D03*
X360950000Y-160550000D03*
X90860000Y-99450000D03*
X94160000Y-99450000D03*
X94160000Y-94550000D03*
X90860000Y-94550000D03*
X180890000Y-165450000D03*
X184190000Y-165450000D03*
X184190000Y-160550000D03*
X180890000Y-160550000D03*
D11*
X188261625Y-267480000D03*
X188261625Y-266520000D03*
D10*
X120870000Y-165450000D03*
X124170000Y-165450000D03*
X124170000Y-160550000D03*
X120870000Y-160550000D03*
D11*
X128261625Y-267480000D03*
X128261625Y-266520000D03*
X128261625Y-135480000D03*
X128261625Y-134520000D03*
D10*
X330940000Y-165450000D03*
X334240000Y-165450000D03*
X334240000Y-160550000D03*
X330940000Y-160550000D03*
D11*
X368261625Y-168480000D03*
X368261625Y-167520000D03*
X68261625Y-333480000D03*
X68261625Y-332520000D03*
X68261625Y-234480000D03*
X68261625Y-233520000D03*
D10*
X210900000Y-132450000D03*
X214200000Y-132450000D03*
X214200000Y-127550000D03*
X210900000Y-127550000D03*
X180890000Y-132450000D03*
X184190000Y-132450000D03*
X184190000Y-127550000D03*
X180890000Y-127550000D03*
X150880000Y-363500000D03*
X154180000Y-363500000D03*
X154180000Y-358600000D03*
X150880000Y-358600000D03*
D11*
X128238375Y-366430000D03*
X128238375Y-365470000D03*
D10*
X300930000Y-66450000D03*
X304230000Y-66450000D03*
X304230000Y-61550000D03*
X300930000Y-61550000D03*
D11*
X158261625Y-234480000D03*
X158261625Y-233520000D03*
X68238375Y-366430000D03*
X68238375Y-365470000D03*
D10*
X60850000Y-132450000D03*
X64150000Y-132450000D03*
X64150000Y-127550000D03*
X60850000Y-127550000D03*
X270920000Y-165450000D03*
X274220000Y-165450000D03*
X274220000Y-160550000D03*
X270920000Y-160550000D03*
D11*
X98261625Y-300480000D03*
X98261625Y-299520000D03*
X368261625Y-267480000D03*
X368261625Y-266520000D03*
X68261625Y-135480000D03*
X68261625Y-134520000D03*
X278261625Y-69480000D03*
X278261625Y-68520000D03*
D10*
X90860000Y-198450000D03*
X94160000Y-198450000D03*
X94160000Y-193550000D03*
X90860000Y-193550000D03*
D11*
X278261625Y-102480000D03*
X278261625Y-101520000D03*
X128261625Y-300480000D03*
X128261625Y-299520000D03*
D10*
X300930000Y-231450000D03*
X304230000Y-231450000D03*
X304230000Y-226550000D03*
X300930000Y-226550000D03*
X270920000Y-132450000D03*
X274220000Y-132450000D03*
X274220000Y-127550000D03*
X270920000Y-127550000D03*
X240910000Y-132450000D03*
X244210000Y-132450000D03*
X244210000Y-127550000D03*
X240910000Y-127550000D03*
X90860000Y-231450000D03*
X94160000Y-231450000D03*
X94160000Y-226550000D03*
X90860000Y-226550000D03*
X90860000Y-132450000D03*
X94160000Y-132450000D03*
X94160000Y-127550000D03*
X90860000Y-127550000D03*
X150880000Y-231450000D03*
X154180000Y-231450000D03*
X154180000Y-226550000D03*
X150880000Y-226550000D03*
D11*
X278261625Y-333480000D03*
X278261625Y-332520000D03*
D10*
X240910000Y-198450000D03*
X244210000Y-198450000D03*
X244210000Y-193550000D03*
X240910000Y-193550000D03*
X210900000Y-66450000D03*
X214200000Y-66450000D03*
X214200000Y-61550000D03*
X210900000Y-61550000D03*
X360950000Y-363500000D03*
X364250000Y-363500000D03*
X364250000Y-358600000D03*
X360950000Y-358600000D03*
X330940000Y-363500000D03*
X334240000Y-363500000D03*
X334240000Y-358600000D03*
X330940000Y-358600000D03*
D11*
X338261625Y-300480000D03*
X338261625Y-299520000D03*
X98261625Y-168480000D03*
X98261625Y-167520000D03*
D10*
X120870000Y-330450000D03*
X124170000Y-330450000D03*
X124170000Y-325550000D03*
X120870000Y-325550000D03*
X90860000Y-264450000D03*
X94160000Y-264450000D03*
X94160000Y-259550000D03*
X90860000Y-259550000D03*
D11*
X308261625Y-300480000D03*
X308261625Y-299520000D03*
X158261625Y-201480000D03*
X158261625Y-200520000D03*
D10*
X330940000Y-231450000D03*
X334240000Y-231450000D03*
X334240000Y-226550000D03*
X330940000Y-226550000D03*
D11*
X98261625Y-201480000D03*
X98261625Y-200520000D03*
D10*
X360950000Y-231450000D03*
X364250000Y-231450000D03*
X364250000Y-226550000D03*
X360950000Y-226550000D03*
X330940000Y-297450000D03*
X334240000Y-297450000D03*
X334240000Y-292550000D03*
X330940000Y-292550000D03*
D11*
X338261625Y-267480000D03*
X338261625Y-266520000D03*
D10*
X210900000Y-198450000D03*
X214200000Y-198450000D03*
X214200000Y-193550000D03*
X210900000Y-193550000D03*
X330940000Y-99450000D03*
X334240000Y-99450000D03*
X334240000Y-94550000D03*
X330940000Y-94550000D03*
D11*
X188261625Y-300480000D03*
X188261625Y-299520000D03*
X68261625Y-69480000D03*
X68261625Y-68520000D03*
X158261625Y-300480000D03*
X158261625Y-299520000D03*
X218261625Y-168480000D03*
X218261625Y-167520000D03*
X188261625Y-69480000D03*
X188261625Y-68520000D03*
X368238375Y-366430000D03*
X368238375Y-365470000D03*
X368261625Y-135480000D03*
X368261625Y-134520000D03*
D10*
X60850000Y-66450000D03*
X64150000Y-66450000D03*
X64150000Y-61550000D03*
X60850000Y-61550000D03*
D11*
X278261625Y-267480000D03*
X278261625Y-266520000D03*
D10*
X270920000Y-231450000D03*
X274220000Y-231450000D03*
X274220000Y-226550000D03*
X270920000Y-226550000D03*
X270920000Y-363500000D03*
X274220000Y-363500000D03*
X274220000Y-358600000D03*
X270920000Y-358600000D03*
D11*
X248261625Y-168480000D03*
X248261625Y-167520000D03*
D10*
X360950000Y-198450000D03*
X364250000Y-198450000D03*
X364250000Y-193550000D03*
X360950000Y-193550000D03*
X180890000Y-330450000D03*
X184190000Y-330450000D03*
X184190000Y-325550000D03*
X180890000Y-325550000D03*
D11*
X308261625Y-69480000D03*
X308261625Y-68520000D03*
D10*
X270920000Y-99450000D03*
X274220000Y-99450000D03*
X274220000Y-94550000D03*
X270920000Y-94550000D03*
D11*
X338261625Y-69480000D03*
X338261625Y-68520000D03*
D10*
X150880000Y-66450000D03*
X154180000Y-66450000D03*
X154180000Y-61550000D03*
X150880000Y-61550000D03*
X330940000Y-132450000D03*
X334240000Y-132450000D03*
X334240000Y-127550000D03*
X330940000Y-127550000D03*
X270920000Y-66450000D03*
X274220000Y-66450000D03*
X274220000Y-61550000D03*
X270920000Y-61550000D03*
D11*
X98261625Y-102480000D03*
X98261625Y-101520000D03*
X188261625Y-201480000D03*
X188261625Y-200520000D03*
D10*
X330940000Y-198450000D03*
X334240000Y-198450000D03*
X334240000Y-193550000D03*
X330940000Y-193550000D03*
D11*
X338261625Y-234480000D03*
X338261625Y-233520000D03*
X158261625Y-333480000D03*
X158261625Y-332520000D03*
X218261625Y-102480000D03*
X218261625Y-101520000D03*
D10*
X210900000Y-99450000D03*
X214200000Y-99450000D03*
X214200000Y-94550000D03*
X210900000Y-94550000D03*
D11*
X128261625Y-234480000D03*
X128261625Y-233520000D03*
X248261625Y-201480000D03*
X248261625Y-200520000D03*
D10*
X330940000Y-66450000D03*
X334240000Y-66450000D03*
X334240000Y-61550000D03*
X330940000Y-61550000D03*
X240910000Y-297450000D03*
X244210000Y-297450000D03*
X244210000Y-292550000D03*
X240910000Y-292550000D03*
D11*
X188261625Y-234480000D03*
X188261625Y-233520000D03*
D10*
X240910000Y-231450000D03*
X244210000Y-231450000D03*
X244210000Y-226550000D03*
X240910000Y-226550000D03*
D11*
X188261625Y-135480000D03*
X188261625Y-134520000D03*
X278261625Y-234480000D03*
X278261625Y-233520000D03*
X68261625Y-201480000D03*
X68261625Y-200520000D03*
D10*
X180890000Y-363500000D03*
X184190000Y-363500000D03*
X184190000Y-358600000D03*
X180890000Y-358600000D03*
D11*
X188238375Y-366430000D03*
X188238375Y-365470000D03*
D10*
X90860000Y-363500000D03*
X94160000Y-363500000D03*
X94160000Y-358600000D03*
X90860000Y-358600000D03*
D11*
X128261625Y-69480000D03*
X128261625Y-68520000D03*
D10*
X120870000Y-297450000D03*
X124170000Y-297450000D03*
X124170000Y-292550000D03*
X120870000Y-292550000D03*
D11*
X158261625Y-102480000D03*
X158261625Y-101520000D03*
X248261625Y-333480000D03*
X248261625Y-332520000D03*
D10*
X120870000Y-99450000D03*
X124170000Y-99450000D03*
X124170000Y-94550000D03*
X120870000Y-94550000D03*
X60850000Y-231450000D03*
X64150000Y-231450000D03*
X64150000Y-226550000D03*
X60850000Y-226550000D03*
X180890000Y-99450000D03*
X184190000Y-99450000D03*
X184190000Y-94550000D03*
X180890000Y-94550000D03*
D11*
X248261625Y-300480000D03*
X248261625Y-299520000D03*
X308261625Y-234480000D03*
X308261625Y-233520000D03*
X218261625Y-267480000D03*
X218261625Y-266520000D03*
X98261625Y-333480000D03*
X98261625Y-332520000D03*
X218261625Y-69480000D03*
X218261625Y-68520000D03*
D10*
X60850000Y-363500000D03*
X64150000Y-363500000D03*
X64150000Y-358600000D03*
X60850000Y-358600000D03*
X180890000Y-198450000D03*
X184190000Y-198450000D03*
X184190000Y-193550000D03*
X180890000Y-193550000D03*
D11*
X218261625Y-300480000D03*
X218261625Y-299520000D03*
M02*
