G04 #@! TF.GenerationSoftware,KiCad,Pcbnew,8.0.2-8.0.2-0~ubuntu22.04.1*
G04 #@! TF.CreationDate,2024-05-18T22:12:29+02:00*
G04 #@! TF.ProjectId,qclock,71636c6f-636b-42e6-9b69-6361645f7063,rev?*
G04 #@! TF.SameCoordinates,Original*
G04 #@! TF.FileFunction,Legend,Bot*
G04 #@! TF.FilePolarity,Positive*
%FSLAX46Y46*%
G04 Gerber Fmt 4.6, Leading zero omitted, Abs format (unit mm)*
G04 Created by KiCad (PCBNEW 8.0.2-8.0.2-0~ubuntu22.04.1) date 2024-05-18 22:12:29*
%MOMM*%
%LPD*%
G01*
G04 APERTURE LIST*
%ADD10C,0.150000*%
%ADD11C,0.120000*%
G04 APERTURE END LIST*
D10*
X49144819Y-57051666D02*
X49859104Y-57051666D01*
X49859104Y-57051666D02*
X50001961Y-57004047D01*
X50001961Y-57004047D02*
X50097200Y-56908809D01*
X50097200Y-56908809D02*
X50144819Y-56765952D01*
X50144819Y-56765952D02*
X50144819Y-56670714D01*
X50144819Y-58051666D02*
X50144819Y-57480238D01*
X50144819Y-57765952D02*
X49144819Y-57765952D01*
X49144819Y-57765952D02*
X49287676Y-57670714D01*
X49287676Y-57670714D02*
X49382914Y-57575476D01*
X49382914Y-57575476D02*
X49430533Y-57480238D01*
D11*
X50630000Y-54440000D02*
X50630000Y-57100000D01*
X50630000Y-57100000D02*
X58370000Y-57100000D01*
X50690000Y-51730000D02*
X51960000Y-51730000D01*
X50690000Y-53000000D02*
X50690000Y-51730000D01*
X51580000Y-54440000D02*
X51580000Y-54110000D01*
X51580000Y-63100000D02*
X51580000Y-57100000D01*
X51640000Y-63100000D02*
X51640000Y-57100000D01*
X51760000Y-63100000D02*
X51760000Y-57100000D01*
X51880000Y-63100000D02*
X51880000Y-57100000D01*
X52000000Y-63100000D02*
X52000000Y-57100000D01*
X52120000Y-63100000D02*
X52120000Y-57100000D01*
X52240000Y-63100000D02*
X52240000Y-57100000D01*
X52340000Y-54440000D02*
X52340000Y-54110000D01*
X52340000Y-57100000D02*
X52340000Y-63100000D01*
X52340000Y-63100000D02*
X51580000Y-63100000D01*
X53230000Y-57100000D02*
X53230000Y-54440000D01*
X54120000Y-54440000D02*
X54120000Y-54042929D01*
X54120000Y-63100000D02*
X54120000Y-57100000D01*
X54880000Y-54440000D02*
X54880000Y-54042929D01*
X54880000Y-57100000D02*
X54880000Y-63100000D01*
X54880000Y-63100000D02*
X54120000Y-63100000D01*
X55770000Y-57100000D02*
X55770000Y-54440000D01*
X56660000Y-54440000D02*
X56660000Y-54042929D01*
X56660000Y-63100000D02*
X56660000Y-57100000D01*
X57420000Y-54440000D02*
X57420000Y-54042929D01*
X57420000Y-57100000D02*
X57420000Y-63100000D01*
X57420000Y-63100000D02*
X56660000Y-63100000D01*
X58370000Y-54440000D02*
X50630000Y-54440000D01*
X58370000Y-57100000D02*
X58370000Y-54440000D01*
M02*
